<!-- Generator: Adobe Illustrator 22.1.0, SVG Export Plug-In  -->
<svg version="1.1"
	 xmlns="http://www.w3.org/2000/svg" xmlns:xlink="http://www.w3.org/1999/xlink" xmlns:a="http://ns.adobe.com/AdobeSVGViewerExtensions/3.0/"
	 x="0px" y="0px" width="1280px" height="1201px" viewBox="0 0 1280 1201"
	 style="overflow:inherit;enable-background:new 0 0 1280 1201;" xml:space="preserve">
<style type="text/css">
	.st0{clip-path:url(#SVGID_2_);fill:#FFFFFF;}
	.st1{clip-path:url(#SVGID_4_);fill:none;stroke:#FFFFFF;stroke-width:2.592;stroke-miterlimit:10;}
	.st2{fill:#DCDDDE;}
	.st3{fill:#D2D3D4;}
	.st4{clip-path:url(#SVGID_6_);fill:#FFFFFF;}
	.st5{clip-path:url(#SVGID_8_);fill:none;stroke:#FFFFFF;stroke-width:7;}
	.st6{clip-path:url(#SVGID_10_);fill:none;stroke:#FFFFFF;stroke-width:2.592;stroke-miterlimit:10;}
	.st7{clip-path:url(#SVGID_12_);fill:none;stroke:#FFFFFF;stroke-width:7;}
	.st8{clip-path:url(#SVGID_14_);fill:#FFFFFF;}
	.st9{clip-path:url(#SVGID_16_);fill:#FFFFFF;}
	.st10{clip-path:url(#SVGID_18_);fill:none;stroke:#FFFFFF;stroke-width:2.592;stroke-miterlimit:10;}
	.st11{clip-path:url(#SVGID_20_);fill:#FFFFFF;}
	.st12{clip-path:url(#SVGID_22_);fill:none;stroke:#FFFFFF;stroke-width:7;}
	.st13{clip-path:url(#SVGID_24_);fill:none;stroke:#FFFFFF;stroke-width:2.592;stroke-miterlimit:10;}
	.st14{clip-path:url(#SVGID_26_);fill:none;stroke:#FFFFFF;stroke-width:7;}
	.st15{clip-path:url(#SVGID_28_);fill:#FFFFFF;}
</style>
<defs>
</defs>
<g>
	<defs>
		<rect id="SVGID_1_" x="1115.8" y="971.3" width="57.5" height="132.9"/>
	</defs>
	<clipPath id="SVGID_2_">
		<use xlink:href="#SVGID_1_"  style="overflow:visible;"/>
	</clipPath>
	<path class="st0" d="M1144.5,1091.5c-1,0-1.9,0.9-1.9,1.9s0.9,1.9,1.9,1.9s1.9-0.9,1.9-1.9S1145.5,1091.5,1144.5,1091.5"/>
	<path class="st0" d="M1131.1,1091.5c-1,0-1.9,0.9-1.9,1.9s0.9,1.9,1.9,1.9s1.9-0.9,1.9-1.9S1132.1,1091.5,1131.1,1091.5"/>
	<path class="st0" d="M1117.7,1091.5c-1,0-1.9,0.9-1.9,1.9s0.9,1.9,1.9,1.9s1.9-0.9,1.9-1.9S1118.7,1091.5,1117.7,1091.5"/>
	<path class="st0" d="M1124.4,1082.5c-1,0-1.9,0.9-1.9,1.9c0,1,0.9,1.9,1.9,1.9s1.9-0.9,1.9-1.9
		C1126.3,1083.4,1125.4,1082.5,1124.4,1082.5"/>
	<path class="st0" d="M1137.8,1082.5c-1,0-1.9,0.9-1.9,1.9c0,1,0.9,1.9,1.9,1.9s1.9-0.9,1.9-1.9
		C1139.7,1083.4,1138.8,1082.5,1137.8,1082.5"/>
	<path class="st0" d="M1144.5,1073.6c-1,0-1.9,0.9-1.9,1.9c0,1,0.9,1.9,1.9,1.9s1.9-0.9,1.9-1.9
		C1146.4,1074.5,1145.5,1073.6,1144.5,1073.6"/>
	<path class="st0" d="M1131.1,1073.6c-1,0-1.9,0.9-1.9,1.9c0,1,0.9,1.9,1.9,1.9s1.9-0.9,1.9-1.9
		C1133,1074.5,1132.1,1073.6,1131.1,1073.6"/>
	<path class="st0" d="M1117.7,1073.6c-1,0-1.9,0.9-1.9,1.9c0,1,0.9,1.9,1.9,1.9s1.9-0.9,1.9-1.9
		C1119.6,1074.5,1118.7,1073.6,1117.7,1073.6"/>
	<path class="st0" d="M1124.4,1100.4c-1,0-1.9,0.9-1.9,1.9c0,1,0.9,1.9,1.9,1.9s1.9-0.9,1.9-1.9
		C1126.3,1101.3,1125.4,1100.4,1124.4,1100.4"/>
	<path class="st0" d="M1137.8,1100.4c-1,0-1.9,0.9-1.9,1.9c0,1,0.9,1.9,1.9,1.9s1.9-0.9,1.9-1.9
		C1139.7,1101.3,1138.8,1100.4,1137.8,1100.4"/>
	<path class="st0" d="M1171.4,1091.5c-1,0-1.9,0.9-1.9,1.9s0.9,1.9,1.9,1.9s1.9-0.9,1.9-1.9S1172.4,1091.5,1171.4,1091.5"/>
	<path class="st0" d="M1158,1091.5c-1,0-1.9,0.9-1.9,1.9s0.9,1.9,1.9,1.9s1.9-0.9,1.9-1.9S1159,1091.5,1158,1091.5"/>
	<path class="st0" d="M1144.6,1091.5c-1,0-1.9,0.9-1.9,1.9s0.9,1.9,1.9,1.9s1.9-0.9,1.9-1.9S1145.6,1091.5,1144.6,1091.5"/>
	<path class="st0" d="M1151.3,1082.5c-1,0-1.9,0.9-1.9,1.9c0,1,0.9,1.9,1.9,1.9s1.9-0.9,1.9-1.9
		C1153.2,1083.4,1152.3,1082.5,1151.3,1082.5"/>
	<path class="st0" d="M1164.7,1082.5c-1,0-1.9,0.9-1.9,1.9c0,1,0.9,1.9,1.9,1.9s1.9-0.9,1.9-1.9
		C1166.6,1083.4,1165.7,1082.5,1164.7,1082.5"/>
	<path class="st0" d="M1171.4,1073.6c-1,0-1.9,0.9-1.9,1.9c0,1,0.9,1.9,1.9,1.9s1.9-0.9,1.9-1.9
		C1173.3,1074.5,1172.4,1073.6,1171.4,1073.6"/>
	<path class="st0" d="M1158,1073.6c-1,0-1.9,0.9-1.9,1.9c0,1,0.9,1.9,1.9,1.9s1.9-0.9,1.9-1.9
		C1159.9,1074.5,1159,1073.6,1158,1073.6"/>
	<path class="st0" d="M1144.6,1073.6c-1,0-1.9,0.9-1.9,1.9c0,1,0.9,1.9,1.9,1.9s1.9-0.9,1.9-1.9
		C1146.5,1074.5,1145.6,1073.6,1144.6,1073.6"/>
	<path class="st0" d="M1151.3,1100.4c-1,0-1.9,0.9-1.9,1.9c0,1,0.9,1.9,1.9,1.9s1.9-0.9,1.9-1.9
		C1153.2,1101.3,1152.3,1100.4,1151.3,1100.4"/>
	<path class="st0" d="M1144.5,1056.8c-1,0-1.9,0.9-1.9,1.9s0.9,1.9,1.9,1.9s1.9-0.9,1.9-1.9S1145.5,1056.8,1144.5,1056.8"/>
	<path class="st0" d="M1131.1,1056.8c-1,0-1.9,0.9-1.9,1.9s0.9,1.9,1.9,1.9s1.9-0.9,1.9-1.9S1132.1,1056.8,1131.1,1056.8"/>
	<path class="st0" d="M1117.7,1056.8c-1,0-1.9,0.9-1.9,1.9s0.9,1.9,1.9,1.9s1.9-0.9,1.9-1.9S1118.7,1056.8,1117.7,1056.8"/>
	<path class="st0" d="M1124.4,1047.9c-1,0-1.9,0.9-1.9,1.9s0.9,1.9,1.9,1.9s1.9-0.9,1.9-1.9S1125.4,1047.9,1124.4,1047.9"/>
	<path class="st0" d="M1137.8,1047.9c-1,0-1.9,0.9-1.9,1.9s0.9,1.9,1.9,1.9s1.9-0.9,1.9-1.9S1138.8,1047.9,1137.8,1047.9"/>
	<path class="st0" d="M1144.5,1039c-1,0-1.9,0.9-1.9,1.9c0,1,0.9,1.9,1.9,1.9s1.9-0.9,1.9-1.9
		C1146.4,1039.8,1145.5,1039,1144.5,1039"/>
	<path class="st0" d="M1131.1,1039c-1,0-1.9,0.9-1.9,1.9c0,1,0.9,1.9,1.9,1.9s1.9-0.9,1.9-1.9C1133,1039.8,1132.1,1039,1131.1,1039"
		/>
	<path class="st0" d="M1117.7,1039c-1,0-1.9,0.9-1.9,1.9c0,1,0.9,1.9,1.9,1.9s1.9-0.9,1.9-1.9
		C1119.6,1039.8,1118.7,1039,1117.7,1039"/>
	<path class="st0" d="M1124.4,1065.8c-1,0-1.9,0.9-1.9,1.9s0.9,1.9,1.9,1.9s1.9-0.9,1.9-1.9S1125.4,1065.8,1124.4,1065.8"/>
	<path class="st0" d="M1137.8,1065.8c-1,0-1.9,0.9-1.9,1.9s0.9,1.9,1.9,1.9s1.9-0.9,1.9-1.9S1138.8,1065.8,1137.8,1065.8"/>
	<path class="st0" d="M1171.4,1056.8c-1,0-1.9,0.9-1.9,1.9s0.9,1.9,1.9,1.9s1.9-0.9,1.9-1.9S1172.4,1056.8,1171.4,1056.8"/>
	<path class="st0" d="M1158,1056.8c-1,0-1.9,0.9-1.9,1.9s0.9,1.9,1.9,1.9s1.9-0.9,1.9-1.9S1159,1056.8,1158,1056.8"/>
	<path class="st0" d="M1144.6,1056.8c-1,0-1.9,0.9-1.9,1.9s0.9,1.9,1.9,1.9s1.9-0.9,1.9-1.9S1145.6,1056.8,1144.6,1056.8"/>
	<path class="st0" d="M1151.3,1047.9c-1,0-1.9,0.9-1.9,1.9s0.9,1.9,1.9,1.9s1.9-0.9,1.9-1.9S1152.3,1047.9,1151.3,1047.9"/>
	<path class="st0" d="M1164.7,1047.9c-1,0-1.9,0.9-1.9,1.9s0.9,1.9,1.9,1.9s1.9-0.9,1.9-1.9S1165.7,1047.9,1164.7,1047.9"/>
	<path class="st0" d="M1171.4,1039c-1,0-1.9,0.9-1.9,1.9c0,1,0.9,1.9,1.9,1.9s1.9-0.9,1.9-1.9
		C1173.3,1039.8,1172.4,1039,1171.4,1039"/>
	<path class="st0" d="M1158,1039c-1,0-1.9,0.9-1.9,1.9c0,1,0.9,1.9,1.9,1.9s1.9-0.9,1.9-1.9C1159.9,1039.8,1159,1039,1158,1039"/>
	<path class="st0" d="M1144.6,1039c-1,0-1.9,0.9-1.9,1.9c0,1,0.9,1.9,1.9,1.9s1.9-0.9,1.9-1.9
		C1146.5,1039.8,1145.6,1039,1144.6,1039"/>
	<path class="st0" d="M1151.3,1065.8c-1,0-1.9,0.9-1.9,1.9s0.9,1.9,1.9,1.9s1.9-0.9,1.9-1.9S1152.3,1065.8,1151.3,1065.8"/>
	<path class="st0" d="M1164.7,1065.8c-1,0-1.9,0.9-1.9,1.9s0.9,1.9,1.9,1.9s1.9-0.9,1.9-1.9S1165.7,1065.8,1164.7,1065.8"/>
	<path class="st0" d="M1144.5,1022.2c-1,0-1.9,0.9-1.9,1.9c0,1,0.9,1.9,1.9,1.9s1.9-0.9,1.9-1.9
		C1146.4,1023,1145.5,1022.2,1144.5,1022.2"/>
	<path class="st0" d="M1131.1,1022.2c-1,0-1.9,0.9-1.9,1.9c0,1,0.9,1.9,1.9,1.9s1.9-0.9,1.9-1.9
		C1133,1023,1132.1,1022.2,1131.1,1022.2"/>
	<path class="st0" d="M1117.7,1022.2c-1,0-1.9,0.9-1.9,1.9c0,1,0.9,1.9,1.9,1.9s1.9-0.9,1.9-1.9
		C1119.6,1023,1118.7,1022.2,1117.7,1022.2"/>
	<path class="st0" d="M1124.4,1013.3c-1,0-1.9,0.9-1.9,1.9c0,1,0.9,1.9,1.9,1.9s1.9-0.9,1.9-1.9
		C1126.3,1014.1,1125.4,1013.3,1124.4,1013.3"/>
	<path class="st0" d="M1137.8,1013.3c-1,0-1.9,0.9-1.9,1.9c0,1,0.9,1.9,1.9,1.9s1.9-0.9,1.9-1.9
		C1139.7,1014.1,1138.8,1013.3,1137.8,1013.3"/>
	<path class="st0" d="M1144.5,1004.3c-1,0-1.9,0.9-1.9,1.9c0,1,0.9,1.9,1.9,1.9s1.9-0.9,1.9-1.9
		C1146.4,1005.2,1145.5,1004.3,1144.5,1004.3"/>
	<path class="st0" d="M1131.1,1004.3c-1,0-1.9,0.9-1.9,1.9c0,1,0.9,1.9,1.9,1.9s1.9-0.9,1.9-1.9
		C1133,1005.2,1132.1,1004.3,1131.1,1004.3"/>
	<path class="st0" d="M1117.7,1004.3c-1,0-1.9,0.9-1.9,1.9c0,1,0.9,1.9,1.9,1.9s1.9-0.9,1.9-1.9
		C1119.6,1005.2,1118.7,1004.3,1117.7,1004.3"/>
	<path class="st0" d="M1124.4,1031.1c-1,0-1.9,0.9-1.9,1.9s0.9,1.9,1.9,1.9s1.9-0.9,1.9-1.9S1125.4,1031.1,1124.4,1031.1"/>
	<path class="st0" d="M1137.8,1031.1c-1,0-1.9,0.9-1.9,1.9s0.9,1.9,1.9,1.9s1.9-0.9,1.9-1.9S1138.8,1031.1,1137.8,1031.1"/>
	<path class="st0" d="M1171.4,1022.2c-1,0-1.9,0.9-1.9,1.9c0,1,0.9,1.9,1.9,1.9s1.9-0.9,1.9-1.9
		C1173.3,1023,1172.4,1022.2,1171.4,1022.2"/>
	<path class="st0" d="M1158,1022.2c-1,0-1.9,0.9-1.9,1.9c0,1,0.9,1.9,1.9,1.9s1.9-0.9,1.9-1.9C1159.9,1023,1159,1022.2,1158,1022.2"
		/>
	<path class="st0" d="M1144.6,1022.2c-1,0-1.9,0.9-1.9,1.9c0,1,0.9,1.9,1.9,1.9s1.9-0.9,1.9-1.9
		C1146.5,1023,1145.6,1022.2,1144.6,1022.2"/>
	<path class="st0" d="M1151.3,1013.3c-1,0-1.9,0.9-1.9,1.9c0,1,0.9,1.9,1.9,1.9s1.9-0.9,1.9-1.9
		C1153.2,1014.1,1152.3,1013.3,1151.3,1013.3"/>
	<path class="st0" d="M1164.7,1013.3c-1,0-1.9,0.9-1.9,1.9c0,1,0.9,1.9,1.9,1.9s1.9-0.9,1.9-1.9
		C1166.6,1014.1,1165.7,1013.3,1164.7,1013.3"/>
	<path class="st0" d="M1171.4,1004.3c-1,0-1.9,0.9-1.9,1.9c0,1,0.9,1.9,1.9,1.9s1.9-0.9,1.9-1.9
		C1173.3,1005.2,1172.4,1004.3,1171.4,1004.3"/>
	<path class="st0" d="M1158,1004.3c-1,0-1.9,0.9-1.9,1.9c0,1,0.9,1.9,1.9,1.9s1.9-0.9,1.9-1.9
		C1159.9,1005.2,1159,1004.3,1158,1004.3"/>
	<path class="st0" d="M1144.6,1004.3c-1,0-1.9,0.9-1.9,1.9c0,1,0.9,1.9,1.9,1.9s1.9-0.9,1.9-1.9
		C1146.5,1005.2,1145.6,1004.3,1144.6,1004.3"/>
	<path class="st0" d="M1151.3,1031.1c-1,0-1.9,0.9-1.9,1.9s0.9,1.9,1.9,1.9s1.9-0.9,1.9-1.9S1152.3,1031.1,1151.3,1031.1"/>
	<path class="st0" d="M1164.7,1031.1c-1,0-1.9,0.9-1.9,1.9s0.9,1.9,1.9,1.9s1.9-0.9,1.9-1.9S1165.7,1031.1,1164.7,1031.1"/>
	<path class="st0" d="M1144.5,989.2c-1,0-1.9,0.9-1.9,1.9s0.9,1.9,1.9,1.9s1.9-0.9,1.9-1.9S1145.5,989.2,1144.5,989.2"/>
	<path class="st0" d="M1131.1,989.2c-1,0-1.9,0.9-1.9,1.9s0.9,1.9,1.9,1.9s1.9-0.9,1.9-1.9S1132.1,989.2,1131.1,989.2"/>
	<path class="st0" d="M1117.7,989.2c-1,0-1.9,0.9-1.9,1.9s0.9,1.9,1.9,1.9s1.9-0.9,1.9-1.9S1118.7,989.2,1117.7,989.2"/>
	<path class="st0" d="M1124.4,980.3c-1,0-1.9,0.9-1.9,1.9s0.9,1.9,1.9,1.9s1.9-0.9,1.9-1.9S1125.4,980.3,1124.4,980.3"/>
	<path class="st0" d="M1137.8,980.3c-1,0-1.9,0.9-1.9,1.9s0.9,1.9,1.9,1.9s1.9-0.9,1.9-1.9S1138.8,980.3,1137.8,980.3"/>
	<path class="st0" d="M1144.5,971.3c-1,0-1.9,0.9-1.9,1.9s0.9,1.9,1.9,1.9s1.9-0.9,1.9-1.9S1145.5,971.3,1144.5,971.3"/>
	<path class="st0" d="M1131.1,971.3c-1,0-1.9,0.9-1.9,1.9s0.9,1.9,1.9,1.9s1.9-0.9,1.9-1.9S1132.1,971.3,1131.1,971.3"/>
	<path class="st0" d="M1117.7,971.3c-1,0-1.9,0.9-1.9,1.9s0.9,1.9,1.9,1.9s1.9-0.9,1.9-1.9S1118.7,971.3,1117.7,971.3"/>
	<path class="st0" d="M1124.4,998.1c-1,0-1.9,0.9-1.9,1.9c0,1,0.9,1.9,1.9,1.9s1.9-0.9,1.9-1.9
		C1126.3,999,1125.4,998.1,1124.4,998.1"/>
	<path class="st0" d="M1137.8,998.1c-1,0-1.9,0.9-1.9,1.9c0,1,0.9,1.9,1.9,1.9s1.9-0.9,1.9-1.9
		C1139.7,999,1138.8,998.1,1137.8,998.1"/>
	<path class="st0" d="M1171.4,989.2c-1,0-1.9,0.9-1.9,1.9s0.9,1.9,1.9,1.9s1.9-0.9,1.9-1.9S1172.4,989.2,1171.4,989.2"/>
	<path class="st0" d="M1158,989.2c-1,0-1.9,0.9-1.9,1.9s0.9,1.9,1.9,1.9s1.9-0.9,1.9-1.9S1159,989.2,1158,989.2"/>
	<path class="st0" d="M1144.6,989.2c-1,0-1.9,0.9-1.9,1.9s0.9,1.9,1.9,1.9s1.9-0.9,1.9-1.9S1145.6,989.2,1144.6,989.2"/>
	<path class="st0" d="M1151.3,980.3c-1,0-1.9,0.9-1.9,1.9s0.9,1.9,1.9,1.9s1.9-0.9,1.9-1.9S1152.3,980.3,1151.3,980.3"/>
	<path class="st0" d="M1164.7,980.3c-1,0-1.9,0.9-1.9,1.9s0.9,1.9,1.9,1.9s1.9-0.9,1.9-1.9S1165.7,980.3,1164.7,980.3"/>
	<path class="st0" d="M1171.4,971.3c-1,0-1.9,0.9-1.9,1.9s0.9,1.9,1.9,1.9s1.9-0.9,1.9-1.9S1172.4,971.3,1171.4,971.3"/>
	<path class="st0" d="M1158,971.3c-1,0-1.9,0.9-1.9,1.9s0.9,1.9,1.9,1.9s1.9-0.9,1.9-1.9S1159,971.3,1158,971.3"/>
	<path class="st0" d="M1144.6,971.3c-1,0-1.9,0.9-1.9,1.9s0.9,1.9,1.9,1.9s1.9-0.9,1.9-1.9S1145.6,971.3,1144.6,971.3"/>
	<path class="st0" d="M1151.3,998.1c-1,0-1.9,0.9-1.9,1.9c0,1,0.9,1.9,1.9,1.9s1.9-0.9,1.9-1.9
		C1153.2,999,1152.3,998.1,1151.3,998.1"/>
	<path class="st0" d="M1164.7,998.1c-1,0-1.9,0.9-1.9,1.9c0,1,0.9,1.9,1.9,1.9s1.9-0.9,1.9-1.9
		C1166.6,999,1165.7,998.1,1164.7,998.1"/>
</g>
<g>
	<defs>
		<rect id="SVGID_3_" x="1024.9" y="613.6" width="212.4" height="212.4"/>
	</defs>
	<clipPath id="SVGID_4_">
		<use xlink:href="#SVGID_3_"  style="overflow:visible;"/>
	</clipPath>
	<circle class="st1" cx="1131.1" cy="719.7" r="105.3"/>
</g>
<rect class="st2" width="1280" height="1201"/>
<polygon class="st3" points="0,1200 1280,0 1280,1200 "/>
<g>
	<defs>
		<rect id="SVGID_5_" x="1115.8" y="411.3" width="57.5" height="132.9"/>
	</defs>
	<clipPath id="SVGID_6_">
		<use xlink:href="#SVGID_5_"  style="overflow:visible;"/>
	</clipPath>
	<path class="st4" d="M1144.5,531.5c-1,0-1.9,0.9-1.9,1.9c0,1,0.9,1.9,1.9,1.9s1.9-0.9,1.9-1.9
		C1146.4,532.3,1145.5,531.5,1144.5,531.5"/>
	<path class="st4" d="M1131.1,531.5c-1,0-1.9,0.9-1.9,1.9c0,1,0.9,1.9,1.9,1.9s1.9-0.9,1.9-1.9
		C1133,532.3,1132.1,531.5,1131.1,531.5"/>
	<path class="st4" d="M1117.7,531.5c-1,0-1.9,0.9-1.9,1.9c0,1,0.9,1.9,1.9,1.9s1.9-0.9,1.9-1.9
		C1119.6,532.3,1118.7,531.5,1117.7,531.5"/>
	<path class="st4" d="M1124.4,522.5c-1,0-1.9,0.9-1.9,1.9c0,1,0.9,1.9,1.9,1.9s1.9-0.9,1.9-1.9
		C1126.3,523.4,1125.4,522.5,1124.4,522.5"/>
	<path class="st4" d="M1137.8,522.5c-1,0-1.9,0.9-1.9,1.9c0,1,0.9,1.9,1.9,1.9s1.9-0.9,1.9-1.9
		C1139.7,523.4,1138.8,522.5,1137.8,522.5"/>
	<path class="st4" d="M1144.5,513.6c-1,0-1.9,0.9-1.9,1.9c0,1,0.9,1.9,1.9,1.9s1.9-0.9,1.9-1.9
		C1146.4,514.5,1145.5,513.6,1144.5,513.6"/>
	<path class="st4" d="M1131.1,513.6c-1,0-1.9,0.9-1.9,1.9c0,1,0.9,1.9,1.9,1.9s1.9-0.9,1.9-1.9
		C1133,514.5,1132.1,513.6,1131.1,513.6"/>
	<path class="st4" d="M1117.7,513.6c-1,0-1.9,0.9-1.9,1.9c0,1,0.9,1.9,1.9,1.9s1.9-0.9,1.9-1.9
		C1119.6,514.5,1118.7,513.6,1117.7,513.6"/>
	<path class="st4" d="M1124.4,540.4c-1,0-1.9,0.9-1.9,1.9c0,1,0.9,1.9,1.9,1.9s1.9-0.9,1.9-1.9
		C1126.3,541.3,1125.4,540.4,1124.4,540.4"/>
	<path class="st4" d="M1137.8,540.4c-1,0-1.9,0.9-1.9,1.9c0,1,0.9,1.9,1.9,1.9s1.9-0.9,1.9-1.9
		C1139.7,541.3,1138.8,540.4,1137.8,540.4"/>
	<path class="st4" d="M1171.4,531.5c-1,0-1.9,0.9-1.9,1.9c0,1,0.9,1.9,1.9,1.9s1.9-0.9,1.9-1.9
		C1173.3,532.3,1172.4,531.5,1171.4,531.5"/>
	<path class="st4" d="M1158,531.5c-1,0-1.9,0.9-1.9,1.9c0,1,0.9,1.9,1.9,1.9s1.9-0.9,1.9-1.9C1159.9,532.3,1159,531.5,1158,531.5"/>
	<path class="st4" d="M1144.6,531.5c-1,0-1.9,0.9-1.9,1.9c0,1,0.9,1.9,1.9,1.9s1.9-0.9,1.9-1.9
		C1146.5,532.3,1145.6,531.5,1144.6,531.5"/>
	<path class="st4" d="M1151.3,522.5c-1,0-1.9,0.9-1.9,1.9c0,1,0.9,1.9,1.9,1.9s1.9-0.9,1.9-1.9
		C1153.2,523.4,1152.3,522.5,1151.3,522.5"/>
	<path class="st4" d="M1164.7,522.5c-1,0-1.9,0.9-1.9,1.9c0,1,0.9,1.9,1.9,1.9s1.9-0.9,1.9-1.9
		C1166.6,523.4,1165.7,522.5,1164.7,522.5"/>
	<path class="st4" d="M1171.4,513.6c-1,0-1.9,0.9-1.9,1.9c0,1,0.9,1.9,1.9,1.9s1.9-0.9,1.9-1.9
		C1173.3,514.5,1172.4,513.6,1171.4,513.6"/>
	<path class="st4" d="M1158,513.6c-1,0-1.9,0.9-1.9,1.9c0,1,0.9,1.9,1.9,1.9s1.9-0.9,1.9-1.9C1159.9,514.5,1159,513.6,1158,513.6"/>
	<path class="st4" d="M1144.6,513.6c-1,0-1.9,0.9-1.9,1.9c0,1,0.9,1.9,1.9,1.9s1.9-0.9,1.9-1.9
		C1146.5,514.5,1145.6,513.6,1144.6,513.6"/>
	<path class="st4" d="M1151.3,540.4c-1,0-1.9,0.9-1.9,1.9c0,1,0.9,1.9,1.9,1.9s1.9-0.9,1.9-1.9
		C1153.2,541.3,1152.3,540.4,1151.3,540.4"/>
	<path class="st4" d="M1144.5,496.8c-1,0-1.9,0.9-1.9,1.9s0.9,1.9,1.9,1.9s1.9-0.9,1.9-1.9S1145.5,496.8,1144.5,496.8"/>
	<path class="st4" d="M1131.1,496.8c-1,0-1.9,0.9-1.9,1.9s0.9,1.9,1.9,1.9s1.9-0.9,1.9-1.9S1132.1,496.8,1131.1,496.8"/>
	<path class="st4" d="M1117.7,496.8c-1,0-1.9,0.9-1.9,1.9s0.9,1.9,1.9,1.9s1.9-0.9,1.9-1.9S1118.7,496.8,1117.7,496.8"/>
	<path class="st4" d="M1124.4,487.9c-1,0-1.9,0.9-1.9,1.9c0,1,0.9,1.9,1.9,1.9s1.9-0.9,1.9-1.9
		C1126.3,488.7,1125.4,487.9,1124.4,487.9"/>
	<path class="st4" d="M1137.8,487.9c-1,0-1.9,0.9-1.9,1.9c0,1,0.9,1.9,1.9,1.9s1.9-0.9,1.9-1.9
		C1139.7,488.7,1138.8,487.9,1137.8,487.9"/>
	<path class="st4" d="M1144.5,479c-1,0-1.9,0.9-1.9,1.9s0.9,1.9,1.9,1.9s1.9-0.9,1.9-1.9S1145.5,479,1144.5,479"/>
	<path class="st4" d="M1131.1,479c-1,0-1.9,0.9-1.9,1.9s0.9,1.9,1.9,1.9s1.9-0.9,1.9-1.9S1132.1,479,1131.1,479"/>
	<path class="st4" d="M1117.7,479c-1,0-1.9,0.9-1.9,1.9s0.9,1.9,1.9,1.9s1.9-0.9,1.9-1.9S1118.7,479,1117.7,479"/>
	<path class="st4" d="M1124.4,505.8c-1,0-1.9,0.9-1.9,1.9s0.9,1.9,1.9,1.9s1.9-0.9,1.9-1.9S1125.4,505.8,1124.4,505.8"/>
	<path class="st4" d="M1137.8,505.8c-1,0-1.9,0.9-1.9,1.9s0.9,1.9,1.9,1.9s1.9-0.9,1.9-1.9S1138.8,505.8,1137.8,505.8"/>
	<path class="st4" d="M1171.4,496.8c-1,0-1.9,0.9-1.9,1.9s0.9,1.9,1.9,1.9s1.9-0.9,1.9-1.9S1172.4,496.8,1171.4,496.8"/>
	<path class="st4" d="M1158,496.8c-1,0-1.9,0.9-1.9,1.9s0.9,1.9,1.9,1.9s1.9-0.9,1.9-1.9S1159,496.8,1158,496.8"/>
	<path class="st4" d="M1144.6,496.8c-1,0-1.9,0.9-1.9,1.9s0.9,1.9,1.9,1.9s1.9-0.9,1.9-1.9S1145.6,496.8,1144.6,496.8"/>
	<path class="st4" d="M1151.3,487.9c-1,0-1.9,0.9-1.9,1.9c0,1,0.9,1.9,1.9,1.9s1.9-0.9,1.9-1.9
		C1153.2,488.7,1152.3,487.9,1151.3,487.9"/>
	<path class="st4" d="M1164.7,487.9c-1,0-1.9,0.9-1.9,1.9c0,1,0.9,1.9,1.9,1.9s1.9-0.9,1.9-1.9
		C1166.6,488.7,1165.7,487.9,1164.7,487.9"/>
	<path class="st4" d="M1171.4,479c-1,0-1.9,0.9-1.9,1.9s0.9,1.9,1.9,1.9s1.9-0.9,1.9-1.9S1172.4,479,1171.4,479"/>
	<path class="st4" d="M1158,479c-1,0-1.9,0.9-1.9,1.9s0.9,1.9,1.9,1.9s1.9-0.9,1.9-1.9S1159,479,1158,479"/>
	<path class="st4" d="M1144.6,479c-1,0-1.9,0.9-1.9,1.9s0.9,1.9,1.9,1.9s1.9-0.9,1.9-1.9S1145.6,479,1144.6,479"/>
	<path class="st4" d="M1151.3,505.8c-1,0-1.9,0.9-1.9,1.9s0.9,1.9,1.9,1.9s1.9-0.9,1.9-1.9S1152.3,505.8,1151.3,505.8"/>
	<path class="st4" d="M1164.7,505.8c-1,0-1.9,0.9-1.9,1.9s0.9,1.9,1.9,1.9s1.9-0.9,1.9-1.9S1165.7,505.8,1164.7,505.8"/>
	<path class="st4" d="M1144.5,462.2c-1,0-1.9,0.9-1.9,1.9c0,1,0.9,1.9,1.9,1.9s1.9-0.9,1.9-1.9
		C1146.4,463,1145.5,462.2,1144.5,462.2"/>
	<path class="st4" d="M1131.1,462.2c-1,0-1.9,0.9-1.9,1.9c0,1,0.9,1.9,1.9,1.9s1.9-0.9,1.9-1.9C1133,463,1132.1,462.2,1131.1,462.2"
		/>
	<path class="st4" d="M1117.7,462.2c-1,0-1.9,0.9-1.9,1.9c0,1,0.9,1.9,1.9,1.9s1.9-0.9,1.9-1.9
		C1119.6,463,1118.7,462.2,1117.7,462.2"/>
	<path class="st4" d="M1124.4,453.3c-1,0-1.9,0.9-1.9,1.9s0.9,1.9,1.9,1.9s1.9-0.9,1.9-1.9S1125.4,453.3,1124.4,453.3"/>
	<path class="st4" d="M1137.8,453.3c-1,0-1.9,0.9-1.9,1.9s0.9,1.9,1.9,1.9s1.9-0.9,1.9-1.9S1138.8,453.3,1137.8,453.3"/>
	<path class="st4" d="M1144.5,444.3c-1,0-1.9,0.9-1.9,1.9c0,1,0.9,1.9,1.9,1.9s1.9-0.9,1.9-1.9
		C1146.4,445.2,1145.5,444.3,1144.5,444.3"/>
	<path class="st4" d="M1131.1,444.3c-1,0-1.9,0.9-1.9,1.9c0,1,0.9,1.9,1.9,1.9s1.9-0.9,1.9-1.9
		C1133,445.2,1132.1,444.3,1131.1,444.3"/>
	<path class="st4" d="M1117.7,444.3c-1,0-1.9,0.9-1.9,1.9c0,1,0.9,1.9,1.9,1.9s1.9-0.9,1.9-1.9
		C1119.6,445.2,1118.7,444.3,1117.7,444.3"/>
	<path class="st4" d="M1124.4,471.1c-1,0-1.9,0.9-1.9,1.9s0.9,1.9,1.9,1.9s1.9-0.9,1.9-1.9S1125.4,471.1,1124.4,471.1"/>
	<path class="st4" d="M1137.8,471.1c-1,0-1.9,0.9-1.9,1.9s0.9,1.9,1.9,1.9s1.9-0.9,1.9-1.9S1138.8,471.1,1137.8,471.1"/>
	<path class="st4" d="M1171.4,462.2c-1,0-1.9,0.9-1.9,1.9c0,1,0.9,1.9,1.9,1.9s1.9-0.9,1.9-1.9
		C1173.3,463,1172.4,462.2,1171.4,462.2"/>
	<path class="st4" d="M1158,462.2c-1,0-1.9,0.9-1.9,1.9c0,1,0.9,1.9,1.9,1.9s1.9-0.9,1.9-1.9C1159.9,463,1159,462.2,1158,462.2"/>
	<path class="st4" d="M1144.6,462.2c-1,0-1.9,0.9-1.9,1.9c0,1,0.9,1.9,1.9,1.9s1.9-0.9,1.9-1.9
		C1146.5,463,1145.6,462.2,1144.6,462.2"/>
	<path class="st4" d="M1151.3,453.3c-1,0-1.9,0.9-1.9,1.9s0.9,1.9,1.9,1.9s1.9-0.9,1.9-1.9S1152.3,453.3,1151.3,453.3"/>
	<path class="st4" d="M1164.7,453.3c-1,0-1.9,0.9-1.9,1.9s0.9,1.9,1.9,1.9s1.9-0.9,1.9-1.9S1165.7,453.3,1164.7,453.3"/>
	<path class="st4" d="M1171.4,444.3c-1,0-1.9,0.9-1.9,1.9c0,1,0.9,1.9,1.9,1.9s1.9-0.9,1.9-1.9
		C1173.3,445.2,1172.4,444.3,1171.4,444.3"/>
	<path class="st4" d="M1158,444.3c-1,0-1.9,0.9-1.9,1.9c0,1,0.9,1.9,1.9,1.9s1.9-0.9,1.9-1.9C1159.9,445.2,1159,444.3,1158,444.3"/>
	<path class="st4" d="M1144.6,444.3c-1,0-1.9,0.9-1.9,1.9c0,1,0.9,1.9,1.9,1.9s1.9-0.9,1.9-1.9
		C1146.5,445.2,1145.6,444.3,1144.6,444.3"/>
	<path class="st4" d="M1151.3,471.1c-1,0-1.9,0.9-1.9,1.9s0.9,1.9,1.9,1.9s1.9-0.9,1.9-1.9S1152.3,471.1,1151.3,471.1"/>
	<path class="st4" d="M1164.7,471.1c-1,0-1.9,0.9-1.9,1.9s0.9,1.9,1.9,1.9s1.9-0.9,1.9-1.9S1165.7,471.1,1164.7,471.1"/>
	<path class="st4" d="M1144.5,429.2c-1,0-1.9,0.9-1.9,1.9s0.9,1.9,1.9,1.9s1.9-0.9,1.9-1.9S1145.5,429.2,1144.5,429.2"/>
	<path class="st4" d="M1131.1,429.2c-1,0-1.9,0.9-1.9,1.9s0.9,1.9,1.9,1.9s1.9-0.9,1.9-1.9S1132.1,429.2,1131.1,429.2"/>
	<path class="st4" d="M1117.7,429.2c-1,0-1.9,0.9-1.9,1.9s0.9,1.9,1.9,1.9s1.9-0.9,1.9-1.9S1118.7,429.2,1117.7,429.2"/>
	<path class="st4" d="M1124.4,420.3c-1,0-1.9,0.9-1.9,1.9s0.9,1.9,1.9,1.9s1.9-0.9,1.9-1.9S1125.4,420.3,1124.4,420.3"/>
	<path class="st4" d="M1137.8,420.3c-1,0-1.9,0.9-1.9,1.9s0.9,1.9,1.9,1.9s1.9-0.9,1.9-1.9S1138.8,420.3,1137.8,420.3"/>
	<path class="st4" d="M1144.5,411.3c-1,0-1.9,0.9-1.9,1.9s0.9,1.9,1.9,1.9s1.9-0.9,1.9-1.9S1145.5,411.3,1144.5,411.3"/>
	<path class="st4" d="M1131.1,411.3c-1,0-1.9,0.9-1.9,1.9s0.9,1.9,1.9,1.9s1.9-0.9,1.9-1.9S1132.1,411.3,1131.1,411.3"/>
	<path class="st4" d="M1117.7,411.3c-1,0-1.9,0.9-1.9,1.9s0.9,1.9,1.9,1.9s1.9-0.9,1.9-1.9S1118.7,411.3,1117.7,411.3"/>
	<path class="st4" d="M1124.4,438.1c-1,0-1.9,0.9-1.9,1.9c0,1,0.9,1.9,1.9,1.9s1.9-0.9,1.9-1.9
		C1126.3,439,1125.4,438.1,1124.4,438.1"/>
	<path class="st4" d="M1137.8,438.1c-1,0-1.9,0.9-1.9,1.9c0,1,0.9,1.9,1.9,1.9s1.9-0.9,1.9-1.9
		C1139.7,439,1138.8,438.1,1137.8,438.1"/>
	<path class="st4" d="M1171.4,429.2c-1,0-1.9,0.9-1.9,1.9s0.9,1.9,1.9,1.9s1.9-0.9,1.9-1.9S1172.4,429.2,1171.4,429.2"/>
	<path class="st4" d="M1158,429.2c-1,0-1.9,0.9-1.9,1.9s0.9,1.9,1.9,1.9s1.9-0.9,1.9-1.9S1159,429.2,1158,429.2"/>
	<path class="st4" d="M1144.6,429.2c-1,0-1.9,0.9-1.9,1.9s0.9,1.9,1.9,1.9s1.9-0.9,1.9-1.9S1145.6,429.2,1144.6,429.2"/>
	<path class="st4" d="M1151.3,420.3c-1,0-1.9,0.9-1.9,1.9s0.9,1.9,1.9,1.9s1.9-0.9,1.9-1.9S1152.3,420.3,1151.3,420.3"/>
	<path class="st4" d="M1164.7,420.3c-1,0-1.9,0.9-1.9,1.9s0.9,1.9,1.9,1.9s1.9-0.9,1.9-1.9S1165.7,420.3,1164.7,420.3"/>
	<path class="st4" d="M1171.4,411.3c-1,0-1.9,0.9-1.9,1.9s0.9,1.9,1.9,1.9s1.9-0.9,1.9-1.9S1172.4,411.3,1171.4,411.3"/>
	<path class="st4" d="M1158,411.3c-1,0-1.9,0.9-1.9,1.9s0.9,1.9,1.9,1.9s1.9-0.9,1.9-1.9S1159,411.3,1158,411.3"/>
	<path class="st4" d="M1144.6,411.3c-1,0-1.9,0.9-1.9,1.9s0.9,1.9,1.9,1.9s1.9-0.9,1.9-1.9S1145.6,411.3,1144.6,411.3"/>
	<path class="st4" d="M1151.3,438.1c-1,0-1.9,0.9-1.9,1.9c0,1,0.9,1.9,1.9,1.9s1.9-0.9,1.9-1.9
		C1153.2,439,1152.3,438.1,1151.3,438.1"/>
	<path class="st4" d="M1164.7,438.1c-1,0-1.9,0.9-1.9,1.9c0,1,0.9,1.9,1.9,1.9s1.9-0.9,1.9-1.9
		C1166.6,439,1165.7,438.1,1164.7,438.1"/>
</g>
<g>
	<defs>
		<rect id="SVGID_7_" x="105.5" y="230" width="68.2" height="52.7"/>
	</defs>
	<clipPath id="SVGID_8_">
		<use xlink:href="#SVGID_7_"  style="overflow:visible;"/>
	</clipPath>
	<line class="st5" x1="105.5" y1="232.2" x2="173.7" y2="232.2"/>
	<line class="st5" x1="105.5" y1="244.3" x2="173.7" y2="244.3"/>
	<line class="st5" x1="105.5" y1="256.4" x2="173.7" y2="256.4"/>
	<line class="st5" x1="105.5" y1="268.5" x2="173.7" y2="268.5"/>
	<line class="st5" x1="105.5" y1="280.6" x2="173.7" y2="280.6"/>
</g>
<g>
	<defs>
		<rect id="SVGID_9_" x="1024.9" y="53.6" width="212.4" height="212.4"/>
	</defs>
	<clipPath id="SVGID_10_">
		<use xlink:href="#SVGID_9_"  style="overflow:visible;"/>
	</clipPath>
	<circle class="st6" cx="1131.1" cy="159.7" r="105.3"/>
</g>
<g>
	<defs>
		<rect id="SVGID_11_" x="1117.7" y="1004.3" width="68.2" height="52.7"/>
	</defs>
	<clipPath id="SVGID_12_">
		<use xlink:href="#SVGID_11_"  style="overflow:visible;"/>
	</clipPath>
	<line class="st7" x1="1117.7" y1="1006.4" x2="1185.9" y2="1006.4"/>
	<line class="st7" x1="1117.7" y1="1018.5" x2="1185.9" y2="1018.5"/>
	<line class="st7" x1="1117.7" y1="1030.6" x2="1185.9" y2="1030.6"/>
	<line class="st7" x1="1117.7" y1="1042.8" x2="1185.9" y2="1042.8"/>
	<line class="st7" x1="1117.7" y1="1054.9" x2="1185.9" y2="1054.9"/>
</g>
<g>
	<defs>
		<rect id="SVGID_13_" x="103.6" y="641.6" width="57.5" height="132.9"/>
	</defs>
	<clipPath id="SVGID_14_">
		<use xlink:href="#SVGID_13_"  style="overflow:visible;"/>
	</clipPath>
	<path class="st8" d="M132.3,761.8c-1,0-1.9,0.9-1.9,1.9c0,1,0.9,1.9,1.9,1.9c1,0,1.9-0.9,1.9-1.9
		C134.2,762.6,133.3,761.8,132.3,761.8"/>
	<path class="st8" d="M118.9,761.8c-1,0-1.9,0.9-1.9,1.9c0,1,0.9,1.9,1.9,1.9c1,0,1.9-0.9,1.9-1.9
		C120.8,762.6,119.9,761.8,118.9,761.8"/>
	<path class="st8" d="M105.5,761.8c-1,0-1.9,0.9-1.9,1.9c0,1,0.9,1.9,1.9,1.9c1,0,1.9-0.9,1.9-1.9
		C107.4,762.6,106.5,761.8,105.5,761.8"/>
	<path class="st8" d="M112.2,752.8c-1,0-1.9,0.9-1.9,1.9c0,1,0.9,1.9,1.9,1.9c1,0,1.9-0.9,1.9-1.9
		C114.1,753.7,113.2,752.8,112.2,752.8"/>
	<path class="st8" d="M125.6,752.8c-1,0-1.9,0.9-1.9,1.9c0,1,0.9,1.9,1.9,1.9c1,0,1.9-0.9,1.9-1.9
		C127.5,753.7,126.6,752.8,125.6,752.8"/>
	<path class="st8" d="M132.3,743.9c-1,0-1.9,0.9-1.9,1.9c0,1,0.9,1.9,1.9,1.9c1,0,1.9-0.9,1.9-1.9
		C134.2,744.7,133.3,743.9,132.3,743.9"/>
	<path class="st8" d="M118.9,743.9c-1,0-1.9,0.9-1.9,1.9c0,1,0.9,1.9,1.9,1.9c1,0,1.9-0.9,1.9-1.9
		C120.8,744.7,119.9,743.9,118.9,743.9"/>
	<path class="st8" d="M105.5,743.9c-1,0-1.9,0.9-1.9,1.9c0,1,0.9,1.9,1.9,1.9c1,0,1.9-0.9,1.9-1.9
		C107.4,744.7,106.5,743.9,105.5,743.9"/>
	<path class="st8" d="M112.2,770.7c-1,0-1.9,0.9-1.9,1.9c0,1,0.9,1.9,1.9,1.9c1,0,1.9-0.9,1.9-1.9
		C114.1,771.6,113.2,770.7,112.2,770.7"/>
	<path class="st8" d="M125.6,770.7c-1,0-1.9,0.9-1.9,1.9c0,1,0.9,1.9,1.9,1.9c1,0,1.9-0.9,1.9-1.9
		C127.5,771.6,126.6,770.7,125.6,770.7"/>
	<path class="st8" d="M159.2,761.8c-1,0-1.9,0.9-1.9,1.9c0,1,0.9,1.9,1.9,1.9s1.9-0.9,1.9-1.9C161.1,762.6,160.3,761.8,159.2,761.8"
		/>
	<path class="st8" d="M145.8,761.8c-1,0-1.9,0.9-1.9,1.9c0,1,0.9,1.9,1.9,1.9s1.9-0.9,1.9-1.9C147.7,762.6,146.8,761.8,145.8,761.8"
		/>
	<path class="st8" d="M132.4,761.8c-1,0-1.9,0.9-1.9,1.9c0,1,0.9,1.9,1.9,1.9s1.9-0.9,1.9-1.9C134.3,762.6,133.4,761.8,132.4,761.8"
		/>
	<path class="st8" d="M139.1,752.8c-1,0-1.9,0.9-1.9,1.9c0,1,0.9,1.9,1.9,1.9s1.9-0.9,1.9-1.9C141,753.7,140.1,752.8,139.1,752.8"/>
	<path class="st8" d="M152.5,752.8c-1,0-1.9,0.9-1.9,1.9c0,1,0.9,1.9,1.9,1.9s1.9-0.9,1.9-1.9C154.4,753.7,153.6,752.8,152.5,752.8"
		/>
	<path class="st8" d="M159.2,743.9c-1,0-1.9,0.9-1.9,1.9c0,1,0.9,1.9,1.9,1.9s1.9-0.9,1.9-1.9C161.1,744.7,160.3,743.9,159.2,743.9"
		/>
	<path class="st8" d="M145.8,743.9c-1,0-1.9,0.9-1.9,1.9c0,1,0.9,1.9,1.9,1.9s1.9-0.9,1.9-1.9C147.7,744.7,146.8,743.9,145.8,743.9"
		/>
	<path class="st8" d="M132.4,743.9c-1,0-1.9,0.9-1.9,1.9c0,1,0.9,1.9,1.9,1.9s1.9-0.9,1.9-1.9C134.3,744.7,133.4,743.9,132.4,743.9"
		/>
	<path class="st8" d="M139.1,770.7c-1,0-1.9,0.9-1.9,1.9c0,1,0.9,1.9,1.9,1.9s1.9-0.9,1.9-1.9C141,771.6,140.1,770.7,139.1,770.7"/>
	<path class="st8" d="M132.3,727.1c-1,0-1.9,0.9-1.9,1.9c0,1,0.9,1.9,1.9,1.9c1,0,1.9-0.9,1.9-1.9
		C134.2,728,133.3,727.1,132.3,727.1"/>
	<path class="st8" d="M118.9,727.1c-1,0-1.9,0.9-1.9,1.9c0,1,0.9,1.9,1.9,1.9c1,0,1.9-0.9,1.9-1.9
		C120.8,728,119.9,727.1,118.9,727.1"/>
	<path class="st8" d="M105.5,727.1c-1,0-1.9,0.9-1.9,1.9c0,1,0.9,1.9,1.9,1.9c1,0,1.9-0.9,1.9-1.9
		C107.4,728,106.5,727.1,105.5,727.1"/>
	<path class="st8" d="M112.2,718.2c-1,0-1.9,0.9-1.9,1.9c0,1,0.9,1.9,1.9,1.9c1,0,1.9-0.9,1.9-1.9
		C114.1,719,113.2,718.2,112.2,718.2"/>
	<path class="st8" d="M125.6,718.2c-1,0-1.9,0.9-1.9,1.9c0,1,0.9,1.9,1.9,1.9c1,0,1.9-0.9,1.9-1.9
		C127.5,719,126.6,718.2,125.6,718.2"/>
	<path class="st8" d="M132.3,709.2c-1,0-1.9,0.9-1.9,1.9c0,1,0.9,1.9,1.9,1.9c1,0,1.9-0.9,1.9-1.9
		C134.2,710.1,133.3,709.2,132.3,709.2"/>
	<path class="st8" d="M118.9,709.2c-1,0-1.9,0.9-1.9,1.9c0,1,0.9,1.9,1.9,1.9c1,0,1.9-0.9,1.9-1.9
		C120.8,710.1,119.9,709.2,118.9,709.2"/>
	<path class="st8" d="M105.5,709.2c-1,0-1.9,0.9-1.9,1.9c0,1,0.9,1.9,1.9,1.9c1,0,1.9-0.9,1.9-1.9
		C107.4,710.1,106.5,709.2,105.5,709.2"/>
	<path class="st8" d="M112.2,736.1c-1,0-1.9,0.9-1.9,1.9c0,1,0.9,1.9,1.9,1.9c1,0,1.9-0.9,1.9-1.9
		C114.1,736.9,113.2,736.1,112.2,736.1"/>
	<path class="st8" d="M125.6,736.1c-1,0-1.9,0.9-1.9,1.9c0,1,0.9,1.9,1.9,1.9c1,0,1.9-0.9,1.9-1.9
		C127.5,736.9,126.6,736.1,125.6,736.1"/>
	<path class="st8" d="M159.2,727.1c-1,0-1.9,0.9-1.9,1.9c0,1,0.9,1.9,1.9,1.9s1.9-0.9,1.9-1.9C161.1,728,160.3,727.1,159.2,727.1"/>
	<path class="st8" d="M145.8,727.1c-1,0-1.9,0.9-1.9,1.9c0,1,0.9,1.9,1.9,1.9s1.9-0.9,1.9-1.9C147.7,728,146.8,727.1,145.8,727.1"/>
	<path class="st8" d="M132.4,727.1c-1,0-1.9,0.9-1.9,1.9c0,1,0.9,1.9,1.9,1.9s1.9-0.9,1.9-1.9C134.3,728,133.4,727.1,132.4,727.1"/>
	<path class="st8" d="M139.1,718.2c-1,0-1.9,0.9-1.9,1.9c0,1,0.9,1.9,1.9,1.9s1.9-0.9,1.9-1.9C141,719,140.1,718.2,139.1,718.2"/>
	<path class="st8" d="M152.5,718.2c-1,0-1.9,0.9-1.9,1.9c0,1,0.9,1.9,1.9,1.9s1.9-0.9,1.9-1.9C154.4,719,153.6,718.2,152.5,718.2"/>
	<path class="st8" d="M159.2,709.2c-1,0-1.9,0.9-1.9,1.9c0,1,0.9,1.9,1.9,1.9s1.9-0.9,1.9-1.9C161.1,710.1,160.3,709.2,159.2,709.2"
		/>
	<path class="st8" d="M145.8,709.2c-1,0-1.9,0.9-1.9,1.9c0,1,0.9,1.9,1.9,1.9s1.9-0.9,1.9-1.9C147.7,710.1,146.8,709.2,145.8,709.2"
		/>
	<path class="st8" d="M132.4,709.2c-1,0-1.9,0.9-1.9,1.9c0,1,0.9,1.9,1.9,1.9s1.9-0.9,1.9-1.9C134.3,710.1,133.4,709.2,132.4,709.2"
		/>
	<path class="st8" d="M139.1,736.1c-1,0-1.9,0.9-1.9,1.9c0,1,0.9,1.9,1.9,1.9s1.9-0.9,1.9-1.9C141,736.9,140.1,736.1,139.1,736.1"/>
	<path class="st8" d="M152.5,736.1c-1,0-1.9,0.9-1.9,1.9c0,1,0.9,1.9,1.9,1.9s1.9-0.9,1.9-1.9C154.4,736.9,153.6,736.1,152.5,736.1"
		/>
	<path class="st8" d="M132.3,692.5c-1,0-1.9,0.9-1.9,1.9s0.9,1.9,1.9,1.9c1,0,1.9-0.9,1.9-1.9S133.3,692.5,132.3,692.5"/>
	<path class="st8" d="M118.9,692.5c-1,0-1.9,0.9-1.9,1.9s0.9,1.9,1.9,1.9c1,0,1.9-0.9,1.9-1.9S119.9,692.5,118.9,692.5"/>
	<path class="st8" d="M105.5,692.5c-1,0-1.9,0.9-1.9,1.9s0.9,1.9,1.9,1.9c1,0,1.9-0.9,1.9-1.9S106.5,692.5,105.5,692.5"/>
	<path class="st8" d="M112.2,683.5c-1,0-1.9,0.9-1.9,1.9s0.9,1.9,1.9,1.9c1,0,1.9-0.9,1.9-1.9S113.2,683.5,112.2,683.5"/>
	<path class="st8" d="M125.6,683.5c-1,0-1.9,0.9-1.9,1.9s0.9,1.9,1.9,1.9c1,0,1.9-0.9,1.9-1.9S126.6,683.5,125.6,683.5"/>
	<path class="st8" d="M132.3,674.6c-1,0-1.9,0.9-1.9,1.9s0.9,1.9,1.9,1.9c1,0,1.9-0.9,1.9-1.9S133.3,674.6,132.3,674.6"/>
	<path class="st8" d="M118.9,674.6c-1,0-1.9,0.9-1.9,1.9s0.9,1.9,1.9,1.9c1,0,1.9-0.9,1.9-1.9S119.9,674.6,118.9,674.6"/>
	<path class="st8" d="M105.5,674.6c-1,0-1.9,0.9-1.9,1.9s0.9,1.9,1.9,1.9c1,0,1.9-0.9,1.9-1.9S106.5,674.6,105.5,674.6"/>
	<path class="st8" d="M112.2,701.4c-1,0-1.9,0.9-1.9,1.9s0.9,1.9,1.9,1.9c1,0,1.9-0.9,1.9-1.9S113.2,701.4,112.2,701.4"/>
	<path class="st8" d="M125.6,701.4c-1,0-1.9,0.9-1.9,1.9s0.9,1.9,1.9,1.9c1,0,1.9-0.9,1.9-1.9S126.6,701.4,125.6,701.4"/>
	<path class="st8" d="M159.2,692.5c-1,0-1.9,0.9-1.9,1.9s0.9,1.9,1.9,1.9s1.9-0.9,1.9-1.9S160.3,692.5,159.2,692.5"/>
	<path class="st8" d="M145.8,692.5c-1,0-1.9,0.9-1.9,1.9s0.9,1.9,1.9,1.9s1.9-0.9,1.9-1.9S146.8,692.5,145.8,692.5"/>
	<path class="st8" d="M132.4,692.5c-1,0-1.9,0.9-1.9,1.9s0.9,1.9,1.9,1.9s1.9-0.9,1.9-1.9S133.4,692.5,132.4,692.5"/>
	<path class="st8" d="M139.1,683.5c-1,0-1.9,0.9-1.9,1.9s0.9,1.9,1.9,1.9s1.9-0.9,1.9-1.9S140.1,683.5,139.1,683.5"/>
	<path class="st8" d="M152.5,683.5c-1,0-1.9,0.9-1.9,1.9s0.9,1.9,1.9,1.9s1.9-0.9,1.9-1.9S153.6,683.5,152.5,683.5"/>
	<path class="st8" d="M159.2,674.6c-1,0-1.9,0.9-1.9,1.9s0.9,1.9,1.9,1.9s1.9-0.9,1.9-1.9S160.3,674.6,159.2,674.6"/>
	<path class="st8" d="M145.8,674.6c-1,0-1.9,0.9-1.9,1.9s0.9,1.9,1.9,1.9s1.9-0.9,1.9-1.9S146.8,674.6,145.8,674.6"/>
	<path class="st8" d="M132.4,674.6c-1,0-1.9,0.9-1.9,1.9s0.9,1.9,1.9,1.9s1.9-0.9,1.9-1.9S133.4,674.6,132.4,674.6"/>
	<path class="st8" d="M139.1,701.4c-1,0-1.9,0.9-1.9,1.9s0.9,1.9,1.9,1.9s1.9-0.9,1.9-1.9S140.1,701.4,139.1,701.4"/>
	<path class="st8" d="M152.5,701.4c-1,0-1.9,0.9-1.9,1.9s0.9,1.9,1.9,1.9s1.9-0.9,1.9-1.9S153.6,701.4,152.5,701.4"/>
	<path class="st8" d="M132.3,659.5c-1,0-1.9,0.9-1.9,1.9c0,1,0.9,1.9,1.9,1.9c1,0,1.9-0.9,1.9-1.9
		C134.2,660.3,133.3,659.5,132.3,659.5"/>
	<path class="st8" d="M118.9,659.5c-1,0-1.9,0.9-1.9,1.9c0,1,0.9,1.9,1.9,1.9c1,0,1.9-0.9,1.9-1.9
		C120.8,660.3,119.9,659.5,118.9,659.5"/>
	<path class="st8" d="M105.5,659.5c-1,0-1.9,0.9-1.9,1.9c0,1,0.9,1.9,1.9,1.9c1,0,1.9-0.9,1.9-1.9
		C107.4,660.3,106.5,659.5,105.5,659.5"/>
	<path class="st8" d="M112.2,650.5c-1,0-1.9,0.9-1.9,1.9c0,1,0.9,1.9,1.9,1.9c1,0,1.9-0.9,1.9-1.9
		C114.1,651.4,113.2,650.5,112.2,650.5"/>
	<path class="st8" d="M125.6,650.5c-1,0-1.9,0.9-1.9,1.9c0,1,0.9,1.9,1.9,1.9c1,0,1.9-0.9,1.9-1.9
		C127.5,651.4,126.6,650.5,125.6,650.5"/>
	<path class="st8" d="M132.3,641.6c-1,0-1.9,0.9-1.9,1.9c0,1,0.9,1.9,1.9,1.9c1,0,1.9-0.9,1.9-1.9
		C134.2,642.5,133.3,641.6,132.3,641.6"/>
	<path class="st8" d="M118.9,641.6c-1,0-1.9,0.9-1.9,1.9c0,1,0.9,1.9,1.9,1.9c1,0,1.9-0.9,1.9-1.9
		C120.8,642.5,119.9,641.6,118.9,641.6"/>
	<path class="st8" d="M105.5,641.6c-1,0-1.9,0.9-1.9,1.9c0,1,0.9,1.9,1.9,1.9c1,0,1.9-0.9,1.9-1.9
		C107.4,642.5,106.5,641.6,105.5,641.6"/>
	<path class="st8" d="M112.2,668.4c-1,0-1.9,0.9-1.9,1.9c0,1,0.9,1.9,1.9,1.9c1,0,1.9-0.9,1.9-1.9
		C114.1,669.3,113.2,668.4,112.2,668.4"/>
	<path class="st8" d="M125.6,668.4c-1,0-1.9,0.9-1.9,1.9c0,1,0.9,1.9,1.9,1.9c1,0,1.9-0.9,1.9-1.9
		C127.5,669.3,126.6,668.4,125.6,668.4"/>
	<path class="st8" d="M159.2,659.5c-1,0-1.9,0.9-1.9,1.9c0,1,0.9,1.9,1.9,1.9s1.9-0.9,1.9-1.9C161.1,660.3,160.3,659.5,159.2,659.5"
		/>
	<path class="st8" d="M145.8,659.5c-1,0-1.9,0.9-1.9,1.9c0,1,0.9,1.9,1.9,1.9s1.9-0.9,1.9-1.9C147.7,660.3,146.8,659.5,145.8,659.5"
		/>
	<path class="st8" d="M132.4,659.5c-1,0-1.9,0.9-1.9,1.9c0,1,0.9,1.9,1.9,1.9s1.9-0.9,1.9-1.9C134.3,660.3,133.4,659.5,132.4,659.5"
		/>
	<path class="st8" d="M139.1,650.5c-1,0-1.9,0.9-1.9,1.9c0,1,0.9,1.9,1.9,1.9s1.9-0.9,1.9-1.9C141,651.4,140.1,650.5,139.1,650.5"/>
	<path class="st8" d="M152.5,650.5c-1,0-1.9,0.9-1.9,1.9c0,1,0.9,1.9,1.9,1.9s1.9-0.9,1.9-1.9C154.4,651.4,153.6,650.5,152.5,650.5"
		/>
	<path class="st8" d="M159.2,641.6c-1,0-1.9,0.9-1.9,1.9c0,1,0.9,1.9,1.9,1.9s1.9-0.9,1.9-1.9C161.1,642.5,160.3,641.6,159.2,641.6"
		/>
	<path class="st8" d="M145.8,641.6c-1,0-1.9,0.9-1.9,1.9c0,1,0.9,1.9,1.9,1.9s1.9-0.9,1.9-1.9C147.7,642.5,146.8,641.6,145.8,641.6"
		/>
	<path class="st8" d="M132.4,641.6c-1,0-1.9,0.9-1.9,1.9c0,1,0.9,1.9,1.9,1.9s1.9-0.9,1.9-1.9C134.3,642.5,133.4,641.6,132.4,641.6"
		/>
	<path class="st8" d="M139.1,668.4c-1,0-1.9,0.9-1.9,1.9c0,1,0.9,1.9,1.9,1.9s1.9-0.9,1.9-1.9C141,669.3,140.1,668.4,139.1,668.4"/>
	<path class="st8" d="M152.5,668.4c-1,0-1.9,0.9-1.9,1.9c0,1,0.9,1.9,1.9,1.9s1.9-0.9,1.9-1.9C154.4,669.3,153.6,668.4,152.5,668.4"
		/>
</g>
</svg>