<!-- Generator: Adobe Illustrator 22.1.0, SVG Export Plug-In  -->
<svg version="1.1"
	 xmlns="http://www.w3.org/2000/svg" xmlns:xlink="http://www.w3.org/1999/xlink" xmlns:a="http://ns.adobe.com/AdobeSVGViewerExtensions/3.0/"
	 x="0px" y="0px" width="166.8px" height="166.8px" viewBox="0 0 166.8 166.8" style="enable-background:new 0 0 166.8 166.8;"
	 xml:space="preserve">
<style type="text/css">
	.st0{fill:#FFFFFF;}
	.st1{fill:none;stroke:#FFFFFF;}
</style>
<defs>
</defs>
<g>
	
		<ellipse transform="matrix(0.1552 -0.9879 0.9879 0.1552 -11.9293 152.8292)" class="st0" cx="83.4" cy="83.4" rx="83.4" ry="83.4"/>
	<g>
		<ellipse transform="matrix(0.1489 -0.9889 0.9889 0.1489 -11.4845 153.4286)" cx="83.4" cy="83.4" rx="80" ry="80"/>
		<g>
			<path class="st0" d="M63.1,69.4l0,2.1c0,0-0.6-0.5-1.5-0.5l-11.1,0l0,14.1l7.7,0c0.9,0,1.5-0.5,1.5-0.5l0,2.1
				c0,0-0.6-0.5-1.5-0.5l-7.7,0l0,14.6l11.1,0c0.9,0,1.5-0.5,1.5-0.5l0,2.1c0,0-0.6-0.5-1.5-0.5l-14.5,0c0,0,0.5-0.6,0.5-1.5l0-29.3
				c0-0.9-0.5-1.5-0.5-1.5l14.5,0C62.5,69.9,63.1,69.4,63.1,69.4z"/>
			<path class="st0" d="M84.1,85.5l0,15.1c0,0.9,0.5,1.5,0.5,1.5l-3.8,0c0,0,0.4-0.6,0.4-1.5l0-19.3c-3.7,0-7.4-4.6-7.4-9.6
				c0-5.2,3.4-7.4,8.9-7.4c1.2,0,15.4-0.6,15.4,8.5C98.2,73.9,98.3,85.2,84.1,85.5z M81.2,80l0-11.9c0-0.9-0.4-1.5-0.4-1.5l3.8,0
				c0,0-0.5,0.6-0.5,1.5l0,12.1c3.7-0.5,4.3-3.2,4.3-3.2s2.1,3.9-4.3,4.3l0,2.9C88.9,84,95.4,79.7,95.4,73c0-8.3-11.2-8-12.3-8
				c-2.6,0-6.4,1.8-6.4,6.7C76.7,74.6,78.5,80,81.2,80z"/>
			<path class="st0" d="M119,86c0,8.9-4.5,16.1-10,16.1c-5.5,0-10-7.2-10-16.1c0-8.9,4.5-16.1,10-16.1C114.5,69.9,119,77.1,119,86z
				 M116.1,86c0-7.9-3.2-14.9-7.1-14.9c-3.8,0-7,7-7,14.9c0,7.9,3.2,14.9,7,14.9C112.9,100.8,116.1,93.8,116.1,86z"/>
			<path class="st0" d="M139,69.4v2.1c0,0-0.6-0.5-1.5-0.5l-6.5,0l0,29.4c0.1,0.9,0.5,1.5,0.5,1.5l-3.8,0c0,0,0.4-0.6,0.5-1.5
				l0-29.4l-6.5,0c-0.9,0-1.5,0.5-1.5,0.5l0-2.1c0,0,0.6,0.5,1.5,0.5l15.9,0C138.3,69.9,139,69.4,139,69.4z"/>
			<path class="st0" d="M42.3,101l-11.1,0l0-14l0-0.6l0-1.2l0-0.7l0-12.8l0-4.3h0l0-1.7c0-0.9,0.5-1.5,0.5-1.5h-0.5l-2.9,0h-0.5
				c0,0,0.5,0.6,0.5,1.5l0,35c0,0.9-0.5,1.5-0.5,1.5l14.5,0c0.9,0,1.5,0.5,1.5,0.5l0-2.1C43.9,100.5,43.3,101,42.3,101z"/>
		</g>
		<g>
			<path class="st0" d="M48.7,124c-0.6-0.6-1-1.4-1-2.3c0-0.9,0.3-1.7,1-2.3c0.6-0.6,1.4-1,2.3-1c0.7,0,1.4,0.2,2,0.7
				c0.1,0,0.1,0.1,0.1,0.2c0,0.1,0,0.1-0.1,0.2c0,0.1-0.1,0.1-0.2,0.1c-0.1,0-0.1,0-0.2-0.1c-0.5-0.4-1.1-0.6-1.7-0.6
				c-0.8,0-1.4,0.3-1.9,0.8c-0.5,0.5-0.8,1.2-0.8,1.9c0,0.8,0.3,1.4,0.8,1.9c0.5,0.5,1.2,0.8,1.9,0.8c0.7,0,1.3-0.2,1.9-0.7
				c0.1-0.1,0.1-0.1,0.2-0.1c0.1,0,0.1,0,0.2,0.1c0,0.1,0.1,0.1,0.1,0.2c0,0.1,0,0.1-0.1,0.2c-0.6,0.6-1.4,0.9-2.2,0.9
				C50.2,125,49.4,124.7,48.7,124z M53,124.9c-0.1-0.1-0.1-0.1-0.1-0.2l0-2.9l-2.3,0c-0.1,0-0.1,0-0.2-0.1c-0.1-0.1-0.1-0.1-0.1-0.2
				c0-0.1,0-0.1,0.1-0.2c0.1-0.1,0.1-0.1,0.2-0.1l2.6,0c0.1,0,0.1,0,0.2,0.1c0.1,0.1,0.1,0.1,0.1,0.2l0,3.2c0,0.1,0,0.1-0.1,0.2
				c-0.1,0.1-0.1,0.1-0.2,0.1C53.1,125,53,125,53,124.9z"/>
			<path class="st0" d="M62.3,125c-0.9,0-1.7-0.3-2.3-1c-0.6-0.6-1-1.4-1-2.3c0-0.9,0.3-1.7,1-2.3c0.6-0.6,1.4-1,2.3-1
				c0.9,0,1.7,0.3,2.3,1c0.6,0.6,1,1.4,1,2.3c0,0.9-0.3,1.7-1,2.3C64,124.7,63.2,125,62.3,125z M62.3,118.9c-0.8,0-1.4,0.3-1.9,0.8
				c-0.5,0.5-0.8,1.2-0.8,1.9c0,0.8,0.3,1.4,0.8,1.9c0.5,0.5,1.2,0.8,1.9,0.8c0.8,0,1.4-0.3,1.9-0.8c0.5-0.5,0.8-1.2,0.8-1.9
				c0-0.8-0.3-1.4-0.8-1.9C63.7,119.2,63,118.9,62.3,118.9z"/>
			<path class="st0" d="M75.8,118.4c0.1,0,0.1,0,0.2,0.1c0.1,0.1,0.1,0.1,0.1,0.2l0,4.1c0,0.6-0.2,1.2-0.7,1.6
				c-0.4,0.4-1,0.7-1.6,0.7c-0.6,0-1.2-0.2-1.6-0.7c-0.4-0.4-0.7-1-0.7-1.6l0-4.1c0-0.1,0-0.1,0.1-0.2c0.1-0.1,0.1-0.1,0.2-0.1
				c0.1,0,0.1,0,0.2,0.1c0.1,0.1,0.1,0.1,0.1,0.2l0,4.1c0,0.5,0.2,0.9,0.5,1.2c0.3,0.3,0.7,0.5,1.2,0.5c0.5,0,0.9-0.2,1.2-0.5
				c0.3-0.3,0.5-0.7,0.5-1.2l0-4.1c0-0.1,0-0.1,0.1-0.2C75.6,118.4,75.7,118.4,75.8,118.4z"/>
			<path class="st0" d="M84.5,118.4c0.5,0,1,0.2,1.4,0.5c0.4,0.3,0.6,0.8,0.6,1.3c0,0.4-0.2,0.8-0.5,1.2c-0.3,0.3-0.7,0.5-1.1,0.6
				l1.3,2.7c0,0.1,0,0.1,0,0.2c0,0.1-0.1,0.1-0.1,0.2c0,0-0.1,0-0.1,0c-0.1,0-0.2-0.1-0.2-0.2l-1.4-2.9h-1.5l0,2.7
				c0,0.1,0,0.1-0.1,0.2c-0.1,0.1-0.1,0.1-0.2,0.1c-0.1,0-0.1,0-0.2-0.1c-0.1-0.1-0.1-0.1-0.1-0.2l0-6c0-0.1,0-0.1,0.1-0.2
				c0.1-0.1,0.1-0.1,0.2-0.1L84.5,118.4z M85.9,120.2c0-0.3-0.1-0.6-0.4-0.9c-0.3-0.2-0.6-0.4-1-0.4h-1.8l0,2.5l1.8,0
				c0.4,0,0.7-0.1,1-0.4C85.8,120.8,85.9,120.5,85.9,120.2z"/>
			<path class="st0" d="M92.8,124.7c0,0.1,0,0.1-0.1,0.2c-0.1,0.1-0.1,0.1-0.2,0.1c-0.1,0-0.1,0-0.2-0.1c-0.1-0.1-0.1-0.1-0.1-0.2
				l0-6c0-0.1,0.1-0.2,0.2-0.3c0.1,0,0.2,0,0.3,0.1l2.7,4.5l2.7-4.5c0.1-0.1,0.2-0.2,0.3-0.1c0.1,0,0.2,0.1,0.2,0.3l0,6
				c0,0.1,0,0.1-0.1,0.2c-0.1,0.1-0.1,0.1-0.2,0.1c-0.1,0-0.1,0-0.2-0.1c-0.1-0.1-0.1-0.1-0.1-0.2l0-5.1l-2.5,4.1l0,0v0c0,0,0,0,0,0
				c0,0,0,0,0,0c0,0,0,0,0,0c0,0,0,0,0,0c0,0,0,0,0,0c0,0,0,0,0,0c0,0,0,0,0,0c0,0,0,0,0,0c0,0,0,0,0,0c0,0,0,0,0,0c0,0,0,0,0,0
				c0,0,0,0,0,0c0,0,0,0,0,0c0,0,0,0,0,0c0,0,0,0,0,0c0,0,0,0,0,0c0,0,0,0,0,0c0,0,0,0,0,0c0,0,0,0,0,0c0,0,0,0,0,0c0,0,0,0,0,0
				s0,0,0,0c0,0,0,0,0,0v0l0,0l-2.5-4.1L92.8,124.7z"/>
			<path class="st0" d="M105.2,125c-0.1,0-0.1,0-0.2-0.1c-0.1-0.1-0.1-0.1-0.1-0.2l0-6.1c0-0.1,0-0.1,0.1-0.2
				c0.1-0.1,0.1-0.1,0.2-0.1l3.7,0c0.1,0,0.1,0,0.2,0.1c0.1,0.1,0.1,0.1,0.1,0.2c0,0.1,0,0.1-0.1,0.2c-0.1,0.1-0.1,0.1-0.2,0.1
				l-3.4,0l0,2.5l2.5,0c0.1,0,0.1,0,0.2,0.1c0.1,0.1,0.1,0.1,0.1,0.2c0,0.1,0,0.1-0.1,0.2c-0.1,0.1-0.1,0.1-0.2,0.1l-2.5,0l0,2.5
				l3.4,0c0.1,0,0.1,0,0.2,0.1c0.1,0.1,0.1,0.1,0.1,0.2c0,0.1,0,0.1-0.1,0.2c-0.1,0.1-0.1,0.1-0.2,0.1L105.2,125z"/>
			<path class="st0" d="M116.4,118.9l-1.8,0c-0.1,0-0.1,0-0.2-0.1c-0.1-0.1-0.1-0.1-0.1-0.2c0-0.1,0-0.1,0.1-0.2
				c0.1-0.1,0.1-0.1,0.2-0.1l4.2,0c0.1,0,0.1,0,0.2,0.1c0.1,0.1,0.1,0.1,0.1,0.2c0,0.1,0,0.1-0.1,0.2c-0.1,0.1-0.1,0.1-0.2,0.1
				l-1.8,0l0,5.8c0,0.1,0,0.1-0.1,0.2c-0.1,0.1-0.1,0.1-0.2,0.1c-0.1,0-0.1,0-0.2-0.1c-0.1-0.1-0.1-0.1-0.1-0.2L116.4,118.9z"/>
		</g>
		<g>
			<line class="st1" x1="35.9" y1="121.7" x2="42.9" y2="121.7"/>
			<line class="st1" x1="123.9" y1="121.7" x2="130.9" y2="121.7"/>
		</g>
		<g>
			<g>
				<path class="st0" d="M88.6,43.2c-1.4,0-3.1-0.7-4.7-1.4c-2.1-0.9-4.2-1.8-5.4-1.2c-0.5,0.3-0.9,0.9-1,1.8l-0.8-0.1
					c0.2-1.2,0.7-2,1.4-2.4c1.5-0.8,3.9,0.2,6.1,1.1c2.2,0.9,4.4,1.9,5.5,1.1l0.5,0.7C89.7,43,89.2,43.2,88.6,43.2z"/>
			</g>
			<g>
				<path class="st0" d="M89.2,35.8c-1.9,0-3.3-0.6-4.8-1.2c-2.2-0.9-4.2-1.8-7.2-0.1l-0.4-0.7c3.4-1.9,5.7-0.9,7.9,0
					c1.4,0.6,2.9,1.2,4.8,1.2l0,0.8C89.5,35.8,89.3,35.8,89.2,35.8z"/>
			</g>
			<g>
				<path class="st0" d="M88.4,36.9c0,0.3-0.2,0.5-0.5,0.5c-0.3,0-0.5-0.2-0.5-0.5c0-0.3,0.2-0.5,0.5-0.5
					C88.1,36.4,88.4,36.6,88.4,36.9z"/>
			</g>
			<g>
				<path class="st0" d="M88.9,38c0,0.2-0.2,0.4-0.4,0.4c-0.2,0-0.4-0.2-0.4-0.4c0-0.2,0.2-0.4,0.4-0.4C88.7,37.6,88.9,37.8,88.9,38
					z"/>
			</g>
			<g>
				<path class="st0" d="M87.1,38.5c0,0.2-0.2,0.4-0.4,0.4c-0.2,0-0.4-0.2-0.4-0.4c0-0.2,0.2-0.4,0.4-0.4
					C87,38.1,87.1,38.3,87.1,38.5z"/>
			</g>
			<g>
				<path class="st0" d="M88.1,47.4l-9.1,0c-1.3,0-2.3-1.1-2.3-2.3l0-14.1c0-1.3,1.1-2.3,2.3-2.3l9.1,0c1.3,0,2.3,1.1,2.3,2.3
					l0,14.1C90.4,46.3,89.4,47.4,88.1,47.4z M78.9,29.4c-0.8,0-1.5,0.7-1.5,1.5l0,14.1c0,0.8,0.7,1.5,1.5,1.5l9.1,0
					c0.8,0,1.5-0.7,1.5-1.5l0-14.1c0-0.8-0.7-1.5-1.5-1.5L78.9,29.4z"/>
			</g>
			<g>
				<path class="st0" d="M89.7,27.6c0-0.5-0.4-0.8-0.8-0.8l-10.7,0c-0.5,0-0.8,0.4-0.8,0.8v0.3c0,0.5,0.4,0.8,0.8,0.8l10.7,0
					c0.5,0,0.8-0.4,0.8-0.8V27.6z"/>
			</g>
			<g>
				<path class="st0" d="M79,36.8c-0.2,0-0.4-0.2-0.4-0.4l0-4.4c0-0.2,0.2-0.4,0.4-0.4c0.2,0,0.4,0.2,0.4,0.4l0,4.4
					C79.4,36.6,79.2,36.8,79,36.8z"/>
			</g>
			<g>
				<path class="st0" d="M79,39.9c-0.2,0-0.4-0.2-0.4-0.4l0-1.7c0-0.2,0.2-0.4,0.4-0.4c0.2,0,0.4,0.2,0.4,0.4l0,1.7
					C79.4,39.7,79.2,39.9,79,39.9z"/>
			</g>
			<g>
				<path class="st0" d="M88.4,48.1l-9.9,0c-0.2,0-0.4-0.2-0.4-0.4c0-0.2,0.2-0.4,0.4-0.4l9.9,0c0.2,0,0.4,0.2,0.4,0.4
					C88.9,47.9,88.7,48.1,88.4,48.1z"/>
			</g>
		</g>
	</g>
</g>
</svg>