
<!-- Generator: Adobe Illustrator 19.0.0, SVG Export Plug-In  -->
<svg version="1.1"
     xmlns="http://www.w3.org/2000/svg" xmlns:xlink="http://www.w3.org/1999/xlink" xmlns:a="http://ns.adobe.com/AdobeSVGViewerExtensions/3.0/"
     x="0px" y="0px" width="92.5px" height="52.1px" viewBox="0 0 92.5 52.1" style="enable-background:new 0 0 92.5 52.1;"
     xml:space="preserve">
<style type="text/css">
    .st0{fill:#fff;}
</style>
<defs>
</defs>
<g id="XMLID_36_">
    <path id="XMLID_56_" class="st0" d="M52.9,48.6L52.9,48.6c0-1.9-1.6-3.5-3.5-3.5h-5.9c-1.9,0-3.5,1.6-3.5,3.5v0
        c0,1.9,1.6,3.5,3.5,3.5h5.9C51.4,52.1,52.9,50.5,52.9,48.6z"/>
    <path id="XMLID_55_" class="st0" d="M55.6,37.3L55.6,37.3c0-1.9-1.6-3.5-3.5-3.5H40.7c-1.9,0-3.5,1.6-3.5,3.5v0
        c0,1.9,1.6,3.5,3.5,3.5h11.3C54,40.8,55.6,39.2,55.6,37.3z"/>
    <path id="XMLID_54_" class="st0" d="M6.9,48.6v-0.1c0-1.9-1.5-3.5-3.5-3.5h0c-1.9,0-3.5,1.5-3.5,3.5v0.1c0,1.9,1.5,3.5,3.5,3.5h0
        C5.4,52.1,6.9,50.5,6.9,48.6z"/>
    <path id="XMLID_53_" class="st0" d="M12.6,52.1h6.7c1.9,0,3.5-1.6,3.5-3.5v0c0-1.9-1.6-3.5-3.5-3.5h-6.7c-1.9,0-3.5,1.6-3.5,3.5v0
        C9.1,50.5,10.7,52.1,12.6,52.1z"/>
    <path id="XMLID_52_" class="st0" d="M88,52.1h1c1.9,0,3.5-1.6,3.5-3.5v0c0-1.9-1.6-3.5-3.5-3.5h-1c-1.9,0-3.5,1.6-3.5,3.5v0
        C84.5,50.5,86.1,52.1,88,52.1z"/>
    <path id="XMLID_51_" class="st0" d="M82.3,48.6L82.3,48.6c0-1.9-1.6-3.5-3.5-3.5h-5.2c-1.9,0-3.5,1.6-3.5,3.5v0
        c0,1.9,1.6,3.5,3.5,3.5h5.2C80.7,52.1,82.3,50.5,82.3,48.6z"/>
    <path id="XMLID_50_" class="st0" d="M66.3,29.5H81c1.9,0,3.5-1.6,3.5-3.5v0c0-1.9-1.6-3.5-3.5-3.5H66.3c-1.9,0-3.5,1.6-3.5,3.5v0
        C62.8,28,64.4,29.5,66.3,29.5z"/>
    <path id="XMLID_49_" class="st0" d="M25,26L25,26c0-1.9-1.6-3.5-3.5-3.5h-10C9.6,22.5,8,24.1,8,26v0c0,1.9,1.6,3.5,3.5,3.5h10
        C23.5,29.5,25,28,25,26z"/>
    <path id="XMLID_48_" class="st0" d="M34.4,7h0.4c1.9,0,3.5-1.6,3.5-3.5v0c0-1.9-1.6-3.5-3.5-3.5h-0.4c-1.9,0-3.5,1.6-3.5,3.5v0
        C30.9,5.5,32.5,7,34.4,7z"/>
    <path id="XMLID_47_" class="st0" d="M28.7,3.5L28.7,3.5c0-1.9-1.6-3.5-3.5-3.5h-6.3c-1.9,0-3.5,1.6-3.5,3.5v0
        c0,1.9,1.6,3.5,3.5,3.5h6.3C27.1,7,28.7,5.5,28.7,3.5z"/>
    <path id="XMLID_46_" class="st0" d="M71.9,7h1.7c1.9,0,3.5-1.6,3.5-3.5v0c0-1.9-1.6-3.5-3.5-3.5h-1.7c-1.9,0-3.5,1.6-3.5,3.5v0
        C68.4,5.5,70,7,71.9,7z"/>
    <path id="XMLID_45_" class="st0" d="M66.2,3.5L66.2,3.5c0-1.9-1.6-3.5-3.5-3.5h-6.1c-1.9,0-3.5,1.6-3.5,3.5v0
        c0,1.9,1.6,3.5,3.5,3.5h6.1C64.6,7,66.2,5.5,66.2,3.5z"/>
    <path id="XMLID_44_" class="st0" d="M68.3,18.3h9.3c1.9,0,3.5-1.6,3.5-3.5v0c0-1.9-1.6-3.5-3.5-3.5h-9.3c-1.9,0-3.5,1.6-3.5,3.5v0
        C64.8,16.7,66.3,18.3,68.3,18.3z"/>
    <path id="XMLID_43_" class="st0" d="M62.6,14.8L62.6,14.8c0-1.9-1.6-3.5-3.5-3.5h-5.3c-1.9,0-3.5,1.6-3.5,3.5v0
        c0,1.9,1.6,3.5,3.5,3.5H59C61,18.3,62.6,16.7,62.6,14.8z"/>
    <path id="XMLID_42_" class="st0" d="M20.7,14.8L20.7,14.8c0-1.9-1.6-3.5-3.5-3.5h-2.3c-1.9,0-3.5,1.6-3.5,3.5v0
        c0,1.9,1.6,3.5,3.5,3.5h2.3C19.1,18.3,20.7,16.7,20.7,14.8z"/>
    <path id="XMLID_41_" class="st0" d="M26.4,18.3h11.3c1.9,0,3.5-1.6,3.5-3.5v0c0-1.9-1.6-3.5-3.5-3.5H26.4c-1.9,0-3.5,1.6-3.5,3.5v0
        C22.9,16.7,24.5,18.3,26.4,18.3z"/>
    <path id="XMLID_40_" class="st0" d="M7.6,40.8H22c1.9,0,3.5-1.6,3.5-3.5v0c0-1.9-1.6-3.5-3.5-3.5H7.6c-1.9,0-3.5,1.6-3.5,3.5v0
        C4.1,39.2,5.6,40.8,7.6,40.8z"/>
    <path id="XMLID_39_" class="st0" d="M51.1,29.5h6.9H57h0.1c1.9,0,3.5-1.6,3.5-3.5s-1.6-3.5-3.5-3.5H57h0.9h-6.9
        c-1.9,0-3.5,1.6-3.5,3.5S49.1,29.5,51.1,29.5z"/>
    <path id="XMLID_38_" class="st0" d="M70.8,40.8h14.1c1.9,0,3.5-1.6,3.5-3.5c0-1.9-1.6-3.5-3.5-3.5H70.8c-1.9,0-3.5,1.6-3.5,3.5
        C67.3,39.2,68.9,40.8,70.8,40.8z"/>
    <path id="XMLID_37_" class="st0" d="M30.8,29.5h0.4h4.7h5.7c1.9,0,3.6-1.4,3.7-3.3c0.1-2-1.5-3.7-3.5-3.7h-0.2h-5.7h-4.7h-0.3
        c-1.7,0-3.3,1.1-3.6,2.8C26.9,27.6,28.6,29.5,30.8,29.5z"/>
</g>
</svg>
