<?xml version="1.0" standalone="no"?>
<!DOCTYPE svg PUBLIC "-//W3C//DTD SVG 1.1//EN" "http://www.w3.org/Graphics/SVG/1.1/DTD/svg11.dtd" >
<svg xmlns="http://www.w3.org/2000/svg" width="100%" height="100%">
<metadata>
Created by FontXChange 20110222 at Tue Jan 30 16:54:00 2018
 By Marlon Assunção
Copyright (c) 2011 by Ryoichi Tsunekawa. All rights reserved.
</metadata>
<defs>
<font id="DharmaGothicE-Regular" horiz-adv-x="330" >
  <font-face 
    font-family="DharmaGothicE"
    font-weight="400"
    font-stretch="normal"
    units-per-em="1000"
    panose-1="4 5 5 3 2 11 2 2 2 2"
    ascent="800"
    descent="-200"
    x-height="552"
    cap-height="700"
    bbox="-23 -194 1000 844"
    underline-thickness="32"
    underline-position="-48"
    stemh="82"
    stemv="80"
    unicode-range="U+0020-FB02"
  />
<missing-glyph horiz-adv-x="367" 
d="M327 0h-287v700h287v-700zM66 26h236v648h-236v-648z" />
    <glyph glyph-name="fi" unicode="fi" horiz-adv-x="339" 
d="M6 485v67h39v33c0 89 22 115 104 115h33v-63h-16c-32 0 -42 -6 -42 -52v-33h58v-67h-57v-485h-80v485h-39zM303 552v-552h-80v552h80zM223 619v81h80v-81h-80z" />
    <glyph glyph-name="fl" unicode="fl" horiz-adv-x="339" 
d="M6 485v67h39v33c0 89 22 115 104 115h33v-63h-16c-32 0 -42 -6 -42 -52v-33h58v-67h-57v-485h-80v485h-39zM303 0h-80v700h80v-700z" />
    <glyph glyph-name=".notdef" horiz-adv-x="367" 
d="M327 0h-287v700h287v-700zM66 26h236v648h-236v-648z" />
    <glyph glyph-name="space" unicode=" " horiz-adv-x="138" 
 />
    <glyph glyph-name="exclam" unicode="!" horiz-adv-x="160" 
d="M124 480l-16 -321h-56l-16 321v220h88v-220zM34 0v112h92v-112h-92z" />
    <glyph glyph-name="quotedbl" unicode="&#x22;" horiz-adv-x="253" 
d="M233 629l-12 -138h-60l-11 138v71h83v-71zM104 629l-12 -138h-60l-11 138v71h83v-71z" />
    <glyph glyph-name="numbersign" unicode="#" 
d="M297 700l-8 -121h35l-6 -74h-35l-20 -286h36l-5 -74h-36l-10 -145h-71l10 145h-77l-10 -145h-71l10 145h-33l4 74h34l20 286h-35l6 74h35l8 121h71l-8 -121h77l8 121h71zM135 505l-20 -286h77l21 286h-78z" />
    <glyph glyph-name="dollar" unicode="$" 
d="M198 -25h-67v45c-76 2 -96 31 -96 120v122h77v-107c0 -42 3 -57 42 -57h17c39 0 43 15 43 57v42c0 44 -8 65 -79 124c-87 73 -100 106 -100 175v64c0 88 20 117 96 120v45h67v-45c77 -3 97 -31 97 -120v-109h-77v94c0 42 -3 57 -42 57h-17c-39 0 -43 -15 -43 -57v-42
c0 -45 8 -65 78 -124c88 -74 101 -106 101 -175v-64c0 -89 -20 -118 -97 -120v-45z" />
    <glyph glyph-name="percent" unicode="%" horiz-adv-x="554" 
d="M158 0l210 700h28l-209 -700h-29zM330 84v267c0 69 19 89 82 89h36c61 0 81 -20 81 -89v-267c0 -69 -20 -89 -81 -89h-36c-63 0 -82 20 -82 89zM392 338v-241c0 -33 2 -44 32 -44h11c30 0 32 11 32 44v241c0 33 -2 44 -32 44h-11c-30 0 -32 -11 -32 -44zM25 349v267
c0 69 19 89 82 89h36c61 0 81 -20 81 -89v-267c0 -69 -20 -89 -81 -89h-36c-63 0 -82 20 -82 89zM87 603v-241c0 -33 2 -44 32 -44h11c30 0 32 11 32 44v241c0 33 -2 44 -32 44h-11c-30 0 -32 -11 -32 -44z" />
    <glyph glyph-name="ampersand" unicode="&#x26;" horiz-adv-x="357" 
d="M234 0c-7 16 -10 41 -11 70c-9 -47 -33 -75 -89 -75h-23c-65 0 -83 27 -83 102v150c0 77 14 112 63 123c-49 13 -63 48 -63 125v75c0 101 24 130 117 130h92v-82h-76c-42 0 -45 -15 -45 -62v-83c0 -46 3 -62 45 -62h58v92h80v-92h53v-81h-53v-204c0 -47 3 -89 16 -126
h-81zM116 269v-136c0 -41 3 -57 39 -57h17c34 0 47 26 47 71v183h-58c-42 0 -45 -15 -45 -61z" />
    <glyph glyph-name="quotesingle" unicode="'" horiz-adv-x="165" 
d="M124 629l-12 -138h-60l-11 138v71h83v-71z" />
    <glyph glyph-name="parenleft" unicode="(" horiz-adv-x="206" 
d="M34 46v548c0 90 22 116 104 116h47v-68h-32c-36 0 -40 -14 -40 -56v-533c0 -41 4 -55 40 -55h32v-68h-47c-82 0 -104 26 -104 116z" />
    <glyph glyph-name="parenright" unicode=")" horiz-adv-x="206" 
d="M172 594v-548c0 -90 -22 -116 -104 -116h-47v68h32c36 0 40 14 40 55v533c0 42 -4 56 -40 56h-32v68h47c82 0 104 -26 104 -116z" />
    <glyph glyph-name="asterisk" unicode="*" horiz-adv-x="307" 
d="M6 505l112 45l-112 45l35 60l93 -75l-16 120h70l-18 -120l95 75l36 -60l-114 -45l114 -45l-36 -61l-94 74l17 -119h-70l16 119l-93 -74z" />
    <glyph glyph-name="plus" unicode="+" 
d="M130 495h69v-109h99v-72h-99v-110h-69v110h-98v72h98v109z" />
    <glyph glyph-name="comma" unicode="," horiz-adv-x="165" 
d="M36 0v120h92v-120l-78 -85l-7 5l51 80h-58z" />
    <glyph glyph-name="hyphen" unicode="-" horiz-adv-x="214" 
d="M194 299v-61h-174v61h174z" />
    <glyph glyph-name="period" unicode="." horiz-adv-x="165" 
d="M36 0v120h92v-120h-92z" />
    <glyph glyph-name="slash" unicode="/" 
d="M8 -20l235 740h79l-236 -740h-78z" />
    <glyph glyph-name="zero" unicode="0" 
d="M298 585v-470c0 -93 -23 -120 -108 -120h-50c-85 0 -108 27 -108 120v470c0 93 23 120 108 120h50c85 0 108 -27 108 -120zM114 571v-442c0 -42 4 -57 42 -57h18c38 0 42 15 42 57v442c0 42 -4 57 -42 57h-18c-38 0 -42 -15 -42 -57z" />
    <glyph glyph-name="one" unicode="1" horiz-adv-x="162" 
d="M124 0h-82v658c19 0 43 23 43 42h39v-700z" />
    <glyph glyph-name="two" unicode="2" horiz-adv-x="319" 
d="M214 556v15c0 42 -4 57 -42 57h-18c-38 0 -42 -15 -42 -57v-120h-77v134c0 93 22 120 108 120h45c85 0 108 -27 108 -120v-34c0 -103 -21 -143 -104 -249c-65 -84 -84 -118 -84 -205v-20h189v-77h-271v103c0 103 21 143 105 249c64 83 83 118 83 204z" />
    <glyph glyph-name="three" unicode="3" horiz-adv-x="318" 
d="M105 571v-93h-77v107c0 93 22 120 108 120h45c85 0 108 -27 108 -120v-102c0 -70 -13 -103 -54 -115c41 -13 54 -45 54 -114v-139c0 -93 -23 -120 -108 -120h-45c-86 0 -108 27 -108 120v143h77v-129c0 -42 4 -57 42 -57h18c39 0 42 15 42 57v144c0 42 -3 57 -42 57h-95
v77h95c39 0 42 15 42 57v107c0 42 -3 57 -42 57h-18c-39 0 -42 -15 -42 -57z" />
    <glyph glyph-name="four" unicode="4" horiz-adv-x="310" 
d="M166 699h88v-503h54v-70h-54v-126h-81v126h-167v64zM77 196h96v151c0 75 2 146 6 226c-17 -79 -33 -146 -57 -226z" />
    <glyph glyph-name="five" unicode="5" horiz-adv-x="320" 
d="M109 385v-65h-77v380h248v-77h-171v-149c11 35 35 56 83 56h21c63 0 80 -26 80 -100v-315c0 -93 -24 -120 -109 -120h-44c-85 0 -108 27 -108 120v143h77v-129c0 -42 4 -57 42 -57h18c38 0 42 15 42 57v270c0 40 -3 56 -39 56h-16c-34 0 -47 -26 -47 -70z" />
    <glyph glyph-name="six" unicode="6" horiz-adv-x="326" 
d="M298 372v-257c0 -93 -23 -120 -108 -120h-50c-86 0 -108 27 -108 120v470c0 93 23 120 108 120h44c86 0 109 -27 109 -120v-77h-77v63c0 42 -4 57 -42 57h-18c-38 0 -42 -15 -42 -57v-155c11 35 35 56 82 56h22c64 0 80 -26 80 -100zM177 396h-16c-35 0 -47 -25 -47 -69
v-198c0 -42 4 -57 42 -57h18c38 0 42 15 42 57v212c0 40 -3 55 -39 55z" />
    <glyph glyph-name="seven" unicode="7" horiz-adv-x="279" 
d="M140 0h-91l149 623h-193v77h269v-69z" />
    <glyph glyph-name="eight" unicode="8" horiz-adv-x="322" 
d="M185 -5h-48c-86 0 -109 27 -109 120v145c0 69 13 101 54 114c-42 12 -54 45 -54 114v97c0 93 23 120 109 120h48c86 0 109 -27 109 -120v-97c0 -69 -13 -102 -54 -114c41 -13 54 -45 54 -114v-145c0 -93 -23 -120 -109 -120zM212 129v150c0 42 -4 57 -42 57h-18
c-38 0 -42 -15 -42 -57v-150c0 -42 4 -57 42 -57h18c38 0 42 15 42 57zM212 470v101c0 42 -4 57 -42 57h-18c-38 0 -42 -15 -42 -57v-101c0 -42 4 -57 42 -57h18c38 0 42 15 42 57z" />
    <glyph glyph-name="nine" unicode="9" horiz-adv-x="326" 
d="M170 72c38 0 42 15 42 57v165c-12 -35 -35 -56 -82 -56h-22c-64 0 -80 26 -80 100v247c0 93 23 120 108 120h50c86 0 108 -27 108 -120v-470c0 -93 -23 -120 -108 -120h-44c-86 0 -109 27 -109 120v87h77v-73c0 -42 4 -57 42 -57h18zM149 314h16c35 0 47 25 47 69v188
c0 42 -4 57 -42 57h-18c-38 0 -42 -15 -42 -57v-202c0 -40 3 -55 39 -55z" />
    <glyph glyph-name="colon" unicode=":" horiz-adv-x="165" 
d="M36 390v120h92v-120h-92zM36 0v120h92v-120h-92z" />
    <glyph glyph-name="semicolon" unicode=";" horiz-adv-x="165" 
d="M36 0v120h92v-120l-78 -85l-7 5l51 80h-58zM36 390v120h92v-120h-92z" />
    <glyph glyph-name="less" unicode="&#x3c;" 
d="M128 350l170 -139h-98l-168 139l168 138h98z" />
    <glyph glyph-name="equal" unicode="=" 
d="M298 469v-72h-266v72h266zM298 303v-72h-266v72h266z" />
    <glyph glyph-name="greater" unicode="&#x3e;" 
d="M32 211l170 139l-170 138h98l168 -138l-168 -139h-98z" />
    <glyph glyph-name="question" unicode="?" horiz-adv-x="304" 
d="M90 0v137h90v-137h-90zM201 549v22c0 42 -4 57 -43 57h-17c-39 0 -42 -15 -42 -57v-120h-77v134c0 93 22 120 108 120h44c86 0 109 -27 109 -121v-40c0 -188 -112 -169 -112 -321v-33h-71v27c0 187 101 163 101 332z" />
    <glyph glyph-name="at" unicode="@" horiz-adv-x="517" 
d="M360 508l-33 -375c-1 -14 6 -28 24 -28h4c40 0 81 39 81 196v100c0 150 -43 217 -166 217h-4c-115 0 -179 -49 -179 -231v-199c0 -183 98 -219 213 -219c43 0 71 3 95 12v-48c-25 -7 -52 -11 -96 -11c-152 0 -268 68 -268 272v193c0 201 87 280 235 280h4
c156 0 215 -93 215 -266v-109c0 -188 -67 -225 -134 -225h-6c-35 0 -53 15 -60 36c-10 -27 -36 -36 -61 -36h-16c-39 0 -56 20 -51 64l27 321c4 43 21 61 57 61h15c30 0 46 -13 51 -33l12 28h41zM272 140l26 303c1 20 -10 30 -26 30h-10c-17 0 -21 -11 -22 -24l-27 -319
c-1 -14 3 -23 17 -23h6c20 0 33 5 36 33z" />
    <glyph glyph-name="A" unicode="A" horiz-adv-x="333" 
d="M233 0l-15 107h-113l-15 -107h-79l95 700h121l94 -700h-88zM127 274l-11 -85h91l-11 85c-18 140 -28 259 -35 353c-7 -94 -16 -213 -34 -353z" />
    <glyph glyph-name="B" unicode="B" horiz-adv-x="356" 
d="M38 0v700h170c93 0 117 -29 117 -130v-80c0 -74 -13 -109 -56 -122c43 -14 56 -48 56 -121v-117c0 -101 -24 -130 -117 -130h-170zM192 327h-66v-245h66c42 0 45 15 45 62v121c0 47 -4 62 -45 62zM237 471v85c0 47 -3 62 -45 62h-66v-209h66c41 0 45 15 45 62z" />
    <glyph glyph-name="C" unicode="C" horiz-adv-x="348" 
d="M122 561v-422c0 -47 4 -62 45 -62h21c41 0 45 15 45 62v147h83v-161c0 -101 -24 -130 -117 -130h-48c-92 0 -117 29 -117 130v450c0 101 25 130 117 130h48c93 0 117 -29 117 -130v-131h-83v117c0 47 -4 62 -45 62h-21c-41 0 -45 -15 -45 -62z" />
    <glyph glyph-name="D" unicode="D" horiz-adv-x="361" 
d="M40 0v700h169c93 0 118 -29 118 -130v-440c0 -101 -25 -130 -118 -130h-169zM128 82h66c41 0 45 15 45 62v412c0 47 -4 62 -45 62h-66v-536z" />
    <glyph glyph-name="E" unicode="E" horiz-adv-x="280" 
d="M128 618v-211h109v-82h-109v-243h131v-82h-219v700h219v-82h-131z" />
    <glyph glyph-name="F" unicode="F" horiz-adv-x="260" 
d="M128 618v-221h104v-82h-104v-315h-88v700h214v-82h-126z" />
    <glyph glyph-name="G" unicode="G" horiz-adv-x="349" 
d="M178 306v82h138v-263c0 -101 -24 -130 -117 -130h-48c-92 0 -117 29 -117 130v450c0 101 25 130 117 130h48c93 0 117 -29 117 -130v-119h-83v105c0 47 -4 62 -45 62h-21c-41 0 -45 -15 -45 -62v-422c0 -47 4 -62 45 -62h21c41 0 45 15 45 62v167h-55z" />
    <glyph glyph-name="H" unicode="H" horiz-adv-x="367" 
d="M128 0h-88v700h88v-293h111v293h88v-700h-88v325h-111v-325z" />
    <glyph glyph-name="I" unicode="I" horiz-adv-x="168" 
d="M40 0v700h88v-700h-88z" />
    <glyph glyph-name="J" unicode="J" horiz-adv-x="334" 
d="M97 286v-147c0 -47 4 -62 45 -62h21c41 0 45 15 45 62v561h88v-575c0 -101 -24 -130 -117 -130h-48c-93 0 -117 29 -117 130v161h83z" />
    <glyph glyph-name="K" unicode="K" horiz-adv-x="357" 
d="M40 0v700h88v-313c7 20 12 33 19 49l115 264h87l-148 -329l153 -371h-92l-115 280c-7 17 -13 35 -19 56v-336h-88z" />
    <glyph glyph-name="L" unicode="L" horiz-adv-x="249" 
d="M40 0v700h88v-618h115v-82h-203z" />
    <glyph glyph-name="M" unicode="M" horiz-adv-x="473" 
d="M334 423l-65 -423h-73l-65 423c-6 36 -13 89 -18 132c1 -42 2 -96 2 -132v-423h-76v700h135l54 -396c4 -32 5 -69 8 -104c2 35 4 72 8 104l53 396h137v-700h-86v423c0 36 1 86 2 126c-5 -42 -11 -93 -16 -126z" />
    <glyph glyph-name="N" unicode="N" horiz-adv-x="367" 
d="M229 0l-94 405c-10 44 -16 85 -22 126c1 -41 2 -82 2 -128v-403h-76v700h111l83 -374c10 -44 17 -85 23 -126c-1 41 -4 82 -4 127v373h77v-700h-100z" />
    <glyph glyph-name="O" unicode="O" horiz-adv-x="355" 
d="M34 125v450c0 101 25 130 117 130h53c92 0 117 -29 117 -130v-450c0 -101 -25 -130 -117 -130h-53c-92 0 -117 29 -117 130zM233 139v422c0 47 -4 62 -45 62h-21c-41 0 -45 -15 -45 -62v-422c0 -47 4 -62 45 -62h21c41 0 45 15 45 62z" />
    <glyph glyph-name="P" unicode="P" horiz-adv-x="338" 
d="M40 0v700h164c93 0 117 -29 117 -130v-176c0 -101 -24 -130 -117 -130h-76v-264h-88zM128 346h61c40 0 44 15 44 62v148c0 47 -4 62 -44 62h-61v-272z" />
    <glyph glyph-name="Q" unicode="Q" horiz-adv-x="355" 
d="M34 125v450c0 101 25 130 117 130h53c92 0 117 -29 117 -130v-450c0 -91 -21 -124 -91 -129v-24c0 -40 10 -52 41 -52h21v-47h-39c-71 0 -102 11 -102 109v13c-92 0 -117 29 -117 130zM233 139v422c0 47 -4 62 -45 62h-21c-41 0 -45 -15 -45 -62v-422c0 -47 4 -62 45 -62
h21c41 0 45 15 45 62z" />
    <glyph glyph-name="R" unicode="R" horiz-adv-x="359" 
d="M325 231v-108c0 -45 4 -88 15 -123h-92c-10 23 -11 65 -11 109v134c0 48 -8 70 -52 70h-59v-313h-88v700h170c93 0 117 -29 117 -130v-95c0 -73 -13 -108 -56 -121c43 -14 56 -49 56 -123zM237 457v99c0 47 -3 62 -45 62h-66v-223h66c41 0 45 15 45 62z" />
    <glyph glyph-name="S" unicode="S" 
d="M215 139v49c0 63 -15 82 -85 145c-81 73 -102 104 -102 196v46c0 101 24 130 117 130h41c93 0 117 -29 117 -130v-109h-83v95c0 47 -3 62 -45 62h-15c-41 0 -45 -15 -45 -60v-33c0 -63 15 -83 85 -146c81 -73 103 -103 103 -195v-64c0 -101 -25 -130 -117 -130h-42
c-92 0 -116 29 -116 130v129h82v-115c0 -47 3 -62 45 -62h15c41 0 45 15 45 62z" />
    <glyph glyph-name="T" unicode="T" horiz-adv-x="249" 
d="M169 0h-88v618h-77v82h241v-82h-76v-618z" />
    <glyph glyph-name="U" unicode="U" horiz-adv-x="356" 
d="M126 700v-561c0 -47 3 -62 45 -62h21c41 0 45 15 45 62v561h82v-575c0 -101 -23 -130 -116 -130h-48c-93 0 -117 29 -117 130v575h88z" />
    <glyph glyph-name="V" unicode="V" horiz-adv-x="329" 
d="M101 700l41 -307c13 -97 22 -203 28 -273c6 71 16 176 29 273l40 307h79l-94 -700h-117l-95 700h89z" />
    <glyph glyph-name="W" unicode="W" horiz-adv-x="507" 
d="M245 317l-34 -317h-114l-85 700h89l37 -332c10 -87 19 -168 21 -226c2 58 9 139 19 226l36 332h90l36 -332c10 -87 17 -168 19 -226c2 58 11 139 21 226l37 332h79l-85 -700h-108l-35 317c-7 59 -9 121 -11 185c-3 -64 -6 -126 -12 -185z" />
    <glyph glyph-name="X" unicode="X" horiz-adv-x="333" 
d="M205 573l32 127h78l-85 -332l92 -368h-90l-37 155c-12 51 -24 101 -34 161c-10 -60 -21 -111 -33 -161l-38 -155h-79l91 368l-86 332h88l32 -127c12 -49 27 -111 35 -156c8 45 22 108 34 156z" />
    <glyph glyph-name="Y" unicode="Y" horiz-adv-x="317" 
d="M203 0h-88v236l-110 464h89l37 -165c11 -49 27 -127 33 -192c7 65 22 143 33 192l37 165h78l-109 -464v-236z" />
    <glyph glyph-name="Z" unicode="Z" horiz-adv-x="278" 
d="M25 618v82h235v-76l-151 -542h151v-82h-243v76l151 542h-143z" />
    <glyph glyph-name="bracketleft" unicode="[" horiz-adv-x="211" 
d="M40 710h151v-68h-72v-644h72v-68h-151v780z" />
    <glyph glyph-name="backslash" unicode="\" 
d="M87 720l235 -740h-78l-236 740h79z" />
    <glyph glyph-name="bracketright" unicode="]" horiz-adv-x="211" 
d="M20 710h151v-780h-151v68h72v644h-72v68z" />
    <glyph glyph-name="asciicircum" unicode="^" 
d="M136 700h57l105 -264h-68l-65 169l-65 -169h-68z" />
    <glyph glyph-name="underscore" unicode="_" horiz-adv-x="500" 
d="M500 -14v-52h-500v52h500z" />
    <glyph glyph-name="grave" unicode="`" horiz-adv-x="165" 
d="M85 695l50 -115h-50l-73 115h73z" />
    <glyph glyph-name="a" unicode="a" horiz-adv-x="320" 
d="M28 180c0 71 14 106 87 136c83 34 91 39 91 104v9c0 41 -4 55 -40 55h-17c-35 0 -40 -14 -40 -55v-63h-74v75c0 90 21 116 103 116h44c82 0 104 -26 104 -116v-348c0 -32 0 -60 7 -93h-75c-5 11 -8 29 -9 56c-10 -38 -34 -61 -82 -61h-20c-61 0 -79 25 -79 95v90z
M206 134v153c-12 -7 -26 -14 -43 -21c-49 -21 -55 -39 -55 -88v-57c0 -39 4 -53 38 -53h15c33 0 45 24 45 66z" />
    <glyph glyph-name="b" unicode="b" horiz-adv-x="325" 
d="M214 431c0 39 -4 53 -38 53h-15c-33 0 -45 -24 -45 -66v-284c0 -42 12 -66 45 -66h15c34 0 38 14 38 53v310zM116 700v-194c11 32 35 51 79 51h20c61 0 79 -25 79 -95v-372c0 -70 -18 -95 -79 -95h-20c-49 0 -73 23 -83 61l-8 -56h-68v700h80z" />
    <glyph glyph-name="c" unicode="c" horiz-adv-x="314" 
d="M209 123v101h75v-113c0 -90 -22 -116 -104 -116h-44c-83 0 -105 26 -105 116v330c0 90 22 116 105 116h44c82 0 104 -26 104 -116v-103h-75v91c0 41 -4 55 -40 55h-18c-36 0 -40 -14 -40 -55v-306c0 -41 4 -55 40 -55h18c36 0 40 14 40 55z" />
    <glyph glyph-name="d" unicode="d" horiz-adv-x="325" 
d="M209 134v284c0 42 -11 66 -44 66h-16c-34 0 -37 -14 -37 -53v-310c0 -39 3 -53 37 -53h16c33 0 44 24 44 66zM289 93c0 -32 1 -60 8 -93h-76c-5 11 -7 30 -8 59c-9 -40 -33 -64 -83 -64h-20c-61 0 -78 25 -78 95v372c0 70 17 95 78 95h20c44 0 67 -19 79 -51v194h80v-607
z" />
    <glyph glyph-name="e" unicode="e" horiz-adv-x="315" 
d="M209 123v65h75v-77c0 -90 -22 -116 -104 -116h-44c-83 0 -105 26 -105 116v330c0 90 22 116 105 116h44c82 0 104 -26 104 -116v-189h-173v-129c0 -41 4 -55 40 -55h18c36 0 40 14 40 55zM209 322v107c0 41 -4 55 -40 55h-18c-36 0 -40 -14 -40 -55v-107h98z" />
    <glyph glyph-name="f" unicode="f" horiz-adv-x="187" 
d="M6 485v67h39v33c0 89 22 115 104 115h33v-63h-16c-32 0 -42 -6 -42 -52v-33h58v-67h-57v-485h-80v485h-39z" />
    <glyph glyph-name="g" unicode="g" horiz-adv-x="316" 
d="M106 436v-171c0 -41 4 -56 40 -56h18c36 0 40 15 40 56v171c0 41 -4 56 -40 56h-18c-36 0 -40 -15 -40 -56zM244 -38v6c0 31 -15 36 -49 36h-66c-29 0 -42 -10 -42 -38v-6c0 -35 15 -40 45 -40h63c34 0 49 5 49 42zM93 109v-2c0 -24 14 -30 41 -30h62
c68 0 114 -11 114 -93v-16c0 -79 -33 -100 -113 -100h-86c-51 0 -83 21 -83 77v18c0 31 12 49 35 58c-19 14 -25 36 -25 64v8c0 33 11 51 31 61c-30 15 -40 47 -40 106v181c0 90 22 116 104 116h37c50 0 77 -10 91 -38c3 21 14 38 37 38h13v-71h-13c-12 0 -17 -9 -17 -26
v-200c0 -89 -22 -116 -104 -116h-48c-26 0 -36 -9 -36 -35z" />
    <glyph glyph-name="h" unicode="h" horiz-adv-x="328" 
d="M294 0h-80v431c0 39 -4 53 -38 53h-15c-33 0 -45 -24 -45 -66v-418h-80v700h80v-194c11 32 35 51 79 51h20c61 0 79 -25 79 -95v-462z" />
    <glyph glyph-name="i" unicode="i" horiz-adv-x="152" 
d="M116 552v-552h-80v552h80zM36 619v81h80v-81h-80z" />
    <glyph glyph-name="j" unicode="j" horiz-adv-x="152" 
d="M36 552h80v-563c0 -90 -20 -116 -103 -116h-23v61h6c32 0 40 5 40 51v567zM36 619v81h80v-81h-80z" />
    <glyph glyph-name="k" unicode="k" horiz-adv-x="317" 
d="M116 260v-260h-80v700h80v-392c10 23 20 45 30 68l81 176h78l-125 -261l131 -291h-83l-87 195c-12 27 -19 44 -25 65z" />
    <glyph glyph-name="l" unicode="l" horiz-adv-x="152" 
d="M116 0h-80v700h80v-700z" />
    <glyph glyph-name="m" unicode="m" horiz-adv-x="495" 
d="M116 0h-80v552h75v-63c9 42 32 68 84 68h15c47 0 68 -16 75 -55c11 34 34 55 81 55h16c61 0 78 -25 78 -95v-462h-79v431c0 39 -4 53 -38 53h-10c-33 0 -45 -24 -45 -66v-418h-80v431c0 39 -3 53 -37 53h-10c-33 0 -45 -24 -45 -66v-418z" />
    <glyph glyph-name="n" unicode="n" horiz-adv-x="328" 
d="M294 0h-80v431c0 39 -4 53 -38 53h-15c-33 0 -45 -24 -45 -66v-418h-80v552h75v-63c9 42 32 68 84 68h20c61 0 79 -25 79 -95v-462z" />
    <glyph glyph-name="o" unicode="o" horiz-adv-x="320" 
d="M289 441v-330c0 -90 -22 -116 -104 -116h-49c-83 0 -105 26 -105 116v330c0 90 22 116 105 116h49c82 0 104 -26 104 -116zM111 429v-306c0 -41 4 -55 40 -55h18c36 0 40 14 40 55v306c0 41 -4 55 -40 55h-18c-36 0 -40 -14 -40 -55z" />
    <glyph glyph-name="p" unicode="p" horiz-adv-x="325" 
d="M214 431c0 39 -4 53 -38 53h-15c-33 0 -45 -24 -45 -66v-284c0 -42 12 -66 45 -66h15c34 0 38 14 38 53v310zM116 -127h-80v679h75v-63c9 42 32 68 84 68h20c61 0 79 -25 79 -95v-372c0 -70 -18 -95 -79 -95h-20c-44 0 -68 18 -79 50v-172z" />
    <glyph glyph-name="q" unicode="q" horiz-adv-x="325" 
d="M209 134v284c0 42 -11 66 -44 66h-16c-34 0 -37 -14 -37 -53v-310c0 -39 3 -53 37 -53h16c33 0 44 24 44 66zM289 552v-679h-80v172c-12 -32 -35 -50 -79 -50h-20c-61 0 -78 25 -78 95v372c0 70 17 95 78 95h20c49 0 72 -23 82 -62l9 57h68z" />
    <glyph glyph-name="r" unicode="r" horiz-adv-x="197" 
d="M116 0h-80v552h75v-74c9 49 31 79 73 79h7v-85h-8c-48 0 -67 -30 -67 -104v-368z" />
    <glyph glyph-name="s" unicode="s" horiz-adv-x="308" 
d="M200 123v25c0 47 -13 61 -78 106c-77 53 -94 84 -94 155v32c0 90 21 116 104 116h44c82 0 104 -26 104 -116v-75h-75v63c0 41 -4 55 -40 55h-18c-35 0 -39 -14 -39 -55v-15c0 -47 13 -61 78 -106c77 -53 94 -84 94 -155v-42c0 -90 -22 -116 -104 -116h-44
c-83 0 -104 26 -104 116v85h75v-73c0 -41 3 -55 40 -55h17c37 0 40 14 40 55z" />
    <glyph glyph-name="t" unicode="t" horiz-adv-x="183" 
d="M6 485v67h39v120h80v-120h53v-67h-53v-359c0 -47 3 -89 17 -126h-85c-10 23 -12 66 -12 112v373h-39z" />
    <glyph glyph-name="u" unicode="u" horiz-adv-x="328" 
d="M292 93c0 -32 0 -60 8 -93h-76c-5 11 -7 30 -8 59c-9 -40 -33 -64 -83 -64h-20c-61 0 -78 25 -78 95v462h79v-431c0 -39 4 -53 38 -53h15c33 0 45 24 45 66v418h80v-459z" />
    <glyph glyph-name="v" unicode="v" horiz-adv-x="296" 
d="M88 552l34 -209c14 -86 26 -179 30 -257c5 78 18 171 32 257l34 209h72l-91 -552h-103l-90 552h82z" />
    <glyph glyph-name="w" unicode="w" horiz-adv-x="467" 
d="M215 185l-23 -185h-110l-76 552h82l27 -198c14 -100 21 -193 25 -263c5 70 15 163 29 262l29 199h82l29 -199c14 -99 23 -192 27 -262c5 70 11 163 25 263l27 198h72l-75 -552h-107l-23 185c-7 59 -17 138 -21 193c-3 -55 -12 -134 -19 -193z" />
    <glyph glyph-name="x" unicode="x" horiz-adv-x="291" 
d="M198 520l9 32h73l-76 -263l80 -289h-83l-13 51c-15 57 -40 145 -48 199c-9 -55 -31 -142 -46 -199l-13 -51h-73l78 289l-75 263h82l9 -32c17 -61 41 -147 49 -193c8 46 30 132 47 193z" />
    <glyph glyph-name="y" unicode="y" horiz-adv-x="296" 
d="M189 -49c-8 -50 -35 -78 -93 -78h-73v61h41c23 0 32 10 33 29l2 31l-93 558h82l34 -209c14 -86 26 -188 30 -257c5 69 17 172 31 257l35 209h72z" />
    <glyph glyph-name="z" unicode="z" horiz-adv-x="263" 
d="M29 485v67h217v-61l-142 -424h142v-67h-228v61l142 424h-131z" />
    <glyph glyph-name="braceleft" unicode="{" horiz-adv-x="226" 
d="M18 286h-12v67h12c31 0 39 9 39 52v189c0 90 21 116 104 116h46v-68h-32c-35 0 -39 -14 -39 -56v-156c0 -68 -13 -99 -54 -111c41 -11 54 -43 54 -110v-156c0 -41 4 -55 39 -55h32v-68h-46c-83 0 -104 26 -104 116v188c0 42 -8 52 -39 52z" />
    <glyph glyph-name="bar" unicode="|" 
d="M202 700v-827h-75v827h75z" />
    <glyph glyph-name="braceright" unicode="}" horiz-adv-x="226" 
d="M220 286h-12c-31 0 -39 -10 -39 -52v-188c0 -90 -21 -116 -104 -116h-46v68h32c35 0 39 14 39 55v156c0 67 13 99 54 110c-41 12 -54 43 -54 111v156c0 42 -4 56 -39 56h-32v68h46c83 0 104 -26 104 -116v-189c0 -43 8 -52 39 -52h12v-67z" />
    <glyph glyph-name="asciitilde" unicode="~" 
d="M298 411v-79c-23 -32 -46 -43 -69 -43c-46 0 -91 43 -134 43c-22 0 -43 -11 -63 -44v78c23 32 46 43 69 43c45 0 91 -43 133 -43c22 0 43 11 64 45z" />
    <glyph glyph-name="uni00A0" unicode="&#xa0;" horiz-adv-x="138" 
 />
    <glyph glyph-name="exclamdown" unicode="&#xa1;" horiz-adv-x="160" 
d="M36 93l16 321h56l16 -321v-220h-88v220zM126 573v-112h-92v112h92z" />
    <glyph glyph-name="cent" unicode="&#xa2;" 
d="M216 197v101h75v-113c0 -87 -21 -114 -95 -116v-69h-64v69c-74 2 -94 29 -94 116v330c0 86 20 114 94 116v69h64v-69c74 -2 95 -30 95 -116v-103h-75v91c0 41 -4 55 -40 55h-18c-36 0 -40 -14 -40 -55v-306c0 -41 4 -55 40 -55h18c36 0 40 14 40 55z" />
    <glyph glyph-name="sterling" unicode="&#xa3;" 
d="M280 219h-101c-4 -52 -22 -100 -66 -142h177v-77h-263v70c52 46 73 88 77 149h-67v58h64c-15 64 -66 134 -66 266v42c0 93 23 120 108 120h45c86 0 108 -27 108 -120v-170h-77v156c0 42 -4 57 -42 57h-18c-38 0 -42 -15 -42 -57v-29c0 -131 47 -196 60 -265h103v-58z" />
    <glyph glyph-name="currency" unicode="&#xa4;" 
d="M56 349c0 22 7 44 19 61l-50 45l34 34l44 -50c18 12 38 20 61 20s45 -8 62 -21l46 51l33 -34l-51 -45c13 -17 20 -39 20 -61s-7 -43 -19 -61l50 -44l-33 -33l-45 49c-18 -13 -40 -20 -63 -20s-44 7 -61 20l-44 -49l-34 33l50 44c-13 18 -19 39 -19 61zM98 349
c0 -37 30 -67 66 -67c38 0 68 30 68 67c0 38 -30 69 -68 69c-36 0 -66 -31 -66 -69z" />
    <glyph glyph-name="yen" unicode="&#xa5;" 
d="M201 535l34 165h73l-98 -443h91v-32h-95v-66h95v-32h-95v-127h-82v127h-96v32h96v66h-96v32h91l-97 443h82l35 -165c10 -49 25 -127 31 -192c6 65 21 143 31 192z" />
    <glyph glyph-name="brokenbar" unicode="&#xa6;" 
d="M202 700v-378h-75v378h75zM202 251v-378h-75v378h75z" />
    <glyph glyph-name="section" unicode="&#xa7;" horiz-adv-x="315" 
d="M105 23c0 -42 4 -57 40 -57h18c37 0 41 15 41 57v13c0 40 -10 58 -74 95c-81 47 -102 79 -102 140v86c0 48 14 76 52 88c-45 37 -52 70 -52 116v26c0 91 22 118 107 118h46c84 0 106 -27 106 -118v-58h-78v51c0 42 -3 57 -40 57h-18c-36 0 -40 -15 -40 -57v-13
c0 -40 9 -58 73 -95c81 -47 103 -79 103 -140v-86c0 -48 -15 -77 -54 -89c46 -36 53 -70 53 -115v-26c0 -91 -22 -118 -107 -118h-45c-84 0 -106 27 -106 118v58h77v-51zM207 314c0 38 -7 54 -61 89c-34 0 -38 -16 -38 -46v-68c0 -38 7 -55 60 -89c35 0 39 15 39 46v68z" />
    <glyph glyph-name="dieresis" unicode="&#xa8;" horiz-adv-x="165" 
d="M175 600h-72v76h72v-76zM60 600h-71v76h71v-76z" />
    <glyph glyph-name="copyright" unicode="&#xa9;" horiz-adv-x="527" 
d="M490 480v-260c0 -151 -42 -225 -206 -225h-41c-165 0 -207 74 -207 225v260c0 151 42 225 207 225h41c164 0 206 -74 206 -225zM89 480v-260c0 -132 36 -177 155 -177h39c120 0 154 45 154 177v260c0 132 -34 177 -154 177h-39c-119 0 -155 -45 -155 -177zM227 488v-276
c0 -32 5 -40 31 -40h11c26 0 31 8 31 40v96h53v-106c0 -65 -18 -83 -78 -83h-28c-59 0 -77 18 -77 83v297c0 64 18 82 77 82h28c60 0 78 -18 78 -82v-87h-53v76c0 32 -5 40 -31 40h-11c-26 0 -31 -8 -31 -40z" />
    <glyph glyph-name="ordfeminine" unicode="&#xaa;" horiz-adv-x="246" 
d="M85 609v-39h-56v48c0 68 16 87 78 87h31c63 0 78 -19 78 -87v-239c0 -21 0 -43 7 -66h-55c-4 6 -7 25 -8 47c-7 -32 -25 -52 -63 -52h-13c-45 0 -59 20 -59 73v54c0 49 9 75 64 98c63 27 67 29 67 72v4c0 30 -3 40 -29 40h-13c-26 0 -29 -10 -29 -40zM26 207v57h194v-57
h-194zM156 412v96c-8 -6 -18 -12 -32 -18c-37 -16 -39 -29 -39 -60v-27c0 -30 3 -41 28 -41h11c23 0 32 18 32 50z" />
    <glyph glyph-name="guillemotleft" unicode="&#xab;" horiz-adv-x="314" 
d="M104 76l-98 200l98 200h74l-94 -200l94 -200h-74zM234 76l-94 200l94 200h74l-91 -200l91 -200h-74z" />
    <glyph glyph-name="logicalnot" unicode="&#xac;" 
d="M228 314h-196v72h266v-182h-70v110z" />
    <glyph glyph-name="uni00AD" unicode="&#xad;" horiz-adv-x="214" 
d="M194 299v-61h-174v61h174z" />
    <glyph glyph-name="registered" unicode="&#xae;" horiz-adv-x="527" 
d="M490 480v-260c0 -151 -42 -225 -206 -225h-41c-165 0 -207 74 -207 225v260c0 151 42 225 207 225h41c164 0 206 -74 206 -225zM89 480v-260c0 -132 36 -177 155 -177h39c120 0 154 45 154 177v260c0 132 -34 177 -154 177h-39c-119 0 -155 -45 -155 -177zM358 493v-73
c0 -47 -10 -70 -37 -79c27 -8 37 -31 37 -77v-49c0 -34 3 -65 11 -91h-60c-7 17 -7 49 -7 81v69c0 32 -10 42 -35 42h-37v-192h-57v452h108c59 0 77 -18 77 -83zM271 525h-41v-158h41c25 0 31 9 31 40v78c0 31 -6 40 -31 40z" />
    <glyph glyph-name="macron" unicode="&#xaf;" horiz-adv-x="165" 
d="M176 603h-187v51h187v-51z" />
    <glyph glyph-name="degree" unicode="&#xb0;" horiz-adv-x="242" 
d="M121 689c62 0 103 -42 103 -104s-41 -105 -103 -105s-103 43 -103 105s41 104 103 104zM121 636c-30 0 -49 -21 -49 -51c0 -31 20 -51 49 -51c30 0 48 20 48 51c0 30 -18 51 -48 51z" />
    <glyph glyph-name="plusminus" unicode="&#xb1;" 
d="M298 230v-72h-266v72h266zM130 542h69v-105h99v-73h-99v-105h-69v105h-98v73h98v105z" />
    <glyph glyph-name="twosuperior" unicode="&#xb2;" horiz-adv-x="249" 
d="M88 603v-55h-58v68c0 69 18 89 81 89h33c62 0 81 -20 81 -89v-21c0 -91 -48 -120 -87 -157c-32 -29 -53 -53 -53 -101v-14h137v-58h-199v71c0 71 31 108 71 140c43 37 69 66 69 120v7c0 33 -2 44 -32 44h-11c-30 0 -32 -11 -32 -44z" />
    <glyph glyph-name="threesuperior" unicode="&#xb3;" horiz-adv-x="249" 
d="M160 362v54c0 33 -2 44 -32 44h-62v58h62c30 0 32 11 32 44v41c0 33 -2 44 -32 44h-11c-30 0 -32 -11 -32 -44v-25h-58v38c0 69 18 89 81 89h33c61 0 81 -20 81 -89v-41c0 -54 -12 -78 -46 -86c34 -8 46 -33 46 -86v-54c0 -69 -20 -89 -81 -89h-33c-63 0 -81 20 -81 89
v43h58v-30c0 -32 2 -44 31 -44h12c30 0 32 11 32 44z" />
    <glyph glyph-name="acute" unicode="&#xb4;" horiz-adv-x="165" 
d="M29 580l51 115h73l-73 -115h-51z" />
    <glyph glyph-name="uni00B5" unicode="&#xb5;" horiz-adv-x="328" 
d="M114 -127h-79v679h79v-431c0 -39 4 -53 38 -53h15c33 0 45 24 45 66v418h80v-459c0 -32 0 -60 8 -93h-76c-5 11 -7 30 -8 59c-9 -40 -33 -64 -83 -64h-19v-122z" />
    <glyph glyph-name="paragraph" unicode="&#xb6;" horiz-adv-x="409" 
d="M234 636v-733h-65v299h-35c-93 0 -117 29 -117 130v238c0 101 24 130 117 130h235v-797h-65v733h-70z" />
    <glyph glyph-name="periodcentered" unicode="&#xb7;" horiz-adv-x="165" 
d="M36 290v120h92v-120h-92z" />
    <glyph glyph-name="cedilla" unicode="&#xb8;" horiz-adv-x="165" 
d="M105 -82c0 21 -7 33 -45 31v57h28v-38c49 0 69 -13 69 -46c0 -28 -5 -54 -77 -54c-65 0 -72 19 -72 55h46c-1 -22 1 -32 25 -32c22 0 26 8 26 27z" />
    <glyph glyph-name="onesuperior" unicode="&#xb9;" horiz-adv-x="142" 
d="M102 265h-62v404c16 0 33 17 33 31h29v-435z" />
    <glyph glyph-name="ordmasculine" unicode="&#xba;" horiz-adv-x="244" 
d="M27 207v57h191v-57h-191zM27 396v222c0 68 15 87 77 87h37c62 0 77 -19 77 -87v-222c0 -68 -15 -88 -77 -88h-37c-62 0 -77 20 -77 88zM158 405v204c0 30 -3 40 -29 40h-13c-26 0 -29 -10 -29 -40v-204c0 -31 3 -41 29 -41h13c26 0 29 10 29 41z" />
    <glyph glyph-name="guillemotright" unicode="&#xbb;" horiz-adv-x="314" 
d="M308 276l-98 -200h-74l94 200l-94 200h74zM174 276l-94 -200h-74l91 200l-91 200h74z" />
    <glyph glyph-name="onequarter" unicode="&#xbc;" horiz-adv-x="432" 
d="M67 0l210 700h28l-209 -700h-29zM102 265h-62v404c16 0 33 17 33 31h29v-435zM322 435h64v-302h28v-54h-28v-79h-62v79h-123v50zM256 133h68v41c0 52 1 111 4 169c-17 -58 -36 -117 -56 -169z" />
    <glyph glyph-name="onehalf" unicode="&#xbd;" horiz-adv-x="464" 
d="M67 0l210 700h28l-209 -700h-29zM102 265h-62v404c16 0 33 17 33 31h29v-435zM303 338v-55h-58v68c0 69 18 89 81 89h33c62 0 81 -20 81 -89v-21c0 -91 -48 -120 -87 -157c-32 -29 -53 -53 -53 -101v-14h137v-58h-199v71c0 71 31 108 71 140c43 37 69 66 69 120v7
c0 33 -2 44 -32 44h-11c-30 0 -32 -11 -32 -44z" />
    <glyph glyph-name="threequarters" unicode="&#xbe;" horiz-adv-x="522" 
d="M158 0l210 700h28l-209 -700h-29zM413 435h64v-302h28v-54h-28v-79h-62v79h-123v50zM347 133h68v41c0 52 1 111 4 169c-17 -58 -36 -117 -56 -169zM160 362v54c0 33 -2 44 -32 44h-62v58h62c30 0 32 11 32 44v41c0 33 -2 44 -32 44h-11c-30 0 -32 -11 -32 -44v-25h-58v38
c0 69 18 89 81 89h33c61 0 81 -20 81 -89v-41c0 -54 -12 -78 -46 -86c34 -8 46 -33 46 -86v-54c0 -69 -20 -89 -81 -89h-33c-63 0 -81 20 -81 89v43h58v-30c0 -32 2 -44 31 -44h12c30 0 32 11 32 44z" />
    <glyph glyph-name="questiondown" unicode="&#xbf;" horiz-adv-x="304" 
d="M214 573v-137h-90v137h90zM103 24v-22c0 -42 4 -57 43 -57h17c39 0 42 15 42 57v120h77v-134c0 -93 -22 -120 -108 -120h-44c-86 0 -109 27 -109 121v40c0 188 112 169 112 321v33h71v-27c0 -187 -101 -163 -101 -332z" />
    <glyph glyph-name="Agrave" unicode="&#xc0;" horiz-adv-x="333" 
d="M233 0l-15 107h-113l-15 -107h-79l95 700h121l94 -700h-88zM127 274l-11 -85h91l-11 85c-18 140 -28 259 -35 353c-7 -94 -16 -213 -34 -353zM155 836l50 -115h-50l-73 115h73z" />
    <glyph glyph-name="Aacute" unicode="&#xc1;" horiz-adv-x="333" 
d="M233 0l-15 107h-113l-15 -107h-79l95 700h121l94 -700h-88zM127 274l-11 -85h91l-11 85c-18 140 -28 259 -35 353c-7 -94 -16 -213 -34 -353zM127 721l51 115h73l-73 -115h-51z" />
    <glyph glyph-name="Acircumflex" unicode="&#xc2;" horiz-adv-x="333" 
d="M233 0l-15 107h-113l-15 -107h-79l95 700h121l94 -700h-88zM127 274l-11 -85h91l-11 85c-18 140 -28 259 -35 353c-7 -94 -16 -213 -34 -353zM196 836l65 -115h-51l-43 65l-43 -65h-51l64 115h59z" />
    <glyph glyph-name="Atilde" unicode="&#xc3;" horiz-adv-x="333" 
d="M233 0l-15 107h-113l-15 -107h-79l95 700h121l94 -700h-88zM127 274l-11 -85h91l-11 85c-18 140 -28 259 -35 353c-7 -94 -16 -213 -34 -353zM225 814h39c0 -58 -17 -78 -57 -78s-57 27 -80 27c-14 0 -18 -9 -18 -28h-39c0 58 17 78 57 78s57 -27 80 -27
c14 0 18 10 18 28z" />
    <glyph glyph-name="Adieresis" unicode="&#xc4;" horiz-adv-x="333" 
d="M233 0l-15 107h-113l-15 -107h-79l95 700h121l94 -700h-88zM127 274l-11 -85h91l-11 85c-18 140 -28 259 -35 353c-7 -94 -16 -213 -34 -353zM259 741h-72v76h72v-76zM144 741h-71v76h71v-76z" />
    <glyph glyph-name="Aring" unicode="&#xc5;" horiz-adv-x="333" 
d="M233 0l-15 107h-113l-15 -107h-79l95 700h121l94 -700h-88zM127 274l-11 -85h91l-11 85c-18 140 -28 259 -35 353c-7 -94 -16 -213 -34 -353zM192 785c0 14 -11 25 -26 25c-14 0 -26 -11 -26 -25c0 -15 12 -26 26 -26c15 0 26 11 26 26zM105 785c0 35 27 59 61 59
c35 0 62 -24 62 -59s-27 -60 -62 -60c-34 0 -61 25 -61 60z" />
    <glyph glyph-name="AE" unicode="&#xc6;" horiz-adv-x="442" 
d="M7 0l157 700h258v-82h-131v-211h109v-82h-109v-243h131v-82h-219v107h-94l-23 -107h-79zM149 297l-22 -108h76v404c-13 -82 -34 -200 -54 -296z" />
    <glyph glyph-name="Ccedilla" unicode="&#xc7;" horiz-adv-x="348" 
d="M198 -82c0 21 -7 33 -45 31v46h-2c-92 0 -117 29 -117 130v450c0 101 25 130 117 130h48c93 0 117 -29 117 -130v-131h-83v117c0 47 -4 62 -45 62h-21c-41 0 -45 -15 -45 -62v-422c0 -47 4 -62 45 -62h21c41 0 45 15 45 62v147h83v-161c0 -101 -24 -130 -117 -130h-18
v-27c49 0 69 -13 69 -46c0 -28 -5 -54 -77 -54c-65 0 -72 19 -72 55h46c-1 -22 1 -32 25 -32c22 0 26 8 26 27z" />
    <glyph glyph-name="Egrave" unicode="&#xc8;" horiz-adv-x="280" 
d="M128 618v-211h109v-82h-109v-243h131v-82h-219v700h219v-82h-131zM139 836l50 -115h-50l-73 115h73z" />
    <glyph glyph-name="Eacute" unicode="&#xc9;" horiz-adv-x="280" 
d="M128 618v-211h109v-82h-109v-243h131v-82h-219v700h219v-82h-131zM112 721l51 115h73l-73 -115h-51z" />
    <glyph glyph-name="Ecircumflex" unicode="&#xca;" horiz-adv-x="280" 
d="M128 618v-211h109v-82h-109v-243h131v-82h-219v700h219v-82h-131zM179 836l65 -115h-51l-43 65l-43 -65h-51l64 115h59z" />
    <glyph glyph-name="Edieresis" unicode="&#xcb;" horiz-adv-x="280" 
d="M128 618v-211h109v-82h-109v-243h131v-82h-219v700h219v-82h-131zM242 741h-72v76h72v-76zM127 741h-71v76h71v-76z" />
    <glyph glyph-name="Igrave" unicode="&#xcc;" horiz-adv-x="168" 
d="M40 0v700h88v-700h-88zM72 836l50 -115h-50l-73 115h73z" />
    <glyph glyph-name="Iacute" unicode="&#xcd;" horiz-adv-x="168" 
d="M40 0v700h88v-700h-88zM44 721l51 115h73l-73 -115h-51z" />
    <glyph glyph-name="Icircumflex" unicode="&#xce;" horiz-adv-x="168" 
d="M40 0v700h88v-700h-88zM113 836l65 -115h-51l-43 65l-43 -65h-51l64 115h59z" />
    <glyph glyph-name="Idieresis" unicode="&#xcf;" horiz-adv-x="168" 
d="M40 0v700h88v-700h-88zM176 741h-72v76h72v-76zM61 741h-71v76h71v-76z" />
    <glyph glyph-name="Eth" unicode="&#xd0;" horiz-adv-x="361" 
d="M40 0v335h-26v66h26v299h169c93 0 118 -29 118 -130v-440c0 -101 -25 -130 -118 -130h-169zM128 82h66c41 0 45 15 45 62v412c0 47 -4 62 -45 62h-66v-217h58v-66h-58v-253z" />
    <glyph glyph-name="Ntilde" unicode="&#xd1;" horiz-adv-x="367" 
d="M229 0l-94 405c-10 44 -16 85 -22 126c1 -41 2 -82 2 -128v-403h-76v700h111l83 -374c10 -44 17 -85 23 -126c-1 41 -4 82 -4 127v373h77v-700h-100zM242 814h39c0 -58 -17 -78 -57 -78s-57 27 -80 27c-14 0 -18 -9 -18 -28h-39c0 58 17 78 57 78s57 -27 80 -27
c14 0 18 10 18 28z" />
    <glyph glyph-name="Ograve" unicode="&#xd2;" horiz-adv-x="355" 
d="M34 125v450c0 101 25 130 117 130h53c92 0 117 -29 117 -130v-450c0 -101 -25 -130 -117 -130h-53c-92 0 -117 29 -117 130zM233 139v422c0 47 -4 62 -45 62h-21c-41 0 -45 -15 -45 -62v-422c0 -47 4 -62 45 -62h21c41 0 45 15 45 62zM166 836l50 -115h-50l-73 115h73z
" />
    <glyph glyph-name="Oacute" unicode="&#xd3;" horiz-adv-x="355" 
d="M34 125v450c0 101 25 130 117 130h53c92 0 117 -29 117 -130v-450c0 -101 -25 -130 -117 -130h-53c-92 0 -117 29 -117 130zM233 139v422c0 47 -4 62 -45 62h-21c-41 0 -45 -15 -45 -62v-422c0 -47 4 -62 45 -62h21c41 0 45 15 45 62zM138 721l51 115h73l-73 -115h-51z
" />
    <glyph glyph-name="Ocircumflex" unicode="&#xd4;" horiz-adv-x="355" 
d="M34 125v450c0 101 25 130 117 130h53c92 0 117 -29 117 -130v-450c0 -101 -25 -130 -117 -130h-53c-92 0 -117 29 -117 130zM233 139v422c0 47 -4 62 -45 62h-21c-41 0 -45 -15 -45 -62v-422c0 -47 4 -62 45 -62h21c41 0 45 15 45 62zM206 836l65 -115h-51l-43 65
l-43 -65h-51l64 115h59z" />
    <glyph glyph-name="Otilde" unicode="&#xd5;" horiz-adv-x="355" 
d="M34 125v450c0 101 25 130 117 130h53c92 0 117 -29 117 -130v-450c0 -101 -25 -130 -117 -130h-53c-92 0 -117 29 -117 130zM233 139v422c0 47 -4 62 -45 62h-21c-41 0 -45 -15 -45 -62v-422c0 -47 4 -62 45 -62h21c41 0 45 15 45 62zM235 814h39c0 -58 -17 -78 -57 -78
s-57 27 -80 27c-14 0 -18 -9 -18 -28h-39c0 58 17 78 57 78s57 -27 80 -27c14 0 18 10 18 28z" />
    <glyph glyph-name="Odieresis" unicode="&#xd6;" horiz-adv-x="355" 
d="M34 125v450c0 101 25 130 117 130h53c92 0 117 -29 117 -130v-450c0 -101 -25 -130 -117 -130h-53c-92 0 -117 29 -117 130zM233 139v422c0 47 -4 62 -45 62h-21c-41 0 -45 -15 -45 -62v-422c0 -47 4 -62 45 -62h21c41 0 45 15 45 62zM269 741h-72v76h72v-76zM154 741
h-71v76h71v-76z" />
    <glyph glyph-name="multiply" unicode="&#xd7;" 
d="M119 350l-84 89l45 48l85 -89l84 89l46 -47l-86 -90l86 -89l-46 -47l-84 89l-85 -89l-45 47z" />
    <glyph glyph-name="Oslash" unicode="&#xd8;" horiz-adv-x="355" 
d="M34 125v450c0 101 25 130 117 130h53c13 0 25 -1 36 -2l8 27h73l-18 -61c13 -20 18 -51 18 -94v-450c0 -101 -25 -130 -117 -130h-53c-14 0 -26 1 -37 2l-8 -27h-72l17 61c-13 20 -17 50 -17 94zM122 561v-314l97 369c-6 5 -17 7 -31 7h-21c-41 0 -45 -15 -45 -62z
M233 139v313l-98 -369c7 -4 17 -6 32 -6h21c41 0 45 15 45 62z" />
    <glyph glyph-name="Ugrave" unicode="&#xd9;" horiz-adv-x="356" 
d="M126 700v-561c0 -47 3 -62 45 -62h21c41 0 45 15 45 62v561h82v-575c0 -101 -23 -130 -116 -130h-48c-93 0 -117 29 -117 130v575h88zM166 836l50 -115h-50l-73 115h73z" />
    <glyph glyph-name="Uacute" unicode="&#xda;" horiz-adv-x="356" 
d="M126 700v-561c0 -47 3 -62 45 -62h21c41 0 45 15 45 62v561h82v-575c0 -101 -23 -130 -116 -130h-48c-93 0 -117 29 -117 130v575h88zM139 721l51 115h73l-73 -115h-51z" />
    <glyph glyph-name="Ucircumflex" unicode="&#xdb;" horiz-adv-x="356" 
d="M126 700v-561c0 -47 3 -62 45 -62h21c41 0 45 15 45 62v561h82v-575c0 -101 -23 -130 -116 -130h-48c-93 0 -117 29 -117 130v575h88zM207 836l65 -115h-51l-43 65l-43 -65h-51l64 115h59z" />
    <glyph glyph-name="Udieresis" unicode="&#xdc;" horiz-adv-x="356" 
d="M126 700v-561c0 -47 3 -62 45 -62h21c41 0 45 15 45 62v561h82v-575c0 -101 -23 -130 -116 -130h-48c-93 0 -117 29 -117 130v575h88zM270 741h-72v76h72v-76zM155 741h-71v76h71v-76z" />
    <glyph glyph-name="Yacute" unicode="&#xdd;" horiz-adv-x="317" 
d="M203 0h-88v236l-110 464h89l37 -165c11 -49 27 -127 33 -192c7 65 22 143 33 192l37 165h78l-109 -464v-236zM123 721l51 115h73l-73 -115h-51z" />
    <glyph glyph-name="Thorn" unicode="&#xde;" horiz-adv-x="338" 
d="M40 0v700h88v-60h76c93 0 117 -29 117 -129v-165c0 -101 -24 -130 -117 -130h-76v-216h-88zM128 298h61c41 0 44 15 44 61v137c0 47 -3 63 -44 63h-61v-261z" />
    <glyph glyph-name="germandbls" unicode="&#xdf;" horiz-adv-x="324" 
d="M214 527v59c0 41 -4 56 -40 56h-19c-30 0 -39 -7 -39 -51v-591h-80v589c0 90 22 116 104 116h49c83 0 105 -26 105 -116v-45c0 -68 -14 -99 -57 -110c43 -10 57 -42 57 -109v-209c0 -90 -22 -116 -105 -116h-38v67h23c30 0 40 6 40 52v222c0 42 -4 56 -40 56h-23v74h23
c36 0 40 15 40 56z" />
    <glyph glyph-name="agrave" unicode="&#xe0;" horiz-adv-x="320" 
d="M28 180c0 71 14 106 87 136c83 34 91 39 91 104v9c0 41 -4 55 -40 55h-17c-35 0 -40 -14 -40 -55v-63h-74v75c0 90 21 116 103 116h44c82 0 104 -26 104 -116v-348c0 -32 0 -60 7 -93h-75c-5 11 -8 29 -9 56c-10 -38 -34 -61 -82 -61h-20c-61 0 -79 25 -79 95v90z
M206 134v153c-12 -7 -26 -14 -43 -21c-49 -21 -55 -39 -55 -88v-57c0 -39 4 -53 38 -53h15c33 0 45 24 45 66zM149 695l50 -115h-50l-73 115h73z" />
    <glyph glyph-name="aacute" unicode="&#xe1;" horiz-adv-x="320" 
d="M28 180c0 71 14 106 87 136c83 34 91 39 91 104v9c0 41 -4 55 -40 55h-17c-35 0 -40 -14 -40 -55v-63h-74v75c0 90 21 116 103 116h44c82 0 104 -26 104 -116v-348c0 -32 0 -60 7 -93h-75c-5 11 -8 29 -9 56c-10 -38 -34 -61 -82 -61h-20c-61 0 -79 25 -79 95v90z
M206 134v153c-12 -7 -26 -14 -43 -21c-49 -21 -55 -39 -55 -88v-57c0 -39 4 -53 38 -53h15c33 0 45 24 45 66zM121 580l51 115h73l-73 -115h-51z" />
    <glyph glyph-name="acircumflex" unicode="&#xe2;" horiz-adv-x="320" 
d="M28 180c0 71 14 106 87 136c83 34 91 39 91 104v9c0 41 -4 55 -40 55h-17c-35 0 -40 -14 -40 -55v-63h-74v75c0 90 21 116 103 116h44c82 0 104 -26 104 -116v-348c0 -32 0 -60 7 -93h-75c-5 11 -8 29 -9 56c-10 -38 -34 -61 -82 -61h-20c-61 0 -79 25 -79 95v90z
M206 134v153c-12 -7 -26 -14 -43 -21c-49 -21 -55 -39 -55 -88v-57c0 -39 4 -53 38 -53h15c33 0 45 24 45 66zM190 695l65 -115h-51l-43 65l-43 -65h-51l64 115h59z" />
    <glyph glyph-name="atilde" unicode="&#xe3;" horiz-adv-x="320" 
d="M28 180c0 71 14 106 87 136c83 34 91 39 91 104v9c0 41 -4 55 -40 55h-17c-35 0 -40 -14 -40 -55v-63h-74v75c0 90 21 116 103 116h44c82 0 104 -26 104 -116v-348c0 -32 0 -60 7 -93h-75c-5 11 -8 29 -9 56c-10 -38 -34 -61 -82 -61h-20c-61 0 -79 25 -79 95v90z
M206 134v153c-12 -7 -26 -14 -43 -21c-49 -21 -55 -39 -55 -88v-57c0 -39 4 -53 38 -53h15c33 0 45 24 45 66zM219 673h39c0 -58 -17 -78 -57 -78s-57 27 -80 27c-14 0 -18 -9 -18 -28h-39c0 58 17 78 57 78s57 -27 80 -27c14 0 18 10 18 28z" />
    <glyph glyph-name="adieresis" unicode="&#xe4;" horiz-adv-x="320" 
d="M28 180c0 71 14 106 87 136c83 34 91 39 91 104v9c0 41 -4 55 -40 55h-17c-35 0 -40 -14 -40 -55v-63h-74v75c0 90 21 116 103 116h44c82 0 104 -26 104 -116v-348c0 -32 0 -60 7 -93h-75c-5 11 -8 29 -9 56c-10 -38 -34 -61 -82 -61h-20c-61 0 -79 25 -79 95v90z
M206 134v153c-12 -7 -26 -14 -43 -21c-49 -21 -55 -39 -55 -88v-57c0 -39 4 -53 38 -53h15c33 0 45 24 45 66zM253 600h-72v76h72v-76zM138 600h-71v76h71v-76z" />
    <glyph glyph-name="aring" unicode="&#xe5;" horiz-adv-x="320" 
d="M28 180c0 71 14 106 87 136c83 34 91 39 91 104v9c0 41 -4 55 -40 55h-17c-35 0 -40 -14 -40 -55v-63h-74v75c0 90 21 116 103 116h44c82 0 104 -26 104 -116v-348c0 -32 0 -60 7 -93h-75c-5 11 -8 29 -9 56c-10 -38 -34 -61 -82 -61h-20c-61 0 -79 25 -79 95v90z
M206 134v153c-12 -7 -26 -14 -43 -21c-49 -21 -55 -39 -55 -88v-57c0 -39 4 -53 38 -53h15c33 0 45 24 45 66zM186 644c0 14 -11 25 -26 25c-14 0 -26 -11 -26 -25c0 -15 12 -26 26 -26c15 0 26 11 26 26zM99 644c0 35 27 59 61 59c35 0 62 -24 62 -59s-27 -60 -62 -60
c-34 0 -61 25 -61 60z" />
    <glyph glyph-name="ae" unicode="&#xe6;" horiz-adv-x="489" 
d="M115 316c83 34 91 39 91 104v9c0 41 -4 55 -40 55h-17c-35 0 -40 -14 -40 -55v-63h-74v75c0 90 21 116 103 116h17c55 0 80 -12 90 -48c11 36 36 48 92 48h17c83 0 104 -26 104 -116v-189h-172v-129c0 -41 4 -55 40 -55h18c35 0 39 14 39 55v65h75v-77
c0 -90 -21 -116 -104 -116h-44c-64 0 -91 15 -100 63c-10 -39 -34 -63 -83 -63h-20c-61 0 -79 25 -79 95v90c0 71 14 106 87 136zM383 322v107c0 41 -4 55 -39 55h-18c-36 0 -40 -14 -40 -55v-107h97zM206 134v153c-12 -7 -26 -14 -43 -21c-49 -21 -55 -39 -55 -88v-57
c0 -39 4 -53 38 -53h15c33 0 45 24 45 66z" />
    <glyph glyph-name="ccedilla" unicode="&#xe7;" horiz-adv-x="314" 
d="M179 -82c0 21 -7 33 -45 31v46c-82 1 -103 26 -103 116v330c0 90 22 116 105 116h44c82 0 104 -26 104 -116v-103h-75v91c0 41 -4 55 -40 55h-18c-36 0 -40 -14 -40 -55v-306c0 -41 4 -55 40 -55h18c36 0 40 14 40 55v101h75v-113c0 -90 -22 -116 -104 -116h-18v-27
c49 0 69 -13 69 -46c0 -28 -5 -54 -77 -54c-65 0 -72 19 -72 55h46c-1 -22 1 -32 25 -32c22 0 26 8 26 27z" />
    <glyph glyph-name="egrave" unicode="&#xe8;" horiz-adv-x="315" 
d="M209 123v65h75v-77c0 -90 -22 -116 -104 -116h-44c-83 0 -105 26 -105 116v330c0 90 22 116 105 116h44c82 0 104 -26 104 -116v-189h-173v-129c0 -41 4 -55 40 -55h18c36 0 40 14 40 55zM209 322v107c0 41 -4 55 -40 55h-18c-36 0 -40 -14 -40 -55v-107h98zM149 695
l50 -115h-50l-73 115h73z" />
    <glyph glyph-name="eacute" unicode="&#xe9;" horiz-adv-x="315" 
d="M209 123v65h75v-77c0 -90 -22 -116 -104 -116h-44c-83 0 -105 26 -105 116v330c0 90 22 116 105 116h44c82 0 104 -26 104 -116v-189h-173v-129c0 -41 4 -55 40 -55h18c36 0 40 14 40 55zM209 322v107c0 41 -4 55 -40 55h-18c-36 0 -40 -14 -40 -55v-107h98zM121 580
l51 115h73l-73 -115h-51z" />
    <glyph glyph-name="ecircumflex" unicode="&#xea;" horiz-adv-x="315" 
d="M209 123v65h75v-77c0 -90 -22 -116 -104 -116h-44c-83 0 -105 26 -105 116v330c0 90 22 116 105 116h44c82 0 104 -26 104 -116v-189h-173v-129c0 -41 4 -55 40 -55h18c36 0 40 14 40 55zM209 322v107c0 41 -4 55 -40 55h-18c-36 0 -40 -14 -40 -55v-107h98zM189 695
l65 -115h-51l-43 65l-43 -65h-51l64 115h59z" />
    <glyph glyph-name="edieresis" unicode="&#xeb;" horiz-adv-x="315" 
d="M209 123v65h75v-77c0 -90 -22 -116 -104 -116h-44c-83 0 -105 26 -105 116v330c0 90 22 116 105 116h44c82 0 104 -26 104 -116v-189h-173v-129c0 -41 4 -55 40 -55h18c36 0 40 14 40 55zM209 322v107c0 41 -4 55 -40 55h-18c-36 0 -40 -14 -40 -55v-107h98zM252 600h-72
v76h72v-76zM137 600h-71v76h71v-76z" />
    <glyph glyph-name="igrave" unicode="&#xec;" horiz-adv-x="152" 
d="M65 695l50 -115h-50l-73 115h73zM116 552v-552h-80v552h80z" />
    <glyph glyph-name="iacute" unicode="&#xed;" horiz-adv-x="152" 
d="M37 580l51 115h73l-73 -115h-51zM116 552v-552h-80v552h80z" />
    <glyph glyph-name="icircumflex" unicode="&#xee;" horiz-adv-x="152" 
d="M116 552v-552h-80v552h80zM106 695l65 -115h-51l-43 65l-43 -65h-51l64 115h59z" />
    <glyph glyph-name="idieresis" unicode="&#xef;" horiz-adv-x="152" 
d="M169 600h-72v76h72v-76zM54 600h-71v76h71v-76zM116 552v-552h-80v552h80z" />
    <glyph glyph-name="eth" unicode="&#xf0;" 
d="M289 581v-470c0 -90 -22 -116 -104 -116h-49c-83 0 -105 26 -105 116v351c0 70 18 95 79 95h20c45 0 68 -20 80 -53v74c0 18 -1 31 -5 40l-43 -39l-14 15l44 39c-6 3 -14 4 -24 4h-29v63h43c31 0 54 -4 71 -14l16 14h27l-29 -26c16 -19 22 -49 22 -93zM111 123
c0 -41 4 -55 40 -55h18c36 0 40 14 40 55v295c0 42 -12 66 -45 66h-15c-34 0 -38 -14 -38 -53v-308z" />
    <glyph glyph-name="ntilde" unicode="&#xf1;" horiz-adv-x="328" 
d="M294 0h-80v431c0 39 -4 53 -38 53h-15c-33 0 -45 -24 -45 -66v-418h-80v552h75v-63c9 42 32 68 84 68h20c61 0 79 -25 79 -95v-462zM223 673h39c0 -58 -17 -78 -57 -78s-57 27 -80 27c-14 0 -18 -9 -18 -28h-39c0 58 17 78 57 78s57 -27 80 -27c14 0 18 10 18 28z" />
    <glyph glyph-name="ograve" unicode="&#xf2;" horiz-adv-x="320" 
d="M289 441v-330c0 -90 -22 -116 -104 -116h-49c-83 0 -105 26 -105 116v330c0 90 22 116 105 116h49c82 0 104 -26 104 -116zM111 429v-306c0 -41 4 -55 40 -55h18c36 0 40 14 40 55v306c0 41 -4 55 -40 55h-18c-36 0 -40 -14 -40 -55zM148 695l50 -115h-50l-73 115h73z
" />
    <glyph glyph-name="oacute" unicode="&#xf3;" horiz-adv-x="320" 
d="M289 441v-330c0 -90 -22 -116 -104 -116h-49c-83 0 -105 26 -105 116v330c0 90 22 116 105 116h49c82 0 104 -26 104 -116zM111 429v-306c0 -41 4 -55 40 -55h18c36 0 40 14 40 55v306c0 41 -4 55 -40 55h-18c-36 0 -40 -14 -40 -55zM121 580l51 115h73l-73 -115h-51z
" />
    <glyph glyph-name="ocircumflex" unicode="&#xf4;" horiz-adv-x="320" 
d="M289 441v-330c0 -90 -22 -116 -104 -116h-49c-83 0 -105 26 -105 116v330c0 90 22 116 105 116h49c82 0 104 -26 104 -116zM111 429v-306c0 -41 4 -55 40 -55h18c36 0 40 14 40 55v306c0 41 -4 55 -40 55h-18c-36 0 -40 -14 -40 -55zM189 695l65 -115h-51l-43 65l-43 -65
h-51l64 115h59z" />
    <glyph glyph-name="otilde" unicode="&#xf5;" horiz-adv-x="320" 
d="M289 441v-330c0 -90 -22 -116 -104 -116h-49c-83 0 -105 26 -105 116v330c0 90 22 116 105 116h49c82 0 104 -26 104 -116zM111 429v-306c0 -41 4 -55 40 -55h18c36 0 40 14 40 55v306c0 41 -4 55 -40 55h-18c-36 0 -40 -14 -40 -55zM218 673h39c0 -58 -17 -78 -57 -78
s-57 27 -80 27c-14 0 -18 -9 -18 -28h-39c0 58 17 78 57 78s57 -27 80 -27c14 0 18 10 18 28z" />
    <glyph glyph-name="odieresis" unicode="&#xf6;" horiz-adv-x="320" 
d="M289 441v-330c0 -90 -22 -116 -104 -116h-49c-83 0 -105 26 -105 116v330c0 90 22 116 105 116h49c82 0 104 -26 104 -116zM111 429v-306c0 -41 4 -55 40 -55h18c36 0 40 14 40 55v306c0 41 -4 55 -40 55h-18c-36 0 -40 -14 -40 -55zM252 600h-72v76h72v-76zM137 600h-71
v76h71v-76z" />
    <glyph glyph-name="divide" unicode="&#xf7;" 
d="M298 386v-72h-266v72h266zM125 191v77h79v-77h-79zM125 431v78h79v-78h-79z" />
    <glyph glyph-name="oslash" unicode="&#xf8;" horiz-adv-x="320" 
d="M289 441v-330c0 -90 -22 -116 -104 -116h-49c-11 0 -21 1 -30 2l-9 -27h-66l17 54c-13 18 -17 46 -17 87v330c0 90 22 116 105 116h49c10 0 19 -1 28 -2l10 32h66l-19 -58c14 -18 19 -46 19 -88zM169 68c36 0 40 14 40 55v237l-83 -288c6 -3 14 -4 25 -4h18zM111 429
v-236l81 287c-5 3 -13 4 -23 4h-18c-36 0 -40 -14 -40 -55z" />
    <glyph glyph-name="ugrave" unicode="&#xf9;" horiz-adv-x="328" 
d="M292 93c0 -32 0 -60 8 -93h-76c-5 11 -7 30 -8 59c-9 -40 -33 -64 -83 -64h-20c-61 0 -78 25 -78 95v462h79v-431c0 -39 4 -53 38 -53h15c33 0 45 24 45 66v418h80v-459zM152 695l50 -115h-50l-73 115h73z" />
    <glyph glyph-name="uacute" unicode="&#xfa;" horiz-adv-x="328" 
d="M292 93c0 -32 0 -60 8 -93h-76c-5 11 -7 30 -8 59c-9 -40 -33 -64 -83 -64h-20c-61 0 -78 25 -78 95v462h79v-431c0 -39 4 -53 38 -53h15c33 0 45 24 45 66v418h80v-459zM124 580l51 115h73l-73 -115h-51z" />
    <glyph glyph-name="ucircumflex" unicode="&#xfb;" horiz-adv-x="328" 
d="M292 93c0 -32 0 -60 8 -93h-76c-5 11 -7 30 -8 59c-9 -40 -33 -64 -83 -64h-20c-61 0 -78 25 -78 95v462h79v-431c0 -39 4 -53 38 -53h15c33 0 45 24 45 66v418h80v-459zM193 695l65 -115h-51l-43 65l-43 -65h-51l64 115h59z" />
    <glyph glyph-name="udieresis" unicode="&#xfc;" horiz-adv-x="328" 
d="M292 93c0 -32 0 -60 8 -93h-76c-5 11 -7 30 -8 59c-9 -40 -33 -64 -83 -64h-20c-61 0 -78 25 -78 95v462h79v-431c0 -39 4 -53 38 -53h15c33 0 45 24 45 66v418h80v-459zM256 600h-72v76h72v-76zM141 600h-71v76h71v-76z" />
    <glyph glyph-name="yacute" unicode="&#xfd;" horiz-adv-x="296" 
d="M189 -49c-8 -50 -35 -78 -93 -78h-73v61h41c23 0 32 10 33 29l2 31l-93 558h82l34 -209c14 -86 26 -188 30 -257c5 69 17 172 31 257l35 209h72zM112 580l51 115h73l-73 -115h-51z" />
    <glyph glyph-name="thorn" unicode="&#xfe;" horiz-adv-x="325" 
d="M214 431c0 39 -4 53 -38 53h-15c-33 0 -45 -24 -45 -66v-284c0 -42 12 -66 45 -66h15c34 0 38 14 38 53v310zM116 -127h-80v827h80v-194c11 32 35 51 79 51h20c61 0 79 -25 79 -95v-372c0 -70 -18 -95 -79 -95h-20c-44 0 -68 18 -79 50v-172z" />
    <glyph glyph-name="ydieresis" unicode="&#xff;" horiz-adv-x="296" 
d="M189 -49c-8 -50 -35 -78 -93 -78h-73v61h41c23 0 32 10 33 29l2 31l-93 558h82l34 -209c14 -86 26 -188 30 -257c5 69 17 172 31 257l35 209h72zM243 600h-72v76h72v-76zM128 600h-71v76h71v-76z" />
    <glyph glyph-name="Amacron" unicode="&#x100;" horiz-adv-x="333" 
d="M233 0l-15 107h-113l-15 -107h-79l95 700h121l94 -700h-88zM127 274l-11 -85h91l-11 85c-18 140 -28 259 -35 353c-7 -94 -16 -213 -34 -353zM260 744h-187v51h187v-51z" />
    <glyph glyph-name="amacron" unicode="&#x101;" horiz-adv-x="320" 
d="M28 180c0 71 14 106 87 136c83 34 91 39 91 104v9c0 41 -4 55 -40 55h-17c-35 0 -40 -14 -40 -55v-63h-74v75c0 90 21 116 103 116h44c82 0 104 -26 104 -116v-348c0 -32 0 -60 7 -93h-75c-5 11 -8 29 -9 56c-10 -38 -34 -61 -82 -61h-20c-61 0 -79 25 -79 95v90z
M206 134v153c-12 -7 -26 -14 -43 -21c-49 -21 -55 -39 -55 -88v-57c0 -39 4 -53 38 -53h15c33 0 45 24 45 66zM254 603h-187v51h187v-51z" />
    <glyph glyph-name="Abreve" unicode="&#x102;" horiz-adv-x="333" 
d="M233 0l-15 107h-113l-15 -107h-79l95 700h121l94 -700h-88zM127 274l-11 -85h91l-11 85c-18 140 -28 259 -35 353c-7 -94 -16 -213 -34 -353zM167 776c36 0 48 15 48 53h44c0 -59 -13 -102 -92 -102c-80 0 -93 43 -93 102h44c0 -38 13 -53 49 -53z" />
    <glyph glyph-name="abreve" unicode="&#x103;" horiz-adv-x="320" 
d="M28 180c0 71 14 106 87 136c83 34 91 39 91 104v9c0 41 -4 55 -40 55h-17c-35 0 -40 -14 -40 -55v-63h-74v75c0 90 21 116 103 116h44c82 0 104 -26 104 -116v-348c0 -32 0 -60 7 -93h-75c-5 11 -8 29 -9 56c-10 -38 -34 -61 -82 -61h-20c-61 0 -79 25 -79 95v90z
M206 134v153c-12 -7 -26 -14 -43 -21c-49 -21 -55 -39 -55 -88v-57c0 -39 4 -53 38 -53h15c33 0 45 24 45 66zM161 635c36 0 48 15 48 53h44c0 -59 -13 -102 -92 -102c-80 0 -93 43 -93 102h44c0 -38 13 -53 49 -53z" />
    <glyph glyph-name="Aogonek" unicode="&#x104;" horiz-adv-x="333" 
d="M233 0l-15 107h-113l-15 -107h-79l95 700h121l94 -700h-32c-29 -25 -42 -41 -42 -64c0 -20 12 -30 40 -30c9 0 23 1 35 6v-37c-15 -4 -35 -7 -53 -7c-61 0 -78 16 -78 52c0 39 35 58 70 80h-28zM127 274l-11 -85h91l-11 85c-18 140 -28 259 -35 353
c-7 -94 -16 -213 -34 -353z" />
    <glyph glyph-name="aogonek" unicode="&#x105;" horiz-adv-x="320" 
d="M294 -88v-37c-15 -4 -35 -7 -53 -7c-61 0 -78 16 -78 52c0 39 35 58 70 80h-15c-5 11 -8 29 -9 56c-10 -38 -34 -61 -82 -61h-20c-61 0 -79 25 -79 95v90c0 71 14 106 87 136c83 34 91 39 91 104v9c0 41 -4 55 -40 55h-17c-35 0 -40 -14 -40 -55v-63h-74v75
c0 90 21 116 103 116h44c82 0 104 -26 104 -116v-348c0 -32 0 -60 7 -93h-32c-29 -25 -42 -41 -42 -64c0 -20 12 -30 40 -30c9 0 23 1 35 6zM206 134v153c-12 -7 -26 -14 -43 -21c-49 -21 -55 -39 -55 -88v-57c0 -39 4 -53 38 -53h15c33 0 45 24 45 66z" />
    <glyph glyph-name="Cacute" unicode="&#x106;" horiz-adv-x="348" 
d="M122 561v-422c0 -47 4 -62 45 -62h21c41 0 45 15 45 62v147h83v-161c0 -101 -24 -130 -117 -130h-48c-92 0 -117 29 -117 130v450c0 101 25 130 117 130h48c93 0 117 -29 117 -130v-131h-83v117c0 47 -4 62 -45 62h-21c-41 0 -45 -15 -45 -62zM139 721l51 115h73
l-73 -115h-51z" />
    <glyph glyph-name="cacute" unicode="&#x107;" horiz-adv-x="314" 
d="M209 123v101h75v-113c0 -90 -22 -116 -104 -116h-44c-83 0 -105 26 -105 116v330c0 90 22 116 105 116h44c82 0 104 -26 104 -116v-103h-75v91c0 41 -4 55 -40 55h-18c-36 0 -40 -14 -40 -55v-306c0 -41 4 -55 40 -55h18c36 0 40 14 40 55zM121 580l51 115h73l-73 -115
h-51z" />
    <glyph glyph-name="Ccircumflex" unicode="&#x108;" horiz-adv-x="348" 
d="M122 561v-422c0 -47 4 -62 45 -62h21c41 0 45 15 45 62v147h83v-161c0 -101 -24 -130 -117 -130h-48c-92 0 -117 29 -117 130v450c0 101 25 130 117 130h48c93 0 117 -29 117 -130v-131h-83v117c0 47 -4 62 -45 62h-21c-41 0 -45 -15 -45 -62zM207 836l65 -115h-51
l-43 65l-43 -65h-51l64 115h59z" />
    <glyph glyph-name="ccircumflex" unicode="&#x109;" horiz-adv-x="314" 
d="M209 123v101h75v-113c0 -90 -22 -116 -104 -116h-44c-83 0 -105 26 -105 116v330c0 90 22 116 105 116h44c82 0 104 -26 104 -116v-103h-75v91c0 41 -4 55 -40 55h-18c-36 0 -40 -14 -40 -55v-306c0 -41 4 -55 40 -55h18c36 0 40 14 40 55zM189 695l65 -115h-51l-43 65
l-43 -65h-51l64 115h59z" />
    <glyph glyph-name="Cdotaccent" unicode="&#x10a;" horiz-adv-x="348" 
d="M122 561v-422c0 -47 4 -62 45 -62h21c41 0 45 15 45 62v147h83v-161c0 -101 -24 -130 -117 -130h-48c-92 0 -117 29 -117 130v450c0 101 25 130 117 130h48c93 0 117 -29 117 -130v-131h-83v117c0 47 -4 62 -45 62h-21c-41 0 -45 -15 -45 -62zM214 741h-72v76h72v-76z
" />
    <glyph glyph-name="cdotaccent" unicode="&#x10b;" horiz-adv-x="314" 
d="M209 123v101h75v-113c0 -90 -22 -116 -104 -116h-44c-83 0 -105 26 -105 116v330c0 90 22 116 105 116h44c82 0 104 -26 104 -116v-103h-75v91c0 41 -4 55 -40 55h-18c-36 0 -40 -14 -40 -55v-306c0 -41 4 -55 40 -55h18c36 0 40 14 40 55zM196 600h-72v76h72v-76z" />
    <glyph glyph-name="Ccaron" unicode="&#x10c;" horiz-adv-x="348" 
d="M122 561v-422c0 -47 4 -62 45 -62h21c41 0 45 15 45 62v147h83v-161c0 -101 -24 -130 -117 -130h-48c-92 0 -117 29 -117 130v450c0 101 25 130 117 130h48c93 0 117 -29 117 -130v-131h-83v117c0 47 -4 62 -45 62h-21c-41 0 -45 -15 -45 -62zM272 836l-65 -115h-59
l-64 115h51l43 -65l43 65h51z" />
    <glyph glyph-name="ccaron" unicode="&#x10d;" horiz-adv-x="314" 
d="M209 123v101h75v-113c0 -90 -22 -116 -104 -116h-44c-83 0 -105 26 -105 116v330c0 90 22 116 105 116h44c82 0 104 -26 104 -116v-103h-75v91c0 41 -4 55 -40 55h-18c-36 0 -40 -14 -40 -55v-306c0 -41 4 -55 40 -55h18c36 0 40 14 40 55zM254 695l-65 -115h-59l-64 115
h51l43 -65l43 65h51z" />
    <glyph glyph-name="Dcaron" unicode="&#x10e;" horiz-adv-x="361" 
d="M40 0v700h169c93 0 118 -29 118 -130v-440c0 -101 -25 -130 -118 -130h-169zM128 82h66c41 0 45 15 45 62v412c0 47 -4 62 -45 62h-66v-536zM271 836l-65 -115h-59l-64 115h51l43 -65l43 65h51z" />
    <glyph glyph-name="dcaron" unicode="&#x10f;" horiz-adv-x="419" 
d="M337 596v104h78v-104l-66 -76l-5 5l42 71h-49zM209 134v284c0 42 -11 66 -44 66h-16c-34 0 -37 -14 -37 -53v-310c0 -39 3 -53 37 -53h16c33 0 44 24 44 66zM289 93c0 -32 1 -60 8 -93h-76c-5 11 -7 30 -8 59c-9 -40 -33 -64 -83 -64h-20c-61 0 -78 25 -78 95v372
c0 70 17 95 78 95h20c44 0 67 -19 79 -51v194h80v-607z" />
    <glyph glyph-name="Dcroat" unicode="&#x110;" horiz-adv-x="361" 
d="M40 0v335h-26v66h26v299h169c93 0 118 -29 118 -130v-440c0 -101 -25 -130 -118 -130h-169zM128 82h66c41 0 45 15 45 62v412c0 47 -4 62 -45 62h-66v-217h58v-66h-58v-253z" />
    <glyph glyph-name="dcroat" unicode="&#x111;" horiz-adv-x="325" 
d="M289 93c0 -32 1 -60 8 -93h-76c-5 11 -7 30 -8 59c-9 -40 -33 -64 -83 -64h-20c-61 0 -78 25 -78 95v372c0 70 17 95 78 95h20c44 0 67 -19 79 -51v84h-81v56h81v54h80v-54h23v-56h-23v-497zM209 134v284c0 42 -11 66 -44 66h-16c-34 0 -37 -14 -37 -53v-310
c0 -39 3 -53 37 -53h16c33 0 44 24 44 66z" />
    <glyph glyph-name="Emacron" unicode="&#x112;" horiz-adv-x="280" 
d="M128 618v-211h109v-82h-109v-243h131v-82h-219v700h219v-82h-131zM244 744h-187v51h187v-51z" />
    <glyph glyph-name="emacron" unicode="&#x113;" horiz-adv-x="315" 
d="M209 123v65h75v-77c0 -90 -22 -116 -104 -116h-44c-83 0 -105 26 -105 116v330c0 90 22 116 105 116h44c82 0 104 -26 104 -116v-189h-173v-129c0 -41 4 -55 40 -55h18c36 0 40 14 40 55zM209 322v107c0 41 -4 55 -40 55h-18c-36 0 -40 -14 -40 -55v-107h98zM254 603
h-187v51h187v-51z" />
    <glyph glyph-name="Ebreve" unicode="&#x114;" horiz-adv-x="280" 
d="M128 618v-211h109v-82h-109v-243h131v-82h-219v700h219v-82h-131zM150 776c36 0 48 15 48 53h44c0 -59 -13 -102 -92 -102c-80 0 -93 43 -93 102h44c0 -38 13 -53 49 -53z" />
    <glyph glyph-name="ebreve" unicode="&#x115;" horiz-adv-x="315" 
d="M209 123v65h75v-77c0 -90 -22 -116 -104 -116h-44c-83 0 -105 26 -105 116v330c0 90 22 116 105 116h44c82 0 104 -26 104 -116v-189h-173v-129c0 -41 4 -55 40 -55h18c36 0 40 14 40 55zM209 322v107c0 41 -4 55 -40 55h-18c-36 0 -40 -14 -40 -55v-107h98zM160 635
c36 0 48 15 48 53h44c0 -59 -13 -102 -92 -102c-80 0 -93 43 -93 102h44c0 -38 13 -53 49 -53z" />
    <glyph glyph-name="Edotaccent" unicode="&#x116;" horiz-adv-x="280" 
d="M128 618v-211h109v-82h-109v-243h131v-82h-219v700h219v-82h-131zM186 741h-72v76h72v-76z" />
    <glyph glyph-name="edotaccent" unicode="&#x117;" horiz-adv-x="315" 
d="M209 123v65h75v-77c0 -90 -22 -116 -104 -116h-44c-83 0 -105 26 -105 116v330c0 90 22 116 105 116h44c82 0 104 -26 104 -116v-189h-173v-129c0 -41 4 -55 40 -55h18c36 0 40 14 40 55zM209 322v107c0 41 -4 55 -40 55h-18c-36 0 -40 -14 -40 -55v-107h98zM196 600h-72
v76h72v-76z" />
    <glyph glyph-name="Eogonek" unicode="&#x118;" horiz-adv-x="280" 
d="M259 -88v-37c-15 -4 -35 -7 -53 -7c-60 0 -78 16 -78 52c0 39 39 59 83 80h-171v700h219v-82h-131v-211h109v-82h-109v-243h131v-82h-18c-42 -26 -57 -42 -57 -65c0 -20 12 -29 40 -29c9 0 23 1 35 6z" />
    <glyph glyph-name="eogonek" unicode="&#x119;" horiz-adv-x="315" 
d="M284 -88v-37c-15 -4 -35 -7 -53 -7c-61 0 -78 16 -78 52c0 34 20 56 51 76c-8 -1 -16 -1 -24 -1h-44c-83 0 -105 26 -105 116v330c0 90 22 116 105 116h44c82 0 104 -26 104 -116v-189h-173v-129c0 -41 4 -55 40 -55h18c36 0 40 14 40 55v65h75v-77
c0 -62 -11 -93 -44 -107c-27 -28 -31 -46 -31 -69c0 -20 12 -29 40 -29c9 0 23 1 35 6zM209 322v107c0 41 -4 55 -40 55h-18c-36 0 -40 -14 -40 -55v-107h98z" />
    <glyph glyph-name="Ecaron" unicode="&#x11a;" horiz-adv-x="280" 
d="M128 618v-211h109v-82h-109v-243h131v-82h-219v700h219v-82h-131zM244 836l-65 -115h-59l-64 115h51l43 -65l43 65h51z" />
    <glyph glyph-name="ecaron" unicode="&#x11b;" horiz-adv-x="315" 
d="M209 123v65h75v-77c0 -90 -22 -116 -104 -116h-44c-83 0 -105 26 -105 116v330c0 90 22 116 105 116h44c82 0 104 -26 104 -116v-189h-173v-129c0 -41 4 -55 40 -55h18c36 0 40 14 40 55zM209 322v107c0 41 -4 55 -40 55h-18c-36 0 -40 -14 -40 -55v-107h98zM254 695
l-65 -115h-59l-64 115h51l43 -65l43 65h51z" />
    <glyph glyph-name="Gcircumflex" unicode="&#x11c;" horiz-adv-x="349" 
d="M178 306v82h138v-263c0 -101 -24 -130 -117 -130h-48c-92 0 -117 29 -117 130v450c0 101 25 130 117 130h48c93 0 117 -29 117 -130v-119h-83v105c0 47 -4 62 -45 62h-21c-41 0 -45 -15 -45 -62v-422c0 -47 4 -62 45 -62h21c41 0 45 15 45 62v167h-55zM207 836l65 -115
h-51l-43 65l-43 -65h-51l64 115h59z" />
    <glyph glyph-name="gcircumflex" unicode="&#x11d;" horiz-adv-x="316" 
d="M106 436v-171c0 -41 4 -56 40 -56h18c36 0 40 15 40 56v171c0 41 -4 56 -40 56h-18c-36 0 -40 -15 -40 -56zM244 -38v6c0 31 -15 36 -49 36h-66c-29 0 -42 -10 -42 -38v-6c0 -35 15 -40 45 -40h63c34 0 49 5 49 42zM93 109v-2c0 -24 14 -30 41 -30h62
c68 0 114 -11 114 -93v-16c0 -79 -33 -100 -113 -100h-86c-51 0 -83 21 -83 77v18c0 31 12 49 35 58c-19 14 -25 36 -25 64v8c0 33 11 51 31 61c-30 15 -40 47 -40 106v181c0 90 22 116 104 116h37c50 0 77 -10 91 -38c3 21 14 38 37 38h13v-71h-13c-12 0 -17 -9 -17 -26
v-200c0 -89 -22 -116 -104 -116h-48c-26 0 -36 -9 -36 -35zM186 695l65 -115h-51l-43 65l-43 -65h-51l64 115h59z" />
    <glyph glyph-name="Gbreve" unicode="&#x11e;" horiz-adv-x="349" 
d="M178 306v82h138v-263c0 -101 -24 -130 -117 -130h-48c-92 0 -117 29 -117 130v450c0 101 25 130 117 130h48c93 0 117 -29 117 -130v-119h-83v105c0 47 -4 62 -45 62h-21c-41 0 -45 -15 -45 -62v-422c0 -47 4 -62 45 -62h21c41 0 45 15 45 62v167h-55zM178 776
c36 0 48 15 48 53h44c0 -59 -13 -102 -92 -102c-80 0 -93 43 -93 102h44c0 -38 13 -53 49 -53z" />
    <glyph glyph-name="gbreve" unicode="&#x11f;" horiz-adv-x="316" 
d="M106 436v-171c0 -41 4 -56 40 -56h18c36 0 40 15 40 56v171c0 41 -4 56 -40 56h-18c-36 0 -40 -15 -40 -56zM244 -38v6c0 31 -15 36 -49 36h-66c-29 0 -42 -10 -42 -38v-6c0 -35 15 -40 45 -40h63c34 0 49 5 49 42zM93 109v-2c0 -24 14 -30 41 -30h62
c68 0 114 -11 114 -93v-16c0 -79 -33 -100 -113 -100h-86c-51 0 -83 21 -83 77v18c0 31 12 49 35 58c-19 14 -25 36 -25 64v8c0 33 11 51 31 61c-30 15 -40 47 -40 106v181c0 90 22 116 104 116h37c50 0 77 -10 91 -38c3 21 14 38 37 38h13v-71h-13c-12 0 -17 -9 -17 -26
v-200c0 -89 -22 -116 -104 -116h-48c-26 0 -36 -9 -36 -35zM157 635c36 0 48 15 48 53h44c0 -59 -13 -102 -92 -102c-80 0 -93 43 -93 102h44c0 -38 13 -53 49 -53z" />
    <glyph glyph-name="Gdotaccent" unicode="&#x120;" horiz-adv-x="349" 
d="M178 306v82h138v-263c0 -101 -24 -130 -117 -130h-48c-92 0 -117 29 -117 130v450c0 101 25 130 117 130h48c93 0 117 -29 117 -130v-119h-83v105c0 47 -4 62 -45 62h-21c-41 0 -45 -15 -45 -62v-422c0 -47 4 -62 45 -62h21c41 0 45 15 45 62v167h-55zM214 741h-72v76h72
v-76z" />
    <glyph glyph-name="gdotaccent" unicode="&#x121;" horiz-adv-x="316" 
d="M106 436v-171c0 -41 4 -56 40 -56h18c36 0 40 15 40 56v171c0 41 -4 56 -40 56h-18c-36 0 -40 -15 -40 -56zM244 -38v6c0 31 -15 36 -49 36h-66c-29 0 -42 -10 -42 -38v-6c0 -35 15 -40 45 -40h63c34 0 49 5 49 42zM93 109v-2c0 -24 14 -30 41 -30h62
c68 0 114 -11 114 -93v-16c0 -79 -33 -100 -113 -100h-86c-51 0 -83 21 -83 77v18c0 31 12 49 35 58c-19 14 -25 36 -25 64v8c0 33 11 51 31 61c-30 15 -40 47 -40 106v181c0 90 22 116 104 116h37c50 0 77 -10 91 -38c3 21 14 38 37 38h13v-71h-13c-12 0 -17 -9 -17 -26
v-200c0 -89 -22 -116 -104 -116h-48c-26 0 -36 -9 -36 -35zM193 600h-72v76h72v-76z" />
    <glyph glyph-name="uni0122" unicode="&#x122;" horiz-adv-x="349" 
d="M178 306v82h138v-263c0 -101 -24 -130 -117 -130h-48c-92 0 -117 29 -117 130v450c0 101 25 130 117 130h48c93 0 117 -29 117 -130v-119h-83v105c0 47 -4 62 -45 62h-21c-41 0 -45 -15 -45 -62v-422c0 -47 4 -62 45 -62h21c41 0 45 15 45 62v167h-55zM142 -128v75h71
v-75l-61 -66l-5 4l39 62h-44z" />
    <glyph glyph-name="uni0123" unicode="&#x123;" horiz-adv-x="316" 
d="M192 675v-75h-71v75l61 66l5 -4l-39 -62h44zM106 436v-171c0 -41 4 -56 40 -56h18c36 0 40 15 40 56v171c0 41 -4 56 -40 56h-18c-36 0 -40 -15 -40 -56zM244 -38v6c0 31 -15 36 -49 36h-66c-29 0 -42 -10 -42 -38v-6c0 -35 15 -40 45 -40h63c34 0 49 5 49 42zM93 109v-2
c0 -24 14 -30 41 -30h62c68 0 114 -11 114 -93v-16c0 -79 -33 -100 -113 -100h-86c-51 0 -83 21 -83 77v18c0 31 12 49 35 58c-19 14 -25 36 -25 64v8c0 33 11 51 31 61c-30 15 -40 47 -40 106v181c0 90 22 116 104 116h37c50 0 77 -10 91 -38c3 21 14 38 37 38h13v-71h-13
c-12 0 -17 -9 -17 -26v-200c0 -89 -22 -116 -104 -116h-48c-26 0 -36 -9 -36 -35z" />
    <glyph glyph-name="Hcircumflex" unicode="&#x124;" horiz-adv-x="367" 
d="M128 0h-88v700h88v-293h111v293h88v-700h-88v325h-111v-325zM212 836l65 -115h-51l-43 65l-43 -65h-51l64 115h59z" />
    <glyph glyph-name="hcircumflex" unicode="&#x125;" horiz-adv-x="328" 
d="M294 0h-80v431c0 39 -4 53 -38 53h-15c-33 0 -45 -24 -45 -66v-418h-80v700h80v-194c11 32 35 51 79 51h20c61 0 79 -25 79 -95v-462zM106 836l65 -115h-51l-43 65l-43 -65h-51l64 115h59z" />
    <glyph glyph-name="Hbar" unicode="&#x126;" horiz-adv-x="367" 
d="M128 0h-88v519h-26v66h26v115h88v-115h111v115h88v-115h26v-66h-26v-519h-88v325h-111v-325zM128 407h111v112h-111v-112z" />
    <glyph glyph-name="hbar" unicode="&#x127;" horiz-adv-x="328" 
d="M294 0h-80v431c0 39 -4 53 -38 53h-15c-33 0 -45 -24 -45 -66v-418h-80v590h-22v56h22v54h80v-54h82v-56h-82v-84c11 32 35 51 79 51h20c61 0 79 -25 79 -95v-462z" />
    <glyph glyph-name="Itilde" unicode="&#x128;" horiz-adv-x="168" 
d="M40 0v700h88v-700h-88zM142 814h39c0 -58 -17 -78 -57 -78s-57 27 -80 27c-14 0 -18 -9 -18 -28h-39c0 58 17 78 57 78s57 -27 80 -27c14 0 18 10 18 28z" />
    <glyph glyph-name="itilde" unicode="&#x129;" horiz-adv-x="152" 
d="M135 673h39c0 -58 -17 -78 -57 -78s-57 27 -80 27c-14 0 -18 -9 -18 -28h-39c0 58 17 78 57 78s57 -27 80 -27c14 0 18 10 18 28zM116 552v-552h-80v552h80z" />
    <glyph glyph-name="Imacron" unicode="&#x12a;" horiz-adv-x="168" 
d="M40 0v700h88v-700h-88zM177 744h-187v51h187v-51z" />
    <glyph glyph-name="imacron" unicode="&#x12b;" horiz-adv-x="152" 
d="M170 603h-187v51h187v-51zM116 552v-552h-80v552h80z" />
    <glyph glyph-name="Ibreve" unicode="&#x12c;" horiz-adv-x="168" 
d="M40 0v700h88v-700h-88zM84 776c36 0 48 15 48 53h44c0 -59 -13 -102 -92 -102c-80 0 -93 43 -93 102h44c0 -38 13 -53 49 -53z" />
    <glyph glyph-name="ibreve" unicode="&#x12d;" horiz-adv-x="152" 
d="M77 635c36 0 48 15 48 53h44c0 -59 -13 -102 -92 -102c-80 0 -93 43 -93 102h44c0 -38 13 -53 49 -53zM116 552v-552h-80v552h80z" />
    <glyph glyph-name="Iogonek" unicode="&#x12e;" horiz-adv-x="168" 
d="M40 0v700h88v-700h-32c-24 -25 -30 -41 -30 -64c0 -20 12 -30 40 -30c9 0 23 1 35 6v-37c-15 -4 -35 -7 -53 -7c-61 0 -78 16 -78 52c0 38 27 60 56 80h-26z" />
    <glyph glyph-name="iogonek" unicode="&#x12f;" horiz-adv-x="152" 
d="M137 -88v-37c-15 -4 -35 -7 -53 -7c-61 0 -78 16 -78 52c0 38 27 60 56 80h-26v552h80v-552h-24c-24 -25 -30 -41 -30 -64c0 -20 12 -30 40 -30c9 0 23 1 35 6zM36 619v81h80v-81h-80z" />
    <glyph glyph-name="Idotaccent" unicode="&#x130;" horiz-adv-x="168" 
d="M40 0v700h88v-700h-88zM120 741h-72v76h72v-76z" />
    <glyph glyph-name="dotlessi" unicode="&#x131;" horiz-adv-x="152" 
d="M116 552v-552h-80v552h80z" />
    <glyph glyph-name="IJ" unicode="&#x132;" horiz-adv-x="502" 
d="M40 0v700h88v-700h-88zM265 286v-147c0 -47 4 -62 45 -62h21c41 0 45 15 45 62v561h88v-575c0 -101 -24 -130 -117 -130h-48c-93 0 -117 29 -117 130v161h83z" />
    <glyph glyph-name="ij" unicode="&#x133;" horiz-adv-x="305" 
d="M116 552v-552h-80v552h80zM36 619v81h80v-81h-80zM188 552h80v-563c0 -90 -20 -116 -103 -116h-23v61h6c32 0 40 5 40 51v567zM188 619v81h80v-81h-80z" />
    <glyph glyph-name="Jcircumflex" unicode="&#x134;" horiz-adv-x="334" 
d="M97 286v-147c0 -47 4 -62 45 -62h21c41 0 45 15 45 62v561h88v-575c0 -101 -24 -130 -117 -130h-48c-93 0 -117 29 -117 130v161h83zM282 836l65 -115h-51l-43 65l-43 -65h-51l64 115h59z" />
    <glyph glyph-name="jcircumflex" unicode="&#x135;" horiz-adv-x="152" 
d="M36 552h80v-563c0 -90 -20 -116 -103 -116h-23v61h6c32 0 40 5 40 51v567zM106 695l65 -115h-51l-43 65l-43 -65h-51l64 115h59z" />
    <glyph glyph-name="uni0136" unicode="&#x136;" horiz-adv-x="357" 
d="M40 0v700h88v-313c7 20 12 33 19 49l115 264h87l-148 -329l153 -371h-92l-115 280c-7 17 -13 35 -19 56v-336h-88zM153 -128v75h71v-75l-61 -66l-5 4l39 62h-44z" />
    <glyph glyph-name="uni0137" unicode="&#x137;" horiz-adv-x="317" 
d="M116 260v-260h-80v700h80v-392c10 23 20 45 30 68l81 176h78l-125 -261l131 -291h-83l-87 195c-12 27 -19 44 -25 65zM132 -128v75h71v-75l-61 -66l-5 4l39 62h-44z" />
    <glyph glyph-name="kgreenlandic" unicode="&#x138;" horiz-adv-x="317" 
d="M116 260v-260h-80v552h80v-244c10 23 20 45 30 68l81 176h78l-125 -261l131 -291h-83l-87 195c-12 27 -19 44 -25 65z" />
    <glyph glyph-name="Lacute" unicode="&#x139;" horiz-adv-x="249" 
d="M40 0v700h88v-618h115v-82h-203zM67 721l51 115h73l-73 -115h-51z" />
    <glyph glyph-name="lacute" unicode="&#x13a;" horiz-adv-x="152" 
d="M116 0h-80v700h80v-700zM37 721l51 115h73l-73 -115h-51z" />
    <glyph glyph-name="uni013B" unicode="&#x13b;" horiz-adv-x="249" 
d="M40 0v700h88v-618h115v-82h-203zM105 -128v75h71v-75l-61 -66l-5 4l39 62h-44z" />
    <glyph glyph-name="uni013C" unicode="&#x13c;" horiz-adv-x="152" 
d="M116 0h-80v700h80v-700zM41 -128v75h71v-75l-61 -66l-5 4l39 62h-44z" />
    <glyph glyph-name="Lcaron" unicode="&#x13d;" horiz-adv-x="285" 
d="M183 588v112h85v-112l-72 -80l-6 4l46 76h-53zM40 0v700h88v-618h115v-82h-203z" />
    <glyph glyph-name="lcaron" unicode="&#x13e;" horiz-adv-x="246" 
d="M164 596v104h78v-104l-66 -76l-6 5l43 71h-49zM116 0h-80v700h80v-700z" />
    <glyph glyph-name="Ldot" unicode="&#x13f;" horiz-adv-x="285" 
d="M183 310v112h85v-112h-85zM40 0v700h88v-618h115v-82h-203z" />
    <glyph glyph-name="ldot" unicode="&#x140;" horiz-adv-x="246" 
d="M164 298v104h78v-104h-78zM116 0h-80v700h80v-700z" />
    <glyph glyph-name="Lslash" unicode="&#x141;" horiz-adv-x="249" 
d="M40 0v229l-26 -26v85l26 26v386h88v-298l57 57v-85l-57 -57v-235h115v-82h-203z" />
    <glyph glyph-name="lslash" unicode="&#x142;" horiz-adv-x="161" 
d="M120 0h-80v248l-41 -41v85l41 41v367h80v-287l42 42v-85l-42 -42v-328z" />
    <glyph glyph-name="Nacute" unicode="&#x143;" horiz-adv-x="367" 
d="M229 0l-94 405c-10 44 -16 85 -22 126c1 -41 2 -82 2 -128v-403h-76v700h111l83 -374c10 -44 17 -85 23 -126c-1 41 -4 82 -4 127v373h77v-700h-100zM145 721l51 115h73l-73 -115h-51z" />
    <glyph glyph-name="nacute" unicode="&#x144;" horiz-adv-x="328" 
d="M294 0h-80v431c0 39 -4 53 -38 53h-15c-33 0 -45 -24 -45 -66v-418h-80v552h75v-63c9 42 32 68 84 68h20c61 0 79 -25 79 -95v-462zM125 580l51 115h73l-73 -115h-51z" />
    <glyph glyph-name="uni0145" unicode="&#x145;" horiz-adv-x="367" 
d="M229 0l-94 405c-10 44 -16 85 -22 126c1 -41 2 -82 2 -128v-403h-76v700h111l83 -374c10 -44 17 -85 23 -126c-1 41 -4 82 -4 127v373h77v-700h-100zM149 -128v75h71v-75l-61 -66l-5 4l39 62h-44z" />
    <glyph glyph-name="uni0146" unicode="&#x146;" horiz-adv-x="328" 
d="M294 0h-80v431c0 39 -4 53 -38 53h-15c-33 0 -45 -24 -45 -66v-418h-80v552h75v-63c9 42 32 68 84 68h20c61 0 79 -25 79 -95v-462zM129 -128v75h71v-75l-61 -66l-5 4l39 62h-44z" />
    <glyph glyph-name="Ncaron" unicode="&#x147;" horiz-adv-x="367" 
d="M229 0l-94 405c-10 44 -16 85 -22 126c1 -41 2 -82 2 -128v-403h-76v700h111l83 -374c10 -44 17 -85 23 -126c-1 41 -4 82 -4 127v373h77v-700h-100zM278 836l-65 -115h-59l-64 115h51l43 -65l43 65h51z" />
    <glyph glyph-name="ncaron" unicode="&#x148;" horiz-adv-x="328" 
d="M294 0h-80v431c0 39 -4 53 -38 53h-15c-33 0 -45 -24 -45 -66v-418h-80v552h75v-63c9 42 32 68 84 68h20c61 0 79 -25 79 -95v-462zM259 695l-65 -115h-59l-64 115h51l43 -65l43 65h51z" />
    <glyph glyph-name="napostrophe" unicode="&#x149;" horiz-adv-x="369" 
d="M36 625v75h72v-75l-61 -67l-5 4l39 63h-45zM335 0h-80v431c0 39 -4 53 -38 53h-15c-33 0 -45 -24 -45 -66v-418h-80v552h75v-63c9 42 32 68 84 68h20c61 0 79 -25 79 -95v-462z" />
    <glyph glyph-name="Omacron" unicode="&#x14c;" horiz-adv-x="355" 
d="M34 125v450c0 101 25 130 117 130h53c92 0 117 -29 117 -130v-450c0 -101 -25 -130 -117 -130h-53c-92 0 -117 29 -117 130zM233 139v422c0 47 -4 62 -45 62h-21c-41 0 -45 -15 -45 -62v-422c0 -47 4 -62 45 -62h21c41 0 45 15 45 62zM271 744h-187v51h187v-51z" />
    <glyph glyph-name="omacron" unicode="&#x14d;" horiz-adv-x="320" 
d="M289 441v-330c0 -90 -22 -116 -104 -116h-49c-83 0 -105 26 -105 116v330c0 90 22 116 105 116h49c82 0 104 -26 104 -116zM111 429v-306c0 -41 4 -55 40 -55h18c36 0 40 14 40 55v306c0 41 -4 55 -40 55h-18c-36 0 -40 -14 -40 -55zM253 603h-187v51h187v-51z" />
    <glyph glyph-name="Obreve" unicode="&#x14e;" horiz-adv-x="355" 
d="M34 125v450c0 101 25 130 117 130h53c92 0 117 -29 117 -130v-450c0 -101 -25 -130 -117 -130h-53c-92 0 -117 29 -117 130zM233 139v422c0 47 -4 62 -45 62h-21c-41 0 -45 -15 -45 -62v-422c0 -47 4 -62 45 -62h21c41 0 45 15 45 62zM177 776c36 0 48 15 48 53h44
c0 -59 -13 -102 -92 -102c-80 0 -93 43 -93 102h44c0 -38 13 -53 49 -53z" />
    <glyph glyph-name="obreve" unicode="&#x14f;" horiz-adv-x="320" 
d="M289 441v-330c0 -90 -22 -116 -104 -116h-49c-83 0 -105 26 -105 116v330c0 90 22 116 105 116h49c82 0 104 -26 104 -116zM111 429v-306c0 -41 4 -55 40 -55h18c36 0 40 14 40 55v306c0 41 -4 55 -40 55h-18c-36 0 -40 -14 -40 -55zM160 635c36 0 48 15 48 53h44
c0 -59 -13 -102 -92 -102c-80 0 -93 43 -93 102h44c0 -38 13 -53 49 -53z" />
    <glyph glyph-name="Ohungarumlaut" unicode="&#x150;" horiz-adv-x="355" 
d="M34 125v450c0 101 25 130 117 130h53c92 0 117 -29 117 -130v-450c0 -101 -25 -130 -117 -130h-53c-92 0 -117 29 -117 130zM233 139v422c0 47 -4 62 -45 62h-21c-41 0 -45 -15 -45 -62v-422c0 -47 4 -62 45 -62h21c41 0 45 15 45 62zM86 721l50 115h74l-73 -115h-51z
M191 721l50 115h74l-73 -115h-51z" />
    <glyph glyph-name="ohungarumlaut" unicode="&#x151;" horiz-adv-x="320" 
d="M289 441v-330c0 -90 -22 -116 -104 -116h-49c-83 0 -105 26 -105 116v330c0 90 22 116 105 116h49c82 0 104 -26 104 -116zM111 429v-306c0 -41 4 -55 40 -55h18c36 0 40 14 40 55v306c0 41 -4 55 -40 55h-18c-36 0 -40 -14 -40 -55zM69 580l50 115h74l-73 -115h-51z
M174 580l50 115h74l-73 -115h-51z" />
    <glyph glyph-name="OE" unicode="&#x152;" horiz-adv-x="461" 
d="M309 618v-211h110v-82h-110v-243h131v-82h-288c-93 0 -118 29 -118 130v440c0 101 25 130 118 130h288v-82h-131zM167 82h54v536h-54c-41 0 -45 -15 -45 -62v-412c0 -47 4 -62 45 -62z" />
    <glyph glyph-name="oe" unicode="&#x153;" horiz-adv-x="492" 
d="M386 123v65h75v-77c0 -90 -21 -116 -103 -116h-17c-57 0 -82 13 -93 51c-9 -38 -35 -51 -91 -51h-21c-83 0 -105 26 -105 116v330c0 90 22 116 105 116h21c56 0 82 -13 91 -51c11 38 36 51 93 51h16c83 0 104 -26 104 -116v-189h-172v-129c0 -41 4 -55 40 -55h18
c35 0 39 14 39 55zM111 429v-306c0 -41 4 -55 40 -55h18c36 0 40 14 40 55v306c0 41 -4 55 -40 55h-18c-36 0 -40 -14 -40 -55zM289 429v-107h97v107c0 40 -4 55 -39 55h-18c-36 0 -40 -14 -40 -55z" />
    <glyph glyph-name="Racute" unicode="&#x154;" horiz-adv-x="359" 
d="M325 231v-108c0 -45 4 -88 15 -123h-92c-10 23 -11 65 -11 109v134c0 48 -8 70 -52 70h-59v-313h-88v700h170c93 0 117 -29 117 -130v-95c0 -73 -13 -108 -56 -121c43 -14 56 -49 56 -123zM237 457v99c0 47 -3 62 -45 62h-66v-223h66c41 0 45 15 45 62zM138 721l51 115
h73l-73 -115h-51z" />
    <glyph glyph-name="racute" unicode="&#x155;" horiz-adv-x="197" 
d="M116 0h-80v552h75v-74c9 49 31 79 73 79h7v-85h-8c-48 0 -67 -30 -67 -104v-368zM62 580l51 115h73l-73 -115h-51z" />
    <glyph glyph-name="uni0156" unicode="&#x156;" horiz-adv-x="359" 
d="M325 231v-108c0 -45 4 -88 15 -123h-92c-10 23 -11 65 -11 109v134c0 48 -8 70 -52 70h-59v-313h-88v700h170c93 0 117 -29 117 -130v-95c0 -73 -13 -108 -56 -121c43 -14 56 -49 56 -123zM237 457v99c0 47 -3 62 -45 62h-66v-223h66c41 0 45 15 45 62zM146 -128v75h71
v-75l-61 -66l-5 4l39 62h-44z" />
    <glyph glyph-name="uni0157" unicode="&#x157;" horiz-adv-x="197" 
d="M116 0h-80v552h75v-74c9 49 31 79 73 79h7v-85h-8c-48 0 -67 -30 -67 -104v-368zM41 -128v75h71v-75l-61 -66l-5 4l39 62h-44z" />
    <glyph glyph-name="Rcaron" unicode="&#x158;" horiz-adv-x="359" 
d="M325 231v-108c0 -45 4 -88 15 -123h-92c-10 23 -11 65 -11 109v134c0 48 -8 70 -52 70h-59v-313h-88v700h170c93 0 117 -29 117 -130v-95c0 -73 -13 -108 -56 -121c43 -14 56 -49 56 -123zM237 457v99c0 47 -3 62 -45 62h-66v-223h66c41 0 45 15 45 62zM271 836l-65 -115
h-59l-64 115h51l43 -65l43 65h51z" />
    <glyph glyph-name="rcaron" unicode="&#x159;" horiz-adv-x="197" 
d="M116 0h-80v552h75v-74c9 49 31 79 73 79h7v-85h-8c-48 0 -67 -30 -67 -104v-368zM195 695l-65 -115h-59l-64 115h51l43 -65l43 65h51z" />
    <glyph glyph-name="Sacute" unicode="&#x15a;" 
d="M215 139v49c0 63 -15 82 -85 145c-81 73 -102 104 -102 196v46c0 101 24 130 117 130h41c93 0 117 -29 117 -130v-109h-83v95c0 47 -3 62 -45 62h-15c-41 0 -45 -15 -45 -60v-33c0 -63 15 -83 85 -146c81 -73 103 -103 103 -195v-64c0 -101 -25 -130 -117 -130h-42
c-92 0 -116 29 -116 130v129h82v-115c0 -47 3 -62 45 -62h15c41 0 45 15 45 62zM126 721l51 115h73l-73 -115h-51z" />
    <glyph glyph-name="sacute" unicode="&#x15b;" horiz-adv-x="308" 
d="M200 123v25c0 47 -13 61 -78 106c-77 53 -94 84 -94 155v32c0 90 21 116 104 116h44c82 0 104 -26 104 -116v-75h-75v63c0 41 -4 55 -40 55h-18c-35 0 -39 -14 -39 -55v-15c0 -47 13 -61 78 -106c77 -53 94 -84 94 -155v-42c0 -90 -22 -116 -104 -116h-44
c-83 0 -104 26 -104 116v85h75v-73c0 -41 3 -55 40 -55h17c37 0 40 14 40 55zM114 580l51 115h73l-73 -115h-51z" />
    <glyph glyph-name="Scircumflex" unicode="&#x15c;" 
d="M215 139v49c0 63 -15 82 -85 145c-81 73 -102 104 -102 196v46c0 101 24 130 117 130h41c93 0 117 -29 117 -130v-109h-83v95c0 47 -3 62 -45 62h-15c-41 0 -45 -15 -45 -60v-33c0 -63 15 -83 85 -146c81 -73 103 -103 103 -195v-64c0 -101 -25 -130 -117 -130h-42
c-92 0 -116 29 -116 130v129h82v-115c0 -47 3 -62 45 -62h15c41 0 45 15 45 62zM194 836l65 -115h-51l-43 65l-43 -65h-51l64 115h59z" />
    <glyph glyph-name="scircumflex" unicode="&#x15d;" horiz-adv-x="308" 
d="M200 123v25c0 47 -13 61 -78 106c-77 53 -94 84 -94 155v32c0 90 21 116 104 116h44c82 0 104 -26 104 -116v-75h-75v63c0 41 -4 55 -40 55h-18c-35 0 -39 -14 -39 -55v-15c0 -47 13 -61 78 -106c77 -53 94 -84 94 -155v-42c0 -90 -22 -116 -104 -116h-44
c-83 0 -104 26 -104 116v85h75v-73c0 -41 3 -55 40 -55h17c37 0 40 14 40 55zM183 695l65 -115h-51l-43 65l-43 -65h-51l64 115h59z" />
    <glyph glyph-name="Scedilla" unicode="&#x15e;" 
d="M187 -82c0 21 -7 33 -45 31v46c-91 1 -114 29 -114 130v129h82v-115c0 -47 3 -62 45 -62h15c41 0 45 15 45 62v49c0 63 -15 82 -85 145c-81 73 -102 104 -102 196v46c0 101 24 130 117 130h41c93 0 117 -29 117 -130v-109h-83v95c0 47 -3 62 -45 62h-15
c-41 0 -45 -15 -45 -60v-33c0 -63 15 -83 85 -146c81 -73 103 -103 103 -195v-64c0 -101 -25 -130 -117 -130h-16v-27c49 0 69 -13 69 -46c0 -28 -5 -54 -77 -54c-65 0 -72 19 -72 55h46c-1 -22 1 -32 25 -32c22 0 26 8 26 27z" />
    <glyph glyph-name="scedilla" unicode="&#x15f;" horiz-adv-x="308" 
d="M176 -82c0 21 -7 33 -45 31v46c-82 0 -103 26 -103 116v85h75v-73c0 -41 3 -55 40 -55h17c37 0 40 14 40 55v25c0 47 -13 61 -78 106c-77 53 -94 84 -94 155v32c0 90 21 116 104 116h44c82 0 104 -26 104 -116v-75h-75v63c0 41 -4 55 -40 55h-18c-35 0 -39 -14 -39 -55
v-15c0 -47 13 -61 78 -106c77 -53 94 -84 94 -155v-42c0 -90 -22 -116 -104 -116h-17v-27c49 0 69 -13 69 -46c0 -28 -5 -54 -77 -54c-65 0 -72 19 -72 55h46c-1 -22 1 -32 25 -32c22 0 26 8 26 27z" />
    <glyph glyph-name="Scaron" unicode="&#x160;" 
d="M215 139v49c0 63 -15 82 -85 145c-81 73 -102 104 -102 196v46c0 101 24 130 117 130h41c93 0 117 -29 117 -130v-109h-83v95c0 47 -3 62 -45 62h-15c-41 0 -45 -15 -45 -60v-33c0 -63 15 -83 85 -146c81 -73 103 -103 103 -195v-64c0 -101 -25 -130 -117 -130h-42
c-92 0 -116 29 -116 130v129h82v-115c0 -47 3 -62 45 -62h15c41 0 45 15 45 62zM259 836l-65 -115h-59l-64 115h51l43 -65l43 65h51z" />
    <glyph glyph-name="scaron" unicode="&#x161;" horiz-adv-x="308" 
d="M200 123v25c0 47 -13 61 -78 106c-77 53 -94 84 -94 155v32c0 90 21 116 104 116h44c82 0 104 -26 104 -116v-75h-75v63c0 41 -4 55 -40 55h-18c-35 0 -39 -14 -39 -55v-15c0 -47 13 -61 78 -106c77 -53 94 -84 94 -155v-42c0 -90 -22 -116 -104 -116h-44
c-83 0 -104 26 -104 116v85h75v-73c0 -41 3 -55 40 -55h17c37 0 40 14 40 55zM248 695l-65 -115h-59l-64 115h51l43 -65l43 65h51z" />
    <glyph glyph-name="uni0162" unicode="&#x162;" horiz-adv-x="249" 
d="M148 -82c0 21 -7 33 -45 31v51h-22v618h-77v82h241v-82h-76v-618h-38v-32c49 0 69 -13 69 -46c0 -28 -5 -54 -77 -54c-65 0 -72 19 -72 55h46c-1 -22 1 -32 25 -32c22 0 26 8 26 27z" />
    <glyph glyph-name="uni0163" unicode="&#x163;" horiz-adv-x="183" 
d="M115 -82c0 21 -7 33 -45 31v51h-13c-10 23 -12 66 -12 112v373h-39v67h39v120h80v-120h53v-67h-53v-359c0 -47 3 -89 17 -126h-44v-32c49 0 69 -13 69 -46c0 -28 -5 -54 -77 -54c-65 0 -72 19 -72 55h46c-1 -22 1 -32 25 -32c22 0 26 8 26 27z" />
    <glyph glyph-name="Tcaron" unicode="&#x164;" horiz-adv-x="249" 
d="M169 0h-88v618h-77v82h241v-82h-76v-618zM219 836l-65 -115h-59l-64 115h51l43 -65l43 65h51z" />
    <glyph glyph-name="tcaron" unicode="&#x165;" horiz-adv-x="266" 
d="M184 596v104h77v-104l-65 -76l-6 5l42 71h-48zM6 485v67h39v120h80v-120h53v-67h-53v-359c0 -47 3 -89 17 -126h-85c-10 23 -12 66 -12 112v373h-39z" />
    <glyph glyph-name="Tbar" unicode="&#x166;" horiz-adv-x="249" 
d="M169 0h-88v470h-50v66h50v82h-77v82h241v-82h-76v-82h49v-66h-49v-470z" />
    <glyph glyph-name="tbar" unicode="&#x167;" horiz-adv-x="183" 
d="M6 485v67h39v120h80v-120h53v-67h-53v-83h53v-56h-53v-220c0 -47 3 -89 17 -126h-85c-10 23 -12 66 -12 112v234h-39v56h39v83h-39z" />
    <glyph glyph-name="Utilde" unicode="&#x168;" horiz-adv-x="356" 
d="M126 700v-561c0 -47 3 -62 45 -62h21c41 0 45 15 45 62v561h82v-575c0 -101 -23 -130 -116 -130h-48c-93 0 -117 29 -117 130v575h88zM236 814h39c0 -58 -17 -78 -57 -78s-57 27 -80 27c-14 0 -18 -9 -18 -28h-39c0 58 17 78 57 78s57 -27 80 -27c14 0 18 10 18 28z" />
    <glyph glyph-name="utilde" unicode="&#x169;" horiz-adv-x="328" 
d="M292 93c0 -32 0 -60 8 -93h-76c-5 11 -7 30 -8 59c-9 -40 -33 -64 -83 -64h-20c-61 0 -78 25 -78 95v462h79v-431c0 -39 4 -53 38 -53h15c33 0 45 24 45 66v418h80v-459zM222 673h39c0 -58 -17 -78 -57 -78s-57 27 -80 27c-14 0 -18 -9 -18 -28h-39c0 58 17 78 57 78
s57 -27 80 -27c14 0 18 10 18 28z" />
    <glyph glyph-name="Umacron" unicode="&#x16a;" horiz-adv-x="356" 
d="M126 700v-561c0 -47 3 -62 45 -62h21c41 0 45 15 45 62v561h82v-575c0 -101 -23 -130 -116 -130h-48c-93 0 -117 29 -117 130v575h88zM271 744h-187v51h187v-51z" />
    <glyph glyph-name="umacron" unicode="&#x16b;" horiz-adv-x="328" 
d="M292 93c0 -32 0 -60 8 -93h-76c-5 11 -7 30 -8 59c-9 -40 -33 -64 -83 -64h-20c-61 0 -78 25 -78 95v462h79v-431c0 -39 4 -53 38 -53h15c33 0 45 24 45 66v418h80v-459zM257 603h-187v51h187v-51z" />
    <glyph glyph-name="Ubreve" unicode="&#x16c;" horiz-adv-x="356" 
d="M126 700v-561c0 -47 3 -62 45 -62h21c41 0 45 15 45 62v561h82v-575c0 -101 -23 -130 -116 -130h-48c-93 0 -117 29 -117 130v575h88zM178 776c36 0 48 15 48 53h44c0 -59 -13 -102 -92 -102c-80 0 -93 43 -93 102h44c0 -38 13 -53 49 -53z" />
    <glyph glyph-name="ubreve" unicode="&#x16d;" horiz-adv-x="328" 
d="M292 93c0 -32 0 -60 8 -93h-76c-5 11 -7 30 -8 59c-9 -40 -33 -64 -83 -64h-20c-61 0 -78 25 -78 95v462h79v-431c0 -39 4 -53 38 -53h15c33 0 45 24 45 66v418h80v-459zM164 635c36 0 48 15 48 53h44c0 -59 -13 -102 -92 -102c-80 0 -93 43 -93 102h44
c0 -38 13 -53 49 -53z" />
    <glyph glyph-name="Uring" unicode="&#x16e;" horiz-adv-x="356" 
d="M126 700v-561c0 -47 3 -62 45 -62h21c41 0 45 15 45 62v561h82v-575c0 -101 -23 -130 -116 -130h-48c-93 0 -117 29 -117 130v575h88zM204 785c0 14 -11 25 -26 25c-14 0 -26 -11 -26 -25c0 -15 12 -26 26 -26c15 0 26 11 26 26zM117 785c0 35 27 59 61 59
c35 0 62 -24 62 -59s-27 -60 -62 -60c-34 0 -61 25 -61 60z" />
    <glyph glyph-name="uring" unicode="&#x16f;" horiz-adv-x="328" 
d="M292 93c0 -32 0 -60 8 -93h-76c-5 11 -7 30 -8 59c-9 -40 -33 -64 -83 -64h-20c-61 0 -78 25 -78 95v462h79v-431c0 -39 4 -53 38 -53h15c33 0 45 24 45 66v418h80v-459zM190 644c0 14 -11 25 -26 25c-14 0 -26 -11 -26 -25c0 -15 12 -26 26 -26c15 0 26 11 26 26z
M103 644c0 35 27 59 61 59c35 0 62 -24 62 -59s-27 -60 -62 -60c-34 0 -61 25 -61 60z" />
    <glyph glyph-name="Uhungarumlaut" unicode="&#x170;" horiz-adv-x="356" 
d="M126 700v-561c0 -47 3 -62 45 -62h21c41 0 45 15 45 62v561h82v-575c0 -101 -23 -130 -116 -130h-48c-93 0 -117 29 -117 130v575h88zM87 721l50 115h74l-73 -115h-51zM192 721l50 115h74l-73 -115h-51z" />
    <glyph glyph-name="uhungarumlaut" unicode="&#x171;" horiz-adv-x="328" 
d="M292 93c0 -32 0 -60 8 -93h-76c-5 11 -7 30 -8 59c-9 -40 -33 -64 -83 -64h-20c-61 0 -78 25 -78 95v462h79v-431c0 -39 4 -53 38 -53h15c33 0 45 24 45 66v418h80v-459zM72 580l50 115h74l-73 -115h-51zM177 580l50 115h74l-73 -115h-51z" />
    <glyph glyph-name="Uogonek" unicode="&#x172;" horiz-adv-x="356" 
d="M320 -88v-37c-15 -4 -35 -7 -53 -7c-61 0 -78 16 -78 52c0 35 21 57 52 77c-11 -1 -24 -2 -38 -2h-48c-93 0 -117 29 -117 130v575h88v-561c0 -47 3 -62 45 -62h21c41 0 45 15 45 62v561h82v-575c0 -60 -8 -95 -35 -113c-34 -33 -39 -52 -39 -77c0 -20 12 -29 40 -29
c9 0 23 1 35 6z" />
    <glyph glyph-name="uogonek" unicode="&#x173;" horiz-adv-x="328" 
d="M300 -88v-37c-15 -4 -35 -7 -53 -7c-61 0 -78 16 -78 52c0 39 35 58 70 80h-15c-5 11 -7 30 -8 59c-9 -40 -33 -64 -83 -64h-20c-61 0 -78 25 -78 95v462h79v-431c0 -39 4 -53 38 -53h15c33 0 45 24 45 66v418h80v-459c0 -32 0 -60 8 -93h-33c-29 -25 -42 -41 -42 -64
c0 -20 12 -30 40 -30c9 0 23 1 35 6z" />
    <glyph glyph-name="Wcircumflex" unicode="&#x174;" horiz-adv-x="507" 
d="M245 317l-34 -317h-114l-85 700h89l37 -332c10 -87 19 -168 21 -226c2 58 9 139 19 226l36 332h90l36 -332c10 -87 17 -168 19 -226c2 58 11 139 21 226l37 332h79l-85 -700h-108l-35 317c-7 59 -9 121 -11 185c-3 -64 -6 -126 -12 -185zM283 836l65 -115h-51l-43 65
l-43 -65h-51l64 115h59z" />
    <glyph glyph-name="wcircumflex" unicode="&#x175;" horiz-adv-x="467" 
d="M215 185l-23 -185h-110l-76 552h82l27 -198c14 -100 21 -193 25 -263c5 70 15 163 29 262l29 199h82l29 -199c14 -99 23 -192 27 -262c5 70 11 163 25 263l27 198h72l-75 -552h-107l-23 185c-7 59 -17 138 -21 193c-3 -55 -12 -134 -19 -193zM262 695l65 -115h-51l-43 65
l-43 -65h-51l64 115h59z" />
    <glyph glyph-name="Ycircumflex" unicode="&#x176;" horiz-adv-x="317" 
d="M203 0h-88v236l-110 464h89l37 -165c11 -49 27 -127 33 -192c7 65 22 143 33 192l37 165h78l-109 -464v-236zM191 836l65 -115h-51l-43 65l-43 -65h-51l64 115h59z" />
    <glyph glyph-name="ycircumflex" unicode="&#x177;" horiz-adv-x="296" 
d="M189 -49c-8 -50 -35 -78 -93 -78h-73v61h41c23 0 32 10 33 29l2 31l-93 558h82l34 -209c14 -86 26 -188 30 -257c5 69 17 172 31 257l35 209h72zM180 695l65 -115h-51l-43 65l-43 -65h-51l64 115h59z" />
    <glyph glyph-name="Ydieresis" unicode="&#x178;" horiz-adv-x="317" 
d="M203 0h-88v236l-110 464h89l37 -165c11 -49 27 -127 33 -192c7 65 22 143 33 192l37 165h78l-109 -464v-236zM254 741h-72v76h72v-76zM139 741h-71v76h71v-76z" />
    <glyph glyph-name="Zacute" unicode="&#x179;" horiz-adv-x="278" 
d="M25 618v82h235v-76l-151 -542h151v-82h-243v76l151 542h-143zM102 721l51 115h73l-73 -115h-51z" />
    <glyph glyph-name="zacute" unicode="&#x17a;" horiz-adv-x="263" 
d="M29 485v67h217v-61l-142 -424h142v-67h-228v61l142 424h-131zM96 580l51 115h73l-73 -115h-51z" />
    <glyph glyph-name="Zdotaccent" unicode="&#x17b;" horiz-adv-x="278" 
d="M25 618v82h235v-76l-151 -542h151v-82h-243v76l151 542h-143zM177 741h-72v76h72v-76z" />
    <glyph glyph-name="zdotaccent" unicode="&#x17c;" horiz-adv-x="263" 
d="M29 485v67h217v-61l-142 -424h142v-67h-228v61l142 424h-131zM171 600h-72v76h72v-76z" />
    <glyph glyph-name="Zcaron" unicode="&#x17d;" horiz-adv-x="278" 
d="M25 618v82h235v-76l-151 -542h151v-82h-243v76l151 542h-143zM236 836l-65 -115h-59l-64 115h51l43 -65l43 65h51z" />
    <glyph glyph-name="zcaron" unicode="&#x17e;" horiz-adv-x="263" 
d="M29 485v67h217v-61l-142 -424h142v-67h-228v61l142 424h-131zM230 695l-65 -115h-59l-64 115h51l43 -65l43 65h51z" />
    <glyph glyph-name="florin" unicode="&#x192;" 
d="M79 470l6 67h38l4 47c9 90 32 116 114 116h42l-6 -64h-25c-32 0 -42 -7 -46 -54l-5 -45h68l-6 -67h-66l-51 -597h-80l51 597h-38z" />
    <glyph glyph-name="AEacute" unicode="&#x1fc;" horiz-adv-x="442" 
d="M7 0l157 700h258v-82h-131v-211h109v-82h-109v-243h131v-82h-219v107h-94l-23 -107h-79zM149 297l-22 -108h76v404c-13 -82 -34 -200 -54 -296zM182 721l51 115h73l-73 -115h-51z" />
    <glyph glyph-name="aeacute" unicode="&#x1fd;" horiz-adv-x="489" 
d="M115 316c83 34 91 39 91 104v9c0 41 -4 55 -40 55h-17c-35 0 -40 -14 -40 -55v-63h-74v75c0 90 21 116 103 116h17c55 0 80 -12 90 -48c11 36 36 48 92 48h17c83 0 104 -26 104 -116v-189h-172v-129c0 -41 4 -55 40 -55h18c35 0 39 14 39 55v65h75v-77
c0 -90 -21 -116 -104 -116h-44c-64 0 -91 15 -100 63c-10 -39 -34 -63 -83 -63h-20c-61 0 -79 25 -79 95v90c0 71 14 106 87 136zM383 322v107c0 41 -4 55 -39 55h-18c-36 0 -40 -14 -40 -55v-107h97zM206 134v153c-12 -7 -26 -14 -43 -21c-49 -21 -55 -39 -55 -88v-57
c0 -39 4 -53 38 -53h15c33 0 45 24 45 66zM205 580l51 115h73l-73 -115h-51z" />
    <glyph glyph-name="Oslashacute" unicode="&#x1fe;" horiz-adv-x="355" 
d="M138 721l51 115h73l-73 -115h-51zM34 125v450c0 101 25 130 117 130h53c13 0 25 -1 36 -2l8 27h73l-18 -61c13 -20 18 -51 18 -94v-450c0 -101 -25 -130 -117 -130h-53c-14 0 -26 1 -37 2l-8 -27h-72l17 61c-13 20 -17 50 -17 94zM122 561v-314l97 369c-6 5 -17 7 -31 7
h-21c-41 0 -45 -15 -45 -62zM233 139v313l-98 -369c7 -4 17 -6 32 -6h21c41 0 45 15 45 62z" />
    <glyph glyph-name="oslashacute" unicode="&#x1ff;" horiz-adv-x="320" 
d="M121 580l51 115h73l-73 -115h-51zM289 441v-330c0 -90 -22 -116 -104 -116h-49c-11 0 -21 1 -30 2l-9 -27h-66l17 54c-13 18 -17 46 -17 87v330c0 90 22 116 105 116h49c10 0 19 -1 28 -2l10 32h66l-19 -58c14 -18 19 -46 19 -88zM169 68c36 0 40 14 40 55v237l-83 -288
c6 -3 14 -4 25 -4h18zM111 429v-236l81 287c-5 3 -13 4 -23 4h-18c-36 0 -40 -14 -40 -55z" />
    <glyph glyph-name="uni0218" unicode="&#x218;" 
d="M215 139v49c0 63 -15 82 -85 145c-81 73 -102 104 -102 196v46c0 101 24 130 117 130h41c93 0 117 -29 117 -130v-109h-83v95c0 47 -3 62 -45 62h-15c-41 0 -45 -15 -45 -60v-33c0 -63 15 -83 85 -146c81 -73 103 -103 103 -195v-64c0 -101 -25 -130 -117 -130h-42
c-92 0 -116 29 -116 130v129h82v-115c0 -47 3 -62 45 -62h15c41 0 45 15 45 62zM129 -128v75h71v-75l-61 -66l-5 4l39 62h-44z" />
    <glyph glyph-name="uni0219" unicode="&#x219;" horiz-adv-x="308" 
d="M200 123v25c0 47 -13 61 -78 106c-77 53 -94 84 -94 155v32c0 90 21 116 104 116h44c82 0 104 -26 104 -116v-75h-75v63c0 41 -4 55 -40 55h-18c-35 0 -39 -14 -39 -55v-15c0 -47 13 -61 78 -106c77 -53 94 -84 94 -155v-42c0 -90 -22 -116 -104 -116h-44
c-83 0 -104 26 -104 116v85h75v-73c0 -41 3 -55 40 -55h17c37 0 40 14 40 55zM118 -128v75h71v-75l-61 -66l-5 4l39 62h-44z" />
    <glyph glyph-name="uni021A" unicode="&#x21a;" horiz-adv-x="249" 
d="M169 0h-88v618h-77v82h241v-82h-76v-618zM89 -128v75h71v-75l-61 -66l-5 4l39 62h-44z" />
    <glyph glyph-name="uni021B" unicode="&#x21b;" horiz-adv-x="183" 
d="M6 485v67h39v120h80v-120h53v-67h-53v-359c0 -47 3 -89 17 -126h-85c-10 23 -12 66 -12 112v373h-39zM54 -128v75h71v-75l-61 -66l-5 4l39 62h-44z" />
    <glyph glyph-name="uni0237" unicode="&#x237;" horiz-adv-x="152" 
d="M36 552h80v-563c0 -90 -20 -116 -103 -116h-23v61h6c32 0 40 5 40 51v567z" />
    <glyph glyph-name="circumflex" unicode="&#x2c6;" horiz-adv-x="165" 
d="M112 695l65 -115h-51l-43 65l-43 -65h-51l64 115h59z" />
    <glyph glyph-name="caron" unicode="&#x2c7;" horiz-adv-x="165" 
d="M177 695l-65 -115h-59l-64 115h51l43 -65l43 65h51z" />
    <glyph glyph-name="breve" unicode="&#x2d8;" horiz-adv-x="165" 
d="M83 635c36 0 48 15 48 53h44c0 -59 -13 -102 -92 -102c-80 0 -93 43 -93 102h44c0 -38 13 -53 49 -53z" />
    <glyph glyph-name="dotaccent" unicode="&#x2d9;" horiz-adv-x="165" 
d="M118 600h-72v76h72v-76z" />
    <glyph glyph-name="ring" unicode="&#x2da;" horiz-adv-x="165" 
d="M108 644c0 14 -11 25 -26 25c-14 0 -26 -11 -26 -25c0 -15 12 -26 26 -26c15 0 26 11 26 26zM21 644c0 35 27 59 61 59c35 0 62 -24 62 -59s-27 -60 -62 -60c-34 0 -61 25 -61 60z" />
    <glyph glyph-name="ogonek" unicode="&#x2db;" horiz-adv-x="165" 
d="M148 -88v-37c-15 -4 -35 -7 -53 -7c-60 0 -78 16 -78 52c0 42 47 62 95 86h28c-49 -30 -67 -46 -67 -71c0 -20 12 -29 40 -29c9 0 23 1 35 6z" />
    <glyph glyph-name="tilde" unicode="&#x2dc;" horiz-adv-x="165" 
d="M141 673h39c0 -58 -17 -78 -57 -78s-57 27 -80 27c-14 0 -18 -9 -18 -28h-39c0 58 17 78 57 78s57 -27 80 -27c14 0 18 10 18 28z" />
    <glyph glyph-name="hungarumlaut" unicode="&#x2dd;" horiz-adv-x="165" 
d="M-23 580l50 115h74l-73 -115h-51zM82 580l50 115h74l-73 -115h-51z" />
    <glyph glyph-name="commaaccent" horiz-adv-x="165" 
d="M47 -128v75h71v-75l-61 -66l-5 4l39 62h-44z" />
    <glyph glyph-name="pi" unicode="&#x3c0;" 
d="M116 485v-485h-80v552h258v-552h-80v485h-98z" />
    <glyph glyph-name="uni1E02" unicode="&#x1e02;" horiz-adv-x="356" 
d="M38 0v700h170c93 0 117 -29 117 -130v-80c0 -74 -13 -109 -56 -122c43 -14 56 -48 56 -121v-117c0 -101 -24 -130 -117 -130h-170zM192 327h-66v-245h66c42 0 45 15 45 62v121c0 47 -4 62 -45 62zM237 471v85c0 47 -3 62 -45 62h-66v-209h66c41 0 45 15 45 62zM213 741
h-72v76h72v-76z" />
    <glyph glyph-name="uni1E03" unicode="&#x1e03;" horiz-adv-x="325" 
d="M214 431c0 39 -4 53 -38 53h-15c-33 0 -45 -24 -45 -66v-284c0 -42 12 -66 45 -66h15c34 0 38 14 38 53v310zM116 700v-194c11 32 35 51 79 51h20c61 0 79 -25 79 -95v-372c0 -70 -18 -95 -79 -95h-20c-49 0 -73 23 -83 61l-8 -56h-68v700h80zM113 741h-72v76h72v-76z
" />
    <glyph glyph-name="uni1E0A" unicode="&#x1e0a;" horiz-adv-x="361" 
d="M40 0v700h169c93 0 118 -29 118 -130v-440c0 -101 -25 -130 -118 -130h-169zM128 82h66c41 0 45 15 45 62v412c0 47 -4 62 -45 62h-66v-536zM213 741h-72v76h72v-76z" />
    <glyph glyph-name="uni1E0B" unicode="&#x1e0b;" horiz-adv-x="325" 
d="M209 134v284c0 42 -11 66 -44 66h-16c-34 0 -37 -14 -37 -53v-310c0 -39 3 -53 37 -53h16c33 0 44 24 44 66zM289 93c0 -32 1 -60 8 -93h-76c-5 11 -7 30 -8 59c-9 -40 -33 -64 -83 -64h-20c-61 0 -78 25 -78 95v372c0 70 17 95 78 95h20c44 0 67 -19 79 -51v194h80v-607
zM286 741h-72v76h72v-76z" />
    <glyph glyph-name="uni1E1E" unicode="&#x1e1e;" horiz-adv-x="260" 
d="M128 618v-221h104v-82h-104v-315h-88v700h214v-82h-126zM186 741h-72v76h72v-76z" />
    <glyph glyph-name="uni1E1F" unicode="&#x1e1f;" horiz-adv-x="187" 
d="M6 485v67h39v33c0 89 22 115 104 115h33v-63h-16c-32 0 -42 -6 -42 -52v-33h58v-67h-57v-485h-80v485h-39zM146 741h-72v76h72v-76z" />
    <glyph glyph-name="uni1E40" unicode="&#x1e40;" horiz-adv-x="473" 
d="M334 423l-65 -423h-73l-65 423c-6 36 -13 89 -18 132c1 -42 2 -96 2 -132v-423h-76v700h135l54 -396c4 -32 5 -69 8 -104c2 35 4 72 8 104l53 396h137v-700h-86v423c0 36 1 86 2 126c-5 -42 -11 -93 -16 -126zM272 741h-72v76h72v-76z" />
    <glyph glyph-name="uni1E41" unicode="&#x1e41;" horiz-adv-x="495" 
d="M116 0h-80v552h75v-63c9 42 32 68 84 68h15c47 0 68 -16 75 -55c11 34 34 55 81 55h16c61 0 78 -25 78 -95v-462h-79v431c0 39 -4 53 -38 53h-10c-33 0 -45 -24 -45 -66v-418h-80v431c0 39 -3 53 -37 53h-10c-33 0 -45 -24 -45 -66v-418zM283 600h-72v76h72v-76z" />
    <glyph glyph-name="uni1E56" unicode="&#x1e56;" horiz-adv-x="338" 
d="M40 0v700h164c93 0 117 -29 117 -130v-176c0 -101 -24 -130 -117 -130h-76v-264h-88zM128 346h61c40 0 44 15 44 62v148c0 47 -4 62 -44 62h-61v-272zM211 741h-72v76h72v-76z" />
    <glyph glyph-name="uni1E57" unicode="&#x1e57;" horiz-adv-x="325" 
d="M214 431c0 39 -4 53 -38 53h-15c-33 0 -45 -24 -45 -66v-284c0 -42 12 -66 45 -66h15c34 0 38 14 38 53v310zM116 -127h-80v679h75v-63c9 42 32 68 84 68h20c61 0 79 -25 79 -95v-372c0 -70 -18 -95 -79 -95h-20c-44 0 -68 18 -79 50v-172zM201 600h-72v76h72v-76z" />
    <glyph glyph-name="uni1E60" unicode="&#x1e60;" 
d="M215 139v49c0 63 -15 82 -85 145c-81 73 -102 104 -102 196v46c0 101 24 130 117 130h41c93 0 117 -29 117 -130v-109h-83v95c0 47 -3 62 -45 62h-15c-41 0 -45 -15 -45 -60v-33c0 -63 15 -83 85 -146c81 -73 103 -103 103 -195v-64c0 -101 -25 -130 -117 -130h-42
c-92 0 -116 29 -116 130v129h82v-115c0 -47 3 -62 45 -62h15c41 0 45 15 45 62zM201 741h-72v76h72v-76z" />
    <glyph glyph-name="uni1E61" unicode="&#x1e61;" horiz-adv-x="308" 
d="M200 123v25c0 47 -13 61 -78 106c-77 53 -94 84 -94 155v32c0 90 21 116 104 116h44c82 0 104 -26 104 -116v-75h-75v63c0 41 -4 55 -40 55h-18c-35 0 -39 -14 -39 -55v-15c0 -47 13 -61 78 -106c77 -53 94 -84 94 -155v-42c0 -90 -22 -116 -104 -116h-44
c-83 0 -104 26 -104 116v85h75v-73c0 -41 3 -55 40 -55h17c37 0 40 14 40 55zM190 600h-72v76h72v-76z" />
    <glyph glyph-name="uni1E6A" unicode="&#x1e6a;" horiz-adv-x="249" 
d="M169 0h-88v618h-77v82h241v-82h-76v-618zM161 741h-72v76h72v-76z" />
    <glyph glyph-name="uni1E6B" unicode="&#x1e6b;" horiz-adv-x="183" 
d="M6 485v67h39v120h80v-120h53v-67h-53v-359c0 -47 3 -89 17 -126h-85c-10 23 -12 66 -12 112v373h-39zM121 720h-72v76h72v-76z" />
    <glyph glyph-name="Wgrave" unicode="&#x1e80;" horiz-adv-x="507" 
d="M245 317l-34 -317h-114l-85 700h89l37 -332c10 -87 19 -168 21 -226c2 58 9 139 19 226l36 332h90l36 -332c10 -87 17 -168 19 -226c2 58 11 139 21 226l37 332h79l-85 -700h-108l-35 317c-7 59 -9 121 -11 185c-3 -64 -6 -126 -12 -185zM242 836l50 -115h-50l-73 115h73
z" />
    <glyph glyph-name="wgrave" unicode="&#x1e81;" horiz-adv-x="467" 
d="M215 185l-23 -185h-110l-76 552h82l27 -198c14 -100 21 -193 25 -263c5 70 15 163 29 262l29 199h82l29 -199c14 -99 23 -192 27 -262c5 70 11 163 25 263l27 198h72l-75 -552h-107l-23 185c-7 59 -17 138 -21 193c-3 -55 -12 -134 -19 -193zM222 695l50 -115h-50
l-73 115h73z" />
    <glyph glyph-name="Wacute" unicode="&#x1e82;" horiz-adv-x="507" 
d="M245 317l-34 -317h-114l-85 700h89l37 -332c10 -87 19 -168 21 -226c2 58 9 139 19 226l36 332h90l36 -332c10 -87 17 -168 19 -226c2 58 11 139 21 226l37 332h79l-85 -700h-108l-35 317c-7 59 -9 121 -11 185c-3 -64 -6 -126 -12 -185zM214 721l51 115h73l-73 -115h-51
z" />
    <glyph glyph-name="wacute" unicode="&#x1e83;" horiz-adv-x="467" 
d="M215 185l-23 -185h-110l-76 552h82l27 -198c14 -100 21 -193 25 -263c5 70 15 163 29 262l29 199h82l29 -199c14 -99 23 -192 27 -262c5 70 11 163 25 263l27 198h72l-75 -552h-107l-23 185c-7 59 -17 138 -21 193c-3 -55 -12 -134 -19 -193zM194 580l51 115h73l-73 -115
h-51z" />
    <glyph glyph-name="Wdieresis" unicode="&#x1e84;" horiz-adv-x="507" 
d="M245 317l-34 -317h-114l-85 700h89l37 -332c10 -87 19 -168 21 -226c2 58 9 139 19 226l36 332h90l36 -332c10 -87 17 -168 19 -226c2 58 11 139 21 226l37 332h79l-85 -700h-108l-35 317c-7 59 -9 121 -11 185c-3 -64 -6 -126 -12 -185zM346 741h-72v76h72v-76zM231 741
h-71v76h71v-76z" />
    <glyph glyph-name="wdieresis" unicode="&#x1e85;" horiz-adv-x="467" 
d="M215 185l-23 -185h-110l-76 552h82l27 -198c14 -100 21 -193 25 -263c5 70 15 163 29 262l29 199h82l29 -199c14 -99 23 -192 27 -262c5 70 11 163 25 263l27 198h72l-75 -552h-107l-23 185c-7 59 -17 138 -21 193c-3 -55 -12 -134 -19 -193zM325 600h-72v76h72v-76z
M210 600h-71v76h71v-76z" />
    <glyph glyph-name="Ygrave" unicode="&#x1ef2;" horiz-adv-x="317" 
d="M203 0h-88v236l-110 464h89l37 -165c11 -49 27 -127 33 -192c7 65 22 143 33 192l37 165h78l-109 -464v-236zM151 836l50 -115h-50l-73 115h73z" />
    <glyph glyph-name="ygrave" unicode="&#x1ef3;" horiz-adv-x="296" 
d="M189 -49c-8 -50 -35 -78 -93 -78h-73v61h41c23 0 32 10 33 29l2 31l-93 558h82l34 -209c14 -86 26 -188 30 -257c5 69 17 172 31 257l35 209h72zM140 695l50 -115h-50l-73 115h73z" />
    <glyph glyph-name="figuredash" unicode="&#x2012;" 
d="M330 299v-61h-330v61h330z" />
    <glyph glyph-name="endash" unicode="&#x2013;" horiz-adv-x="500" 
d="M500 299v-61h-500v61h500z" />
    <glyph glyph-name="emdash" unicode="&#x2014;" horiz-adv-x="1000" 
d="M1000 299v-61h-1000v61h1000z" />
    <glyph glyph-name="quoteleft" unicode="&#x2018;" horiz-adv-x="165" 
d="M128 615v-120h-92v120l78 85l7 -5l-51 -80h58z" />
    <glyph glyph-name="quoteright" unicode="&#x2019;" horiz-adv-x="165" 
d="M36 580v120h92v-120l-78 -85l-7 5l51 80h-58z" />
    <glyph glyph-name="quotesinglbase" unicode="&#x201a;" horiz-adv-x="165" 
d="M36 0v120h92v-120l-78 -85l-7 5l51 80h-58z" />
    <glyph glyph-name="quotedblleft" unicode="&#x201c;" horiz-adv-x="278" 
d="M251 615v-120h-92v120l78 85l7 -5l-51 -80h58zM119 615v-120h-92v120l78 85l7 -5l-51 -80h58z" />
    <glyph glyph-name="quotedblright" unicode="&#x201d;" horiz-adv-x="278" 
d="M158 580v120h92v-120l-78 -85l-7 5l51 80h-58zM27 580v120h92v-120l-78 -85l-7 5l51 80h-58z" />
    <glyph glyph-name="quotedblbase" unicode="&#x201e;" horiz-adv-x="278" 
d="M158 0v120h92v-120l-78 -85l-7 5l51 80h-58zM27 0v120h92v-120l-78 -85l-7 5l51 80h-58z" />
    <glyph glyph-name="dagger" unicode="&#x2020;" horiz-adv-x="313" 
d="M197 443v-540h-80v540h-112v73h112v184h80v-184h111v-73h-111z" />
    <glyph glyph-name="daggerdbl" unicode="&#x2021;" horiz-adv-x="313" 
d="M197 122v-219h-80v219h-112v73h112v248h-112v73h112v184h80v-184h111v-73h-111v-248h111v-73h-111z" />
    <glyph glyph-name="bullet" unicode="&#x2022;" horiz-adv-x="282" 
d="M34 350c0 64 43 112 106 112c64 0 108 -48 108 -112c0 -62 -44 -110 -108 -110c-63 0 -106 48 -106 110z" />
    <glyph glyph-name="ellipsis" unicode="&#x2026;" horiz-adv-x="409" 
d="M27 0v120h92v-120h-92zM158 0v120h92v-120h-92zM290 0v120h92v-120h-92z" />
    <glyph glyph-name="perthousand" unicode="&#x2030;" horiz-adv-x="791" 
d="M158 0l210 700h28l-209 -700h-29zM25 349v267c0 69 19 89 82 89h36c61 0 81 -20 81 -89v-267c0 -69 -20 -89 -81 -89h-36c-63 0 -82 20 -82 89zM87 603v-241c0 -33 2 -44 32 -44h11c30 0 32 11 32 44v241c0 33 -2 44 -32 44h-11c-30 0 -32 -11 -32 -44zM330 84v267
c0 69 19 89 82 89h36c61 0 81 -20 81 -89v-267c0 -69 -20 -89 -81 -89h-36c-63 0 -82 20 -82 89zM392 338v-241c0 -33 2 -44 32 -44h11c30 0 32 11 32 44v241c0 33 -2 44 -32 44h-11c-30 0 -32 -11 -32 -44zM567 84v267c0 69 19 89 82 89h36c61 0 81 -20 81 -89v-267
c0 -69 -20 -89 -81 -89h-36c-63 0 -82 20 -82 89zM629 338v-241c0 -33 2 -44 32 -44h11c30 0 32 11 32 44v241c0 33 -2 44 -32 44h-11c-30 0 -32 -11 -32 -44z" />
    <glyph glyph-name="guilsinglleft" unicode="&#x2039;" horiz-adv-x="183" 
d="M104 76l-98 200l98 200h73l-92 -200l92 -200h-73z" />
    <glyph glyph-name="guilsinglright" unicode="&#x203a;" horiz-adv-x="183" 
d="M177 276l-98 -200h-73l92 200l-92 200h73z" />
    <glyph glyph-name="fraction" unicode="&#x2044;" 
d="M45 0l210 700h28l-209 -700h-29z" />
    <glyph glyph-name="zerosuperior" unicode="&#x2070;" horiz-adv-x="249" 
d="M25 349v267c0 69 19 89 82 89h36c61 0 81 -20 81 -89v-267c0 -69 -20 -89 -81 -89h-36c-63 0 -82 20 -82 89zM87 603v-241c0 -33 2 -44 32 -44h11c30 0 32 11 32 44v241c0 33 -2 44 -32 44h-11c-30 0 -32 -11 -32 -44z" />
    <glyph glyph-name="foursuperior" unicode="&#x2074;" horiz-adv-x="249" 
d="M139 700h64v-302h28v-54h-28v-79h-62v79h-123v50zM73 398h68v41c0 52 1 111 4 169c-17 -58 -36 -117 -56 -169z" />
    <glyph glyph-name="zeroinferior" unicode="&#x2080;" horiz-adv-x="249" 
d="M25 84v267c0 69 19 89 82 89h36c61 0 81 -20 81 -89v-267c0 -69 -20 -89 -81 -89h-36c-63 0 -82 20 -82 89zM87 338v-241c0 -33 2 -44 32 -44h11c30 0 32 11 32 44v241c0 33 -2 44 -32 44h-11c-30 0 -32 -11 -32 -44z" />
    <glyph glyph-name="oneinferior" unicode="&#x2081;" horiz-adv-x="142" 
d="M102 0h-62v404c16 0 33 17 33 31h29v-435z" />
    <glyph glyph-name="twoinferior" unicode="&#x2082;" horiz-adv-x="249" 
d="M88 338v-55h-58v68c0 69 18 89 81 89h33c62 0 81 -20 81 -89v-21c0 -91 -48 -120 -87 -157c-32 -29 -53 -53 -53 -101v-14h137v-58h-199v71c0 71 31 108 71 140c43 37 69 66 69 120v7c0 33 -2 44 -32 44h-11c-30 0 -32 -11 -32 -44z" />
    <glyph glyph-name="threeinferior" unicode="&#x2083;" horiz-adv-x="249" 
d="M160 97v54c0 33 -2 44 -32 44h-62v58h62c30 0 32 11 32 44v41c0 33 -2 44 -32 44h-11c-30 0 -32 -11 -32 -44v-25h-58v38c0 69 18 89 81 89h33c61 0 81 -20 81 -89v-41c0 -54 -12 -78 -46 -86c34 -8 46 -33 46 -86v-54c0 -69 -20 -89 -81 -89h-33c-63 0 -81 20 -81 89v43
h58v-30c0 -32 2 -44 31 -44h12c30 0 32 11 32 44z" />
    <glyph glyph-name="fourinferior" unicode="&#x2084;" horiz-adv-x="249" 
d="M139 435h64v-302h28v-54h-28v-79h-62v79h-123v50zM73 133h68v41c0 52 1 111 4 169c-17 -58 -36 -117 -56 -169z" />
    <glyph glyph-name="Euro" unicode="&#x20ac;" 
d="M299 400h-179v-63h179v-33h-179v-175c0 -42 3 -57 42 -57h17c39 0 43 15 43 57v107h77v-121c0 -93 -23 -120 -109 -120h-44c-85 0 -108 27 -108 120v189h-31v33h31v63h-31v32h31v153c0 93 23 120 108 120h44c86 0 109 -27 109 -120v-85h-77v71c0 42 -4 57 -43 57h-17
c-39 0 -42 -15 -42 -57v-139h179v-32z" />
    <glyph glyph-name="numero" unicode="&#x2116;" horiz-adv-x="600" 
d="M229 0l-94 405c-10 44 -16 85 -22 126c1 -41 2 -82 2 -128v-403h-76v700h111l83 -374c10 -44 17 -85 23 -126c-1 41 -4 82 -4 127v373h77v-700h-100zM383 207v57h191v-57h-191zM383 396v222c0 68 15 87 77 87h37c62 0 77 -19 77 -87v-222c0 -68 -15 -88 -77 -88h-37
c-62 0 -77 20 -77 88zM514 405v204c0 30 -3 40 -29 40h-13c-26 0 -29 -10 -29 -40v-204c0 -31 3 -41 29 -41h13c26 0 29 10 29 41z" />
    <glyph glyph-name="uni2117" unicode="&#x2117;" horiz-adv-x="527" 
d="M490 480v-260c0 -151 -42 -225 -206 -225h-41c-165 0 -207 74 -207 225v260c0 151 42 225 207 225h41c164 0 206 -74 206 -225zM89 480v-260c0 -132 36 -177 155 -177h39c120 0 154 45 154 177v260c0 132 -34 177 -154 177h-39c-119 0 -155 -45 -155 -177zM364 487v-104
c0 -65 -18 -83 -77 -83h-51v-183h-57v453h108c59 0 77 -18 77 -83zM277 519h-41v-168h41c25 0 31 9 31 40v88c0 31 -6 40 -31 40z" />
    <glyph glyph-name="trademark" unicode="&#x2122;" horiz-adv-x="488" 
d="M337 477l37 223h90v-414h-60v222c0 34 1 79 3 112c-5 -33 -12 -79 -18 -112l-39 -222h-49l-41 222c-6 35 -14 81 -19 116c2 -35 4 -81 4 -116v-222h-51v414h87l37 -223c4 -27 8 -61 10 -92c2 31 4 63 9 92zM4 650v50h162v-50h-51v-364h-60v364h-51z" />
    <glyph glyph-name="uni2126" unicode="&#x2126;" horiz-adv-x="350" 
d="M31 0v82h59v63c-45 11 -59 42 -59 118v312c0 101 25 130 117 130h54c92 0 116 -29 116 -130v-312c0 -75 -14 -107 -58 -118v-63h58v-82h-121v207c30 0 33 13 33 51v303c0 47 -3 62 -44 62h-22c-41 0 -45 -15 -45 -62v-303c0 -39 3 -51 33 -51v-207h-121z" />
    <glyph glyph-name="onethird" unicode="&#x2153;" horiz-adv-x="464" 
d="M67 0l210 700h28l-209 -700h-29zM102 265h-62v404c16 0 33 17 33 31h29v-435zM375 97v54c0 33 -2 44 -32 44h-62v58h62c30 0 32 11 32 44v41c0 33 -2 44 -32 44h-11c-30 0 -32 -11 -32 -44v-25h-58v38c0 69 18 89 81 89h33c61 0 81 -20 81 -89v-41c0 -54 -12 -78 -46 -86
c34 -8 46 -33 46 -86v-54c0 -69 -20 -89 -81 -89h-33c-63 0 -81 20 -81 89v43h58v-30c0 -32 2 -44 31 -44h12c30 0 32 11 32 44z" />
    <glyph glyph-name="twothirds" unicode="&#x2154;" horiz-adv-x="554" 
d="M158 0l210 700h28l-209 -700h-29zM88 603v-55h-58v68c0 69 18 89 81 89h33c62 0 81 -20 81 -89v-21c0 -91 -48 -120 -87 -157c-32 -29 -53 -53 -53 -101v-14h137v-58h-199v71c0 71 31 108 71 140c43 37 69 66 69 120v7c0 33 -2 44 -32 44h-11c-30 0 -32 -11 -32 -44z
M465 97v54c0 33 -2 44 -32 44h-62v58h62c30 0 32 11 32 44v41c0 33 -2 44 -32 44h-11c-30 0 -32 -11 -32 -44v-25h-58v38c0 69 18 89 81 89h33c61 0 81 -20 81 -89v-41c0 -54 -12 -78 -46 -86c34 -8 46 -33 46 -86v-54c0 -69 -20 -89 -81 -89h-33c-63 0 -81 20 -81 89v43h58
v-30c0 -32 2 -44 31 -44h12c30 0 32 11 32 44z" />
    <glyph glyph-name="partialdiff" unicode="&#x2202;" 
d="M293 581v-470c0 -90 -21 -116 -104 -116h-49c-82 0 -104 26 -104 116v351c0 70 18 95 79 95h19c47 0 70 -21 81 -56v77c0 43 -6 59 -43 59h-28v63h43c82 0 106 -29 106 -119zM116 123c0 -41 4 -55 40 -55h18c35 0 40 14 40 55v295c0 42 -12 66 -45 66h-15
c-34 0 -38 -14 -38 -53v-308z" />
    <glyph glyph-name="uni2206" unicode="&#x2206;" 
d="M317 0h-305l128 699h50zM153 549c-6 -56 -16 -132 -33 -232l-44 -264h154l-43 264c-16 100 -28 176 -34 232z" />
    <glyph glyph-name="product" unicode="&#x220f;" horiz-adv-x="367" 
d="M128 -70h-88v770h287v-770h-88v688h-111v-688z" />
    <glyph glyph-name="summation" unicode="&#x2211;" horiz-adv-x="302" 
d="M248 315l-137 -303h174v-82h-268v76l141 309l-141 309v76h268v-82h-175z" />
    <glyph glyph-name="minus" unicode="&#x2212;" 
d="M298 386v-72h-266v72h266z" />
    <glyph glyph-name="radical" unicode="&#x221a;" 
d="M205 488l27 212h74l-92 -700h-109l-41 276h-32v73h92l37 -288c14 142 26 283 44 427z" />
    <glyph glyph-name="infinity" unicode="&#x221e;" horiz-adv-x="733" 
d="M345 317c-21 0 -29 25 -38 25c-7 0 -14 -4 -25 -4s-21 14 -21 25c0 12 3 27 8 35c-18 -18 -11 -58 -42 -78c-18 -12 -18 -25 -18 -40c0 -19 22 -27 22 -34c0 -3 -1 -4 -3 -4c-4 0 -9 2 -12 5c8 -41 24 -79 48 -104h-55c-15 49 -35 140 -35 226c0 122 38 238 176 238
c153 0 190 -126 190 -254c0 -78 -15 -156 -25 -210h-73c37 33 56 72 62 117c-1 -2 -9 -8 -13 -8c-1 0 -3 0 -3 2c0 3 18 7 18 37c-3 -4 -13 -6 -15 -6c-4 0 -15 -9 -26 -9c-38 0 -32 7 -110 7c-39 0 -71 -12 -91 -12c-9 0 -17 4 -24 4c-6 0 -28 3 -28 12c0 13 62 27 111 27
c10 0 14 -1 24 -1s21 4 30 4c67 0 118 -8 127 -20c-1 20 -21 42 -44 42c-4 0 -6 3 -6 7c0 36 -3 57 -16 58c3 -5 4 -10 4 -17c0 -22 -15 -46 -38 -46c-7 0 -15 4 -17 4c-6 0 -19 -28 -42 -28zM733 291v-148c-25 55 -107 177 -136 177c4 -59 0 -115 -12 -177h-42
c8 52 16 123 16 199c0 155 -39 319 -213 319c-148 0 -190 -159 -190 -308c0 -85 14 -165 29 -210h-47c-17 60 -19 120 -19 184c-38 -21 -95 -144 -119 -184v148c25 61 92 113 113 136c6 135 77 287 223 287c187 0 238 -135 257 -279c24 -5 102 -65 140 -144zM345 503
c-1 1 -3 4 -3 6c0 1 1 2 2 2c3 0 15 -17 43 -17c36 0 52 17 55 17c2 0 4 -1 4 -2c0 -2 -7 -7 -8 -8c12 0 34 -4 52 -11c-18 49 -56 80 -139 80c-77 0 -126 -53 -142 -118c17 9 38 24 41 39c-3 2 -6 6 -6 7c0 3 2 4 3 4s17 -16 49 -16c16 0 34 7 49 17zM371 416
c0 25 -7 60 -14 60c-18 0 -22 -78 -33 -78c-6 0 -12 6 -21 6c-18 0 -29 -17 -29 -35c0 -7 4 -14 11 -14c19 0 20 13 27 13c6 0 14 -27 32 -27c24 0 30 21 37 21c6 0 14 -7 19 -7c14 0 26 18 26 35c0 12 -7 26 -22 26c-13 0 -17 -13 -26 -13c-6 0 -7 8 -7 13zM510 318
c0 48 -1 99 -12 147l-5 3c0 -31 -32 -43 -59 -43c-28 0 -53 19 -53 42c0 3 0 6 2 9c-5 1 -11 2 -15 4c15 -22 13 -57 20 -57c7 2 11 2 15 2c13 0 23 -5 31 -14c30 0 34 -37 34 -51c0 -8 31 -12 42 -42zM383 310c-2 0 -26 -4 -37 -4c-9 0 -17 3 -24 3c-33 0 -85 -16 -85 -21
c0 -10 14 -10 20 -10c45 0 66 13 98 13c36 0 80 -7 110 -7c10 0 20 7 20 9c0 7 -62 17 -102 17zM267 413c-26 0 -44 17 -46 31c-5 -3 -11 -4 -15 -5c-3 -16 -4 -30 -4 -43c0 -26 0 -50 3 -78c14 21 38 27 42 53c3 23 14 38 38 41c7 3 15 5 23 5c12 0 10 32 34 61l-13 -4
c-1 -30 -26 -61 -62 -61zM419 465c-11 0 -15 8 -16 13c-8 0 -12 -11 -12 -15c0 -15 27 -24 46 -24c17 0 44 12 44 30c0 11 -27 17 -43 17c-2 -9 -7 -21 -19 -21zM267 427c18 0 46 17 46 35c0 3 0 6 -1 9c-15 0 -20 0 -27 1c-3 -9 -11 -14 -18 -14c-5 0 -10 0 -15 5
c-5 -5 -11 -8 -18 -12c3 -16 18 -24 33 -24zM266 288c-1 0 -2 1 -2 3c0 9 83 12 107 12c20 0 93 -2 93 -8c0 -2 -2 -3 -3 -3c-3 0 -24 5 -88 5c-81 0 -101 -9 -107 -9zM305 262c0 9 50 10 63 10c1 0 31 0 31 -8c0 -2 -1 -3 -2 -3c-8 0 -12 4 -20 4c-19 0 -35 -1 -46 -1
c-8 0 -16 -6 -22 -6c-2 0 -4 1 -4 4zM417 473c5 0 9 4 9 13c-5 0 -11 -4 -16 -6c0 -5 3 -7 7 -7zM266 466c4 0 8 3 10 9c-4 1 -7 2 -11 4c0 -2 -2 -6 -6 -10c1 -2 4 -3 7 -3zM325 34l-3 48l-10 -82h-21l15 125h25l4 -60l21 60h26l-15 -125h-22l10 82l-16 -48h-14zM21 125h35
c12 0 22 -7 20 -21l-10 -82c-2 -15 -10 -22 -22 -22h-38zM282 44c-1 -8 -5 -14 -10 -17l8 -27h-21l-7 23h-7l-3 -23h-22l15 125h36c12 0 20 -7 18 -24zM183 0l3 23h-14l-3 -23h-21l12 104c1 14 10 21 22 21h17c12 0 19 -7 18 -21l-12 -104h-22zM594 0l15 125h35
c14 0 22 -7 20 -21l-8 -62c-2 -14 -10 -19 -22 -19h-15l-3 -23h-22zM111 0l3 23h-13l-3 -23h-22l15 125h22l-10 -83h13l10 83h22l-15 -125h-22zM539 125h22l-10 -79c0 -3 0 -4 4 -4h5c3 0 5 1 5 4l9 79h22l-10 -81c-2 -13 -9 -21 -19 -21l-9 -23h-23l9 23
c-11 0 -17 8 -15 21zM477 106l3 19h50l-3 -19h-13l-12 -106h-23l12 106h-14zM41 106l-11 -88h11c2 0 3 2 3 4l9 80c0 3 -1 4 -4 4h-8zM629 106l-8 -64h8c3 0 5 1 5 4l7 56c0 3 -1 4 -4 4h-8zM174 42h14l7 60c0 3 -1 4 -4 4h-5c-4 0 -5 -1 -5 -4zM255 106l-8 -64h8
c3 0 5 1 5 4l7 56c0 2 0 4 -3 4h-9zM711 57l-3 -18h-19l-3 -21h27l-2 -18h-49l15 125h47l-3 -19h-24l-6 -49h20zM417 0l3 23h-14l-3 -23h-21l12 104c1 14 10 21 22 21h17c12 0 19 -7 18 -21l-12 -104h-22zM408 42h14l7 60c0 3 -1 4 -4 4h-5c-4 0 -5 -1 -5 -4z" />
    <glyph glyph-name="integral" unicode="&#x222b;" 
d="M125 50v534c0 90 22 116 104 116h42v-67h-24c-32 0 -42 -7 -42 -53v-533c0 -90 -22 -117 -104 -117h-43v68h25c32 0 42 6 42 52z" />
    <glyph glyph-name="approxequal" unicode="&#x2248;" 
d="M298 327v-79c-23 -32 -46 -43 -69 -43c-46 0 -91 43 -134 43c-22 0 -43 -11 -63 -44v78c23 32 46 43 69 43c45 0 91 -43 133 -43c22 0 43 11 64 45zM298 495v-79c-23 -32 -46 -43 -69 -43c-46 0 -91 43 -134 43c-22 0 -43 -11 -63 -44v78c23 32 46 43 69 43
c45 0 91 -43 133 -43c22 0 43 11 64 45z" />
    <glyph glyph-name="notequal" unicode="&#x2260;" 
d="M298 303v-72h-155l-39 -95h-54l39 95h-57v72h86l39 94h-125v72h155l38 92h55l-38 -92h56v-72h-86l-39 -94h125z" />
    <glyph glyph-name="lessequal" unicode="&#x2264;" 
d="M298 226v-65h-266v65h266zM128 397l170 -135h-98l-168 135l168 134h98z" />
    <glyph glyph-name="greaterequal" unicode="&#x2265;" 
d="M32 161v65h266v-65h-266zM32 262l170 135l-170 134h98l168 -134l-168 -135h-98z" />
    <glyph glyph-name="lozenge" unicode="&#x25ca;" 
d="M195 0h-60l-123 349l122 351h61l122 -351zM81 349l20 -58c29 -83 50 -151 64 -208c13 57 36 124 64 208l19 58l-20 58c-29 83 -51 152 -64 208c-13 -56 -35 -125 -63 -208z" />
    <glyph glyph-name="g.alt" horiz-adv-x="325" 
d="M112 132c0 -39 3 -54 37 -54h16c33 0 44 25 44 67v273c0 42 -11 66 -44 66h-16c-34 0 -37 -14 -37 -53v-299zM209 -31v87c-12 -32 -35 -50 -79 -50h-20c-61 0 -78 25 -78 95v361c0 70 17 95 78 95h20c49 0 72 -23 82 -62l9 57h68v-568c0 -89 -22 -116 -104 -116h-45
c-83 0 -104 21 -104 100v9h76v-13c0 -37 3 -51 40 -51h17c37 0 40 14 40 56z" />
    <glyph glyph-name="i.trk" horiz-adv-x="152" 
d="M116 552v-552h-80v552h80zM36 619v81h80v-81h-80z" />
    <glyph glyph-name="r.alt" horiz-adv-x="304" 
d="M116 0h-80v552h75v-63c9 42 32 68 84 68h9c61 0 79 -25 79 -95v-210h-75v179c0 39 -4 53 -38 53h-9c-33 0 -45 -24 -45 -66v-418z" />
    <glyph glyph-name="y.alt" horiz-adv-x="328" 
d="M114 552v-420c0 -39 4 -54 38 -54h15c33 0 45 25 45 67v407h80v-568c0 -89 -23 -116 -104 -116h-46c-82 0 -103 21 -103 100v9h75v-13c0 -37 4 -51 40 -51h18c37 0 40 14 40 56v87c-12 -32 -35 -50 -79 -50h-20c-61 0 -78 25 -78 95v451h79z" />
    <glyph glyph-name="zero.alt" 
d="M298 585v-470c0 -93 -23 -120 -108 -120h-50c-85 0 -108 27 -108 120v470c0 93 23 120 108 120h50c85 0 108 -27 108 -120zM114 571v-442c0 -42 4 -57 42 -57h18c38 0 42 15 42 57v442c0 42 -4 57 -42 57h-18c-38 0 -42 -15 -42 -57z" />
    <glyph glyph-name="one.alt" 
d="M222 0h-82v658c19 0 43 23 43 42h39v-700z" />
    <glyph glyph-name="two.alt" 
d="M219 556v15c0 42 -4 57 -42 57h-18c-38 0 -42 -15 -42 -57v-120h-77v134c0 93 22 120 108 120h45c85 0 108 -27 108 -120v-34c0 -103 -21 -143 -104 -249c-65 -84 -84 -118 -84 -205v-20h189v-77h-271v103c0 103 21 143 105 249c64 83 83 118 83 204z" />
    <glyph glyph-name="three.alt" 
d="M111 571v-93h-77v107c0 93 22 120 108 120h45c85 0 108 -27 108 -120v-102c0 -70 -13 -103 -54 -115c41 -13 54 -45 54 -114v-139c0 -93 -23 -120 -108 -120h-45c-86 0 -108 27 -108 120v143h77v-129c0 -42 4 -57 42 -57h18c39 0 42 15 42 57v144c0 42 -3 57 -42 57h-95
v77h95c39 0 42 15 42 57v107c0 42 -3 57 -42 57h-18c-39 0 -42 -15 -42 -57z" />
    <glyph glyph-name="four.alt" 
d="M175 699h88v-503h54v-70h-54v-126h-81v126h-167v64zM86 196h96v151c0 75 2 146 6 226c-17 -79 -33 -146 -57 -226z" />
    <glyph glyph-name="five.alt" 
d="M114 385v-65h-77v380h248v-77h-171v-149c11 35 35 56 83 56h21c63 0 80 -26 80 -100v-315c0 -93 -24 -120 -109 -120h-44c-85 0 -108 27 -108 120v143h77v-129c0 -42 4 -57 42 -57h18c38 0 42 15 42 57v270c0 40 -3 56 -39 56h-16c-34 0 -47 -26 -47 -70z" />
    <glyph glyph-name="six.alt" 
d="M300 372v-257c0 -93 -23 -120 -108 -120h-50c-86 0 -108 27 -108 120v470c0 93 23 120 108 120h44c86 0 109 -27 109 -120v-77h-77v63c0 42 -4 57 -42 57h-18c-38 0 -42 -15 -42 -57v-155c11 35 35 56 82 56h22c64 0 80 -26 80 -100zM179 396h-16c-35 0 -47 -25 -47 -69
v-198c0 -42 4 -57 42 -57h18c38 0 42 15 42 57v212c0 40 -3 55 -39 55z" />
    <glyph glyph-name="seven.alt" 
d="M165 0h-91l149 623h-193v77h269v-69z" />
    <glyph glyph-name="eight.alt" 
d="M189 -5h-48c-86 0 -109 27 -109 120v145c0 69 13 101 54 114c-42 12 -54 45 -54 114v97c0 93 23 120 109 120h48c86 0 109 -27 109 -120v-97c0 -69 -13 -102 -54 -114c41 -13 54 -45 54 -114v-145c0 -93 -23 -120 -109 -120zM216 129v150c0 42 -4 57 -42 57h-18
c-38 0 -42 -15 -42 -57v-150c0 -42 4 -57 42 -57h18c38 0 42 15 42 57zM216 470v101c0 42 -4 57 -42 57h-18c-38 0 -42 -15 -42 -57v-101c0 -42 4 -57 42 -57h18c38 0 42 15 42 57z" />
    <glyph glyph-name="nine.alt" 
d="M172 72c38 0 42 15 42 57v165c-12 -35 -35 -56 -82 -56h-22c-64 0 -80 26 -80 100v247c0 93 23 120 108 120h50c86 0 108 -27 108 -120v-470c0 -93 -23 -120 -108 -120h-44c-86 0 -109 27 -109 120v87h77v-73c0 -42 4 -57 42 -57h18zM151 314h16c35 0 47 25 47 69v188
c0 42 -4 57 -42 57h-18c-38 0 -42 -15 -42 -57v-202c0 -40 3 -55 39 -55z" />
    <glyph glyph-name="gbreve.alt" horiz-adv-x="325" 
d="M112 132c0 -39 3 -54 37 -54h16c33 0 44 25 44 67v273c0 42 -11 66 -44 66h-16c-34 0 -37 -14 -37 -53v-299zM209 -31v87c-12 -32 -35 -50 -79 -50h-20c-61 0 -78 25 -78 95v361c0 70 17 95 78 95h20c49 0 72 -23 82 -62l9 57h68v-568c0 -89 -22 -116 -104 -116h-45
c-83 0 -104 21 -104 100v9h76v-13c0 -37 3 -51 40 -51h17c37 0 40 14 40 56zM161 635c36 0 48 15 48 53h44c0 -59 -13 -102 -92 -102c-80 0 -93 43 -93 102h44c0 -38 13 -53 49 -53z" />
    <glyph glyph-name="gcircumflex.alt" horiz-adv-x="325" 
d="M112 132c0 -39 3 -54 37 -54h16c33 0 44 25 44 67v273c0 42 -11 66 -44 66h-16c-34 0 -37 -14 -37 -53v-299zM209 -31v87c-12 -32 -35 -50 -79 -50h-20c-61 0 -78 25 -78 95v361c0 70 17 95 78 95h20c49 0 72 -23 82 -62l9 57h68v-568c0 -89 -22 -116 -104 -116h-45
c-83 0 -104 21 -104 100v9h76v-13c0 -37 3 -51 40 -51h17c37 0 40 14 40 56zM190 695l65 -115h-51l-43 65l-43 -65h-51l64 115h59z" />
    <glyph glyph-name="uni0123.alt" horiz-adv-x="325" 
d="M197 675v-75h-71v75l61 66l5 -4l-39 -62h44zM112 132c0 -39 3 -54 37 -54h16c33 0 44 25 44 67v273c0 42 -11 66 -44 66h-16c-34 0 -37 -14 -37 -53v-299zM209 -31v87c-12 -32 -35 -50 -79 -50h-20c-61 0 -78 25 -78 95v361c0 70 17 95 78 95h20c49 0 72 -23 82 -62l9 57
h68v-568c0 -89 -22 -116 -104 -116h-45c-83 0 -104 21 -104 100v9h76v-13c0 -37 3 -51 40 -51h17c37 0 40 14 40 56z" />
    <glyph glyph-name="gdotaccent.alt" horiz-adv-x="325" 
d="M112 132c0 -39 3 -54 37 -54h16c33 0 44 25 44 67v273c0 42 -11 66 -44 66h-16c-34 0 -37 -14 -37 -53v-299zM209 -31v87c-12 -32 -35 -50 -79 -50h-20c-61 0 -78 25 -78 95v361c0 70 17 95 78 95h20c49 0 72 -23 82 -62l9 57h68v-568c0 -89 -22 -116 -104 -116h-45
c-83 0 -104 21 -104 100v9h76v-13c0 -37 3 -51 40 -51h17c37 0 40 14 40 56zM197 600h-72v76h72v-76z" />
    <glyph glyph-name="racute.alt" horiz-adv-x="304" 
d="M119 580l51 115h73l-73 -115h-51zM116 0h-80v552h75v-63c9 42 32 68 84 68h9c61 0 79 -25 79 -95v-210h-75v179c0 39 -4 53 -38 53h-9c-33 0 -45 -24 -45 -66v-418z" />
    <glyph glyph-name="rcaron.alt" horiz-adv-x="304" 
d="M116 0h-80v552h75v-63c9 42 32 68 84 68h9c61 0 79 -25 79 -95v-210h-75v179c0 39 -4 53 -38 53h-9c-33 0 -45 -24 -45 -66v-418zM253 695l-65 -115h-59l-64 115h51l43 -65l43 65h51z" />
    <glyph glyph-name="uni0157.alt" horiz-adv-x="304" 
d="M116 0h-80v552h75v-63c9 42 32 68 84 68h9c61 0 79 -25 79 -95v-210h-75v179c0 39 -4 53 -38 53h-9c-33 0 -45 -24 -45 -66v-418zM41 -128v75h71v-75l-61 -66l-5 4l39 62h-44z" />
    <glyph glyph-name="yacute.alt" horiz-adv-x="328" 
d="M124 580l51 115h73l-73 -115h-51zM114 552v-420c0 -39 4 -54 38 -54h15c33 0 45 25 45 67v407h80v-568c0 -89 -23 -116 -104 -116h-46c-82 0 -103 21 -103 100v9h75v-13c0 -37 4 -51 40 -51h18c37 0 40 14 40 56v87c-12 -32 -35 -50 -79 -50h-20c-61 0 -78 25 -78 95v451
h79z" />
    <glyph glyph-name="ycircumflex.alt" horiz-adv-x="328" 
d="M193 695l65 -115h-51l-43 65l-43 -65h-51l64 115h59zM114 552v-420c0 -39 4 -54 38 -54h15c33 0 45 25 45 67v407h80v-568c0 -89 -23 -116 -104 -116h-46c-82 0 -103 21 -103 100v9h75v-13c0 -37 4 -51 40 -51h18c37 0 40 14 40 56v87c-12 -32 -35 -50 -79 -50h-20
c-61 0 -78 25 -78 95v451h79z" />
    <glyph glyph-name="ydieresis.alt" horiz-adv-x="328" 
d="M256 600h-72v76h72v-76zM141 600h-71v76h71v-76zM114 552v-420c0 -39 4 -54 38 -54h15c33 0 45 25 45 67v407h80v-568c0 -89 -23 -116 -104 -116h-46c-82 0 -103 21 -103 100v9h75v-13c0 -37 4 -51 40 -51h18c37 0 40 14 40 56v87c-12 -32 -35 -50 -79 -50h-20
c-61 0 -78 25 -78 95v451h79z" />
    <glyph glyph-name="ygrave.alt" horiz-adv-x="328" 
d="M152 695l50 -115h-50l-73 115h73zM114 552v-420c0 -39 4 -54 38 -54h15c33 0 45 25 45 67v407h80v-568c0 -89 -23 -116 -104 -116h-46c-82 0 -103 21 -103 100v9h75v-13c0 -37 4 -51 40 -51h18c37 0 40 14 40 56v87c-12 -32 -35 -50 -79 -50h-20c-61 0 -78 25 -78 95v451
h79z" />
    </font>
</defs>
</svg>
